NotoSansNewa-Regular.ufo
<glyph name="deletionMark" format="2">
  <unicode hex="1DFB"/>
  <outline>
    <contour>
      <point x="-316" y="998" type="line"/>
      <point x="-319" y="900"/>
      <point x="-359" y="784"/>
      <point x="-393" y="717" type="curve"/>
      <point x="-335" y="687" type="line"/>
      <point x="-277" y="795"/>
      <point x="-253" y="914"/>
      <point x="-255" y="1000" type="curve"/>
    </contour>
    <contour>
      <point x="-200" y="998" type="line"/>
      <point x="-203" y="900"/>
      <point x="-243" y="784"/>
      <point x="-277" y="717" type="curve"/>
      <point x="-219" y="687" type="line"/>
      <point x="-161" y="795"/>
      <point x="-137" y="914"/>
      <point x="-139" y="1000" type="curve"/>
    </contour>
    <contour>
      <point x="-77" y="998" type="line"/>
      <point x="-80" y="900"/>
      <point x="-120" y="784"/>
      <point x="-154" y="717" type="curve"/>
      <point x="-96" y="687" type="line"/>
      <point x="-38" y="795"/>
      <point x="-14" y="914"/>
      <point x="-16" y="1000" type="curve"/>
    </contour>
  </outline>
</glyph>
<glyph name="A_iv" format="2">
  <advance width="638"/>
  <unicode hex="11400"/>
  <outline>
    <contour>
      <point x="648" y="551" type="line"/>
      <point x="648" y="622" type="line"/>
      <point x="0" y="622" type="line"/>
      <point x="0" y="551" type="line"/>
      <point x="477" y="551" type="line"/>
      <point x="477" y="21" type="line"/>
      <point x="558" y="43" type="line"/>
      <point x="558" y="551" type="line"/>
    </contour>
    <contour>
      <point x="145" y="437" type="curve"/>
      <point x="185" y="385" type="line"/>
      <point x="195" y="395"/>
      <point x="221" y="404"/>
      <point x="243" y="404" type="curve" smooth="yes"/>
      <point x="306" y="404"/>
      <point x="349" y="355"/>
      <point x="349" y="281" type="curve" smooth="yes"/>
      <point x="349" y="200"/>
      <point x="316" y="160"/>
      <point x="258" y="160" type="curve" smooth="yes"/>
      <point x="179" y="160"/>
      <point x="113" y="237"/>
      <point x="46" y="396" type="curve"/>
      <point x="-20" y="364" type="line"/>
      <point x="55" y="172"/>
      <point x="150" y="88"/>
      <point x="267" y="88" type="curve" smooth="yes"/>
      <point x="348" y="88"/>
      <point x="428" y="152"/>
      <point x="428" y="278" type="curve" smooth="yes"/>
      <point x="428" y="406"/>
      <point x="342" y="470"/>
      <point x="248" y="470" type="curve" smooth="yes"/>
      <point x="215" y="470"/>
      <point x="173" y="463"/>
    </contour>
    <contour>
      <point x="382" y="357" type="curve"/>
      <point x="357" y="294" type="line"/>
      <point x="399" y="277"/>
      <point x="450" y="254"/>
      <point x="510" y="218" type="curve"/>
      <point x="545" y="284" type="line"/>
      <point x="498" y="310"/>
      <point x="439" y="338"/>
    </contour>
    <contour>
      <point x="558" y="46" type="curve"/>
      <point x="507" y="79" type="line"/>
      <point x="477" y="49"/>
      <point x="480" y="33"/>
      <point x="433" y="32" type="curve"/>
      <point x="447" y="-14" type="line"/>
      <point x="491" y="-37"/>
      <point x="537" y="-52"/>
      <point x="630" y="-168" type="curve"/>
      <point x="687" y="-118" type="line"/>
      <point x="637" y="-50"/>
      <point x="521" y="75"/>
      <point x="405" y="75" type="curve" smooth="yes"/>
      <point x="358" y="75"/>
      <point x="333" y="45"/>
      <point x="333" y="15" type="curve" smooth="yes"/>
      <point x="333" y="-21"/>
      <point x="371" y="-46"/>
      <point x="418" y="-46" type="curve" smooth="yes"/>
      <point x="497" y="-46"/>
      <point x="558" y="-20"/>
    </contour>
  </outline>
</glyph>
<glyph name="II_iv" format="2">
  <advance width="924"/>
  <unicode hex="11403"/>
  <outline>
    <contour>
      <point x="763" y="598" type="curve" smooth="yes"/>
      <point x="763" y="0" type="line"/>
      <point x="844" y="0" type="line"/>
      <point x="844" y="603" type="line" smooth="yes"/>
      <point x="844" y="766"/>
      <point x="782" y="793"/>
      <point x="734" y="793" type="curve" smooth="yes"/>
      <point x="616" y="793"/>
      <point x="625" y="619"/>
      <point x="514" y="619" type="curve" smooth="yes"/>
      <point x="471" y="619"/>
      <point x="447" y="637"/>
      <point x="414" y="675" type="curve"/>
      <point x="354" y="675" type="line"/>
      <point x="371" y="599"/>
      <point x="424" y="551"/>
      <point x="512" y="551" type="curve" smooth="yes"/>
      <point x="662" y="551"/>
      <point x="669" y="723"/>
      <point x="724" y="723" type="curve" smooth="yes"/>
      <point x="754" y="723"/>
      <point x="763" y="676"/>
    </contour>
    <contour>
      <point x="218" y="176" type="curve" smooth="yes"/>
      <point x="303" y="176"/>
      <point x="356" y="238"/>
      <point x="356" y="316" type="curve" smooth="yes"/>
      <point x="356" y="395"/>
      <point x="303" y="455"/>
      <point x="218" y="455" type="curve" smooth="yes"/>
      <point x="129" y="455"/>
      <point x="79" y="391"/>
      <point x="79" y="316" type="curve" smooth="yes"/>
      <point x="79" y="234"/>
      <point x="136" y="176"/>
    </contour>
    <contour>
      <point x="218" y="242" type="curve" smooth="yes"/>
      <point x="173" y="242"/>
      <point x="149" y="272"/>
      <point x="149" y="316" type="curve" smooth="yes"/>
      <point x="149" y="356"/>
      <point x="169" y="389"/>
      <point x="218" y="389" type="curve" smooth="yes"/>
      <point x="264" y="389"/>
      <point x="286" y="358"/>
      <point x="286" y="316" type="curve" smooth="yes"/>
      <point x="286" y="272"/>
      <point x="264" y="242"/>
    </contour>
    <contour>
      <point x="548" y="176" type="curve" smooth="yes"/>
      <point x="633" y="176"/>
      <point x="686" y="238"/>
      <point x="686" y="316" type="curve" smooth="yes"/>
      <point x="686" y="395"/>
      <point x="633" y="455"/>
      <point x="548" y="455" type="curve" smooth="yes"/>
      <point x="459" y="455"/>
      <point x="409" y="391"/>
      <point x="409" y="316" type="curve" smooth="yes"/>
      <point x="409" y="234"/>
      <point x="466" y="176"/>
    </contour>
    <contour>
      <point x="548" y="242" type="curve" smooth="yes"/>
      <point x="503" y="242"/>
      <point x="479" y="272"/>
      <point x="479" y="316" type="curve" smooth="yes"/>
      <point x="479" y="356"/>
      <point x="499" y="389"/>
      <point x="548" y="389" type="curve" smooth="yes"/>
      <point x="594" y="389"/>
      <point x="616" y="358"/>
      <point x="616" y="316" type="curve" smooth="yes"/>
      <point x="616" y="272"/>
      <point x="594" y="242"/>
    </contour>
    <contour>
      <point x="362" y="99" type="curve" smooth="yes"/>
      <point x="264" y="99"/>
      <point x="198" y="59"/>
      <point x="198" y="-13" type="curve" smooth="yes"/>
      <point x="198" y="-64"/>
      <point x="234" y="-104"/>
      <point x="281" y="-104" type="curve" smooth="yes"/>
      <point x="327" y="-104"/>
      <point x="364" y="-64"/>
      <point x="364" y="-13" type="curve" smooth="yes"/>
      <point x="364" y="1"/>
      <point x="361" y="14"/>
      <point x="356" y="26" type="curve"/>
      <point x="363" y="27"/>
      <point x="370" y="27"/>
      <point x="378" y="27" type="curve" smooth="yes"/>
      <point x="461" y="27"/>
      <point x="530" y="-22"/>
      <point x="602" y="-105" type="curve"/>
      <point x="670" y="-66" type="line"/>
      <point x="589" y="35"/>
      <point x="495" y="99"/>
    </contour>
    <contour>
      <point x="56" y="650" type="line"/>
      <point x="97" y="579"/>
      <point x="159" y="551"/>
      <point x="236" y="551" type="curve" smooth="yes"/>
      <point x="318" y="551"/>
      <point x="388" y="588"/>
      <point x="405" y="654" type="curve"/>
      <point x="354" y="675" type="line"/>
      <point x="326" y="646"/>
      <point x="282" y="619"/>
      <point x="229" y="619" type="curve" smooth="yes"/>
      <point x="183" y="619"/>
      <point x="139" y="640"/>
      <point x="113" y="681" type="curve"/>
    </contour>
  </outline>
</glyph>
<glyph name="U_iv" format="2">
  <advance width="549"/>
  <unicode hex="11404"/>
  <outline>
    <contour>
      <point x="0" y="622" type="line"/>
      <point x="0" y="551" type="line"/>
      <point x="559" y="551" type="line"/>
      <point x="559" y="622" type="line"/>
    </contour>
    <contour>
      <point x="296" y="375" type="curve"/>
      <point x="203" y="334" type="line"/>
      <point x="348" y="311"/>
      <point x="400" y="235"/>
      <point x="400" y="169" type="curve" smooth="yes"/>
      <point x="400" y="94"/>
      <point x="361" y="60"/>
      <point x="296" y="60" type="curve" smooth="yes"/>
      <point x="206" y="60"/>
      <point x="138" y="152"/>
      <point x="71" y="340" type="curve"/>
      <point x="0" y="317" type="line"/>
      <point x="85" y="70"/>
      <point x="168" y="-12"/>
      <point x="300" y="-12" type="curve" smooth="yes"/>
      <point x="406" y="-12"/>
      <point x="481" y="51"/>
      <point x="481" y="165" type="curve" smooth="yes"/>
      <point x="481" y="260"/>
      <point x="418" y="345"/>
    </contour>
    <contour>
      <point x="348" y="569" type="line"/>
      <point x="348" y="554" type="line" smooth="yes"/>
      <point x="348" y="488"/>
      <point x="312" y="410"/>
      <point x="214" y="399" type="curve"/>
      <point x="203" y="334" type="line"/>
      <point x="343" y="342"/>
      <point x="429" y="449"/>
      <point x="429" y="556" type="curve" smooth="yes"/>
      <point x="429" y="577" type="line"/>
    </contour>
  </outline>
</glyph>
<glyph name="UU_iv" format="2">
  <advance width="706"/>
  <unicode hex="11405"/>
  <outline>
    <contour>
      <point x="517" y="3" type="curve"/>
      <point x="590" y="-25" type="line"/>
      <point x="618" y="39"/>
      <point x="638" y="120"/>
      <point x="638" y="214" type="curve" smooth="yes"/>
      <point x="638" y="322"/>
      <point x="594" y="411"/>
      <point x="481" y="411" type="curve" smooth="yes"/>
      <point x="433" y="411"/>
      <point x="372" y="381"/>
      <point x="342" y="357" type="curve"/>
      <point x="397" y="313" type="line"/>
      <point x="421" y="331"/>
      <point x="447" y="342"/>
      <point x="473" y="342" type="curve" smooth="yes"/>
      <point x="535" y="342"/>
      <point x="560" y="287"/>
      <point x="560" y="217" type="curve" smooth="yes"/>
      <point x="560" y="130"/>
      <point x="541" y="58"/>
    </contour>
    <contour>
      <point x="0" y="622" type="line"/>
      <point x="0" y="551" type="line"/>
      <point x="716" y="551" type="line"/>
      <point x="716" y="622" type="line"/>
    </contour>
    <contour>
      <point x="348" y="569" type="line"/>
      <point x="348" y="554" type="line" smooth="yes"/>
      <point x="348" y="488"/>
      <point x="312" y="410"/>
      <point x="214" y="399" type="curve"/>
      <point x="203" y="334" type="line"/>
      <point x="343" y="342"/>
      <point x="429" y="449"/>
      <point x="429" y="556" type="curve" smooth="yes"/>
      <point x="429" y="577" type="line"/>
    </contour>
    <contour>
      <point x="296" y="375" type="curve"/>
      <point x="203" y="334" type="line"/>
      <point x="348" y="311"/>
      <point x="400" y="235"/>
      <point x="400" y="169" type="curve" smooth="yes"/>
      <point x="400" y="94"/>
      <point x="361" y="60"/>
      <point x="296" y="60" type="curve" smooth="yes"/>
      <point x="206" y="60"/>
      <point x="138" y="152"/>
      <point x="71" y="340" type="curve"/>
      <point x="0" y="317" type="line"/>
      <point x="85" y="70"/>
      <point x="168" y="-12"/>
      <point x="300" y="-12" type="curve" smooth="yes"/>
      <point x="406" y="-12"/>
      <point x="481" y="51"/>
      <point x="481" y="165" type="curve" smooth="yes"/>
      <point x="481" y="260"/>
      <point x="418" y="345"/>
    </contour>
  </outline>
</glyph>
<glyph name="R_iv" format="2">
  <advance width="710"/>
  <unicode hex="11406"/>
  <outline>
    <contour>
      <point x="720" y="551" type="line"/>
      <point x="720" y="622" type="line"/>
      <point x="0" y="622" type="line"/>
      <point x="0" y="551" type="line"/>
    </contour>
    <contour>
      <point x="549" y="566" type="line"/>
      <point x="549" y="0" type="line"/>
      <point x="630" y="0" type="line"/>
      <point x="630" y="566" type="line"/>
    </contour>
    <contour>
      <point x="53" y="319" type="curve"/>
      <point x="-5" y="265" type="line"/>
      <point x="98" y="110"/>
      <point x="241" y="15"/>
      <point x="279" y="15" type="curve" smooth="yes"/>
      <point x="303" y="15"/>
      <point x="314" y="46"/>
      <point x="314" y="151" type="curve" smooth="yes"/>
      <point x="314" y="592" type="line"/>
      <point x="233" y="592" type="line"/>
      <point x="233" y="137" type="line"/>
      <point x="200" y="139"/>
      <point x="99" y="243"/>
    </contour>
    <contour>
      <point x="165" y="450" type="curve"/>
      <point x="122" y="399" type="line"/>
      <point x="224" y="303"/>
      <point x="309" y="273"/>
      <point x="421" y="273" type="curve" smooth="yes"/>
      <point x="496" y="273"/>
      <point x="572" y="295"/>
      <point x="624" y="341" type="curve"/>
      <point x="607" y="405" type="line"/>
      <point x="550" y="363"/>
      <point x="491" y="345"/>
      <point x="423" y="345" type="curve" smooth="yes"/>
      <point x="322" y="345"/>
      <point x="240" y="382"/>
    </contour>
    <contour>
      <point x="740" y="-195" type="curve"/>
      <point x="715" y="-126" type="line"/>
      <point x="669" y="-150"/>
      <point x="644" y="-159"/>
      <point x="602" y="-159" type="curve" smooth="yes"/>
      <point x="561" y="-159"/>
      <point x="521" y="-140"/>
      <point x="521" y="-94" type="curve" smooth="yes"/>
      <point x="521" y="-50"/>
      <point x="553" y="-19"/>
      <point x="631" y="-10" type="curve"/>
      <point x="624" y="56" type="line"/>
      <point x="507" y="49"/>
      <point x="447" y="-14"/>
      <point x="447" y="-88" type="curve" smooth="yes"/>
      <point x="447" y="-172"/>
      <point x="507" y="-230"/>
      <point x="607" y="-230" type="curve" smooth="yes"/>
      <point x="661" y="-230"/>
      <point x="706" y="-213"/>
    </contour>
  </outline>
</glyph>
<glyph name="Rr_iv" format="2">
  <advance width="710"/>
  <unicode hex="11407"/>
  <outline>
    <contour>
      <point x="720" y="551" type="line"/>
      <point x="720" y="622" type="line"/>
      <point x="0" y="622" type="line"/>
      <point x="0" y="551" type="line"/>
    </contour>
    <contour>
      <point x="549" y="566" type="line"/>
      <point x="549" y="0" type="line"/>
      <point x="630" y="0" type="line"/>
      <point x="630" y="566" type="line"/>
    </contour>
    <contour>
      <point x="53" y="319" type="curve"/>
      <point x="-5" y="265" type="line"/>
      <point x="98" y="110"/>
      <point x="241" y="15"/>
      <point x="279" y="15" type="curve" smooth="yes"/>
      <point x="303" y="15"/>
      <point x="314" y="46"/>
      <point x="314" y="151" type="curve" smooth="yes"/>
      <point x="314" y="592" type="line"/>
      <point x="233" y="592" type="line"/>
      <point x="233" y="137" type="line"/>
      <point x="200" y="139"/>
      <point x="99" y="243"/>
    </contour>
    <contour>
      <point x="708" y="-174" type="curve"/>
      <point x="689" y="-108" type="line"/>
      <point x="657" y="-121"/>
      <point x="627" y="-124"/>
      <point x="602" y="-124" type="curve" smooth="yes"/>
      <point x="554" y="-124"/>
      <point x="521" y="-114"/>
      <point x="521" y="-77" type="curve" smooth="yes"/>
      <point x="521" y="-44"/>
      <point x="553" y="-17"/>
      <point x="631" y="-10" type="curve"/>
      <point x="624" y="56" type="line"/>
      <point x="507" y="50"/>
      <point x="447" y="-6"/>
      <point x="447" y="-69" type="curve" smooth="yes"/>
      <point x="447" y="-155"/>
      <point x="525" y="-193"/>
      <point x="607" y="-193" type="curve" smooth="yes"/>
      <point x="645" y="-193"/>
      <point x="679" y="-185"/>
    </contour>
    <contour>
      <point x="779" y="-321" type="curve"/>
      <point x="755" y="-258" type="line"/>
      <point x="709" y="-278"/>
      <point x="683" y="-286"/>
      <point x="641" y="-286" type="curve" smooth="yes"/>
      <point x="591" y="-286"/>
      <point x="560" y="-270"/>
      <point x="560" y="-233" type="curve" smooth="yes"/>
      <point x="560" y="-215"/>
      <point x="568" y="-193"/>
      <point x="587" y="-177" type="curve"/>
      <point x="512" y="-150" type="line"/>
      <point x="496" y="-171"/>
      <point x="486" y="-201"/>
      <point x="486" y="-224" type="curve" smooth="yes"/>
      <point x="486" y="-300"/>
      <point x="540" y="-356"/>
      <point x="646" y="-356" type="curve" smooth="yes"/>
      <point x="700" y="-356"/>
      <point x="745" y="-339"/>
    </contour>
    <contour>
      <point x="165" y="450" type="curve"/>
      <point x="122" y="399" type="line"/>
      <point x="224" y="303"/>
      <point x="309" y="273"/>
      <point x="421" y="273" type="curve" smooth="yes"/>
      <point x="496" y="273"/>
      <point x="572" y="295"/>
      <point x="624" y="341" type="curve"/>
      <point x="607" y="405" type="line"/>
      <point x="550" y="363"/>
      <point x="491" y="345"/>
      <point x="423" y="345" type="curve" smooth="yes"/>
      <point x="322" y="345"/>
      <point x="240" y="382"/>
    </contour>
  </outline>
</glyph>
<glyph name="L_iv" format="2">
  <advance width="560"/>
  <unicode hex="11408"/>
  <outline>
    <contour>
      <point x="260" y="632" type="curve" smooth="yes"/>
      <point x="154" y="632"/>
      <point x="110" y="572"/>
      <point x="110" y="518" type="curve" smooth="yes"/>
      <point x="110" y="469"/>
      <point x="146" y="429"/>
      <point x="193" y="429" type="curve" smooth="yes"/>
      <point x="239" y="429"/>
      <point x="276" y="469"/>
      <point x="276" y="520" type="curve" smooth="yes"/>
      <point x="276" y="532"/>
      <point x="274" y="544"/>
      <point x="270" y="555" type="curve"/>
      <point x="379" y="541"/>
      <point x="430" y="433"/>
      <point x="430" y="323" type="curve" smooth="yes"/>
      <point x="430" y="196"/>
      <point x="360" y="66"/>
      <point x="261" y="66" type="curve" smooth="yes"/>
      <point x="178" y="66"/>
      <point x="102" y="162"/>
      <point x="67" y="243" type="curve"/>
      <point x="0" y="205" type="line"/>
      <point x="49" y="92"/>
      <point x="141" y="-6"/>
      <point x="260" y="-6" type="curve" smooth="yes"/>
      <point x="410" y="-6"/>
      <point x="510" y="160"/>
      <point x="510" y="323" type="curve" smooth="yes"/>
      <point x="510" y="478"/>
      <point x="429" y="632"/>
    </contour>
  </outline>
</glyph>
<glyph name="LL_iv" format="2">
  <advance width="567"/>
  <unicode hex="11409"/>
  <outline>
    <contour>
      <point x="334" y="-245" type="curve"/>
      <point x="413" y="-271" type="line"/>
      <point x="418" y="-254"/>
      <point x="422" y="-235"/>
      <point x="422" y="-216" type="curve" smooth="yes"/>
      <point x="422" y="-35"/>
      <point x="77" y="-106"/>
      <point x="77" y="105" type="curve" smooth="yes"/>
      <point x="77" y="119"/>
      <point x="78" y="146"/>
      <point x="81" y="162" type="curve"/>
      <point x="18" y="195" type="line"/>
      <point x="9" y="169"/>
      <point x="0" y="136"/>
      <point x="0" y="107" type="curve" smooth="yes"/>
      <point x="0" y="-159"/>
      <point x="339" y="-101"/>
      <point x="339" y="-218" type="curve" smooth="yes"/>
      <point x="339" y="-227"/>
      <point x="337" y="-236"/>
    </contour>
    <contour>
      <point x="269" y="632" type="curve" smooth="yes"/>
      <point x="178" y="632"/>
      <point x="117" y="585"/>
      <point x="117" y="520" type="curve" smooth="yes"/>
      <point x="117" y="469"/>
      <point x="153" y="429"/>
      <point x="200" y="429" type="curve" smooth="yes"/>
      <point x="246" y="429"/>
      <point x="283" y="469"/>
      <point x="283" y="520" type="curve" smooth="yes"/>
      <point x="283" y="532"/>
      <point x="281" y="544"/>
      <point x="277" y="555" type="curve"/>
      <point x="386" y="541"/>
      <point x="437" y="433"/>
      <point x="437" y="323" type="curve" smooth="yes"/>
      <point x="437" y="196"/>
      <point x="375" y="60"/>
      <point x="271" y="60" type="curve" smooth="yes"/>
      <point x="213" y="60"/>
      <point x="151" y="90"/>
      <point x="88" y="205" type="curve"/>
      <point x="18" y="195" type="line"/>
      <point x="66" y="81"/>
      <point x="156" y="-12"/>
      <point x="278" y="-12" type="curve" smooth="yes"/>
      <point x="427" y="-12"/>
      <point x="517" y="160"/>
      <point x="517" y="323" type="curve" smooth="yes"/>
      <point x="517" y="478"/>
      <point x="436" y="632"/>
    </contour>
  </outline>
</glyph>
<glyph name="E_iv" format="2">
  <advance width="544"/>
  <unicode hex="1140A"/>
  <outline>
    <contour>
      <point x="383" y="622" type="line"/>
      <point x="383" y="163" type="line" smooth="yes"/>
      <point x="383" y="98"/>
      <point x="354" y="60"/>
      <point x="289" y="60" type="curve" smooth="yes"/>
      <point x="201" y="60"/>
      <point x="104" y="156"/>
      <point x="67" y="237" type="curve"/>
      <point x="0" y="199" type="line"/>
      <point x="51" y="86"/>
      <point x="165" y="-12"/>
      <point x="289" y="-12" type="curve" smooth="yes"/>
      <point x="395" y="-12"/>
      <point x="464" y="42"/>
      <point x="464" y="161" type="curve" smooth="yes"/>
      <point x="464" y="622" type="line"/>
    </contour>
    <contour>
      <point x="396" y="551" type="curve"/>
      <point x="384" y="622" type="line"/>
      <point x="189" y="595"/>
      <point x="67" y="535"/>
      <point x="67" y="435" type="curve" smooth="yes"/>
      <point x="67" y="384"/>
      <point x="103" y="344"/>
      <point x="150" y="344" type="curve" smooth="yes"/>
      <point x="196" y="344"/>
      <point x="233" y="384"/>
      <point x="233" y="435" type="curve" smooth="yes"/>
      <point x="233" y="461"/>
      <point x="223" y="484"/>
      <point x="208" y="501" type="curve"/>
      <point x="244" y="524"/>
      <point x="302" y="543"/>
    </contour>
  </outline>
</glyph>
<glyph name="AI_iv" format="2">
  <advance width="544"/>
  <unicode hex="1140B"/>
  <outline>
    <contour>
      <point x="92" y="897" type="curve"/>
      <point x="32" y="860" type="line"/>
      <point x="109" y="741"/>
      <point x="164" y="736"/>
      <point x="216" y="736" type="curve" smooth="yes"/>
      <point x="253" y="736"/>
      <point x="289" y="750"/>
      <point x="330" y="750" type="curve" smooth="yes"/>
      <point x="360" y="750"/>
      <point x="399" y="740"/>
      <point x="399" y="693" type="curve" smooth="yes"/>
      <point x="399" y="645"/>
      <point x="366" y="621"/>
      <point x="328" y="613" type="curve"/>
      <point x="322" y="546" type="line"/>
      <point x="441" y="557"/>
      <point x="472" y="622"/>
      <point x="472" y="689" type="curve" smooth="yes"/>
      <point x="472" y="773"/>
      <point x="409" y="818"/>
      <point x="331" y="818" type="curve" smooth="yes"/>
      <point x="301" y="818"/>
      <point x="247" y="804"/>
      <point x="216" y="804" type="curve" smooth="yes"/>
      <point x="183" y="804"/>
      <point x="150" y="819"/>
    </contour>
    <contour>
      <point x="396" y="551" type="curve"/>
      <point x="384" y="622" type="line"/>
      <point x="189" y="597"/>
      <point x="67" y="533"/>
      <point x="67" y="435" type="curve" smooth="yes"/>
      <point x="67" y="384"/>
      <point x="103" y="344"/>
      <point x="150" y="344" type="curve" smooth="yes"/>
      <point x="196" y="344"/>
      <point x="233" y="384"/>
      <point x="233" y="435" type="curve" smooth="yes"/>
      <point x="233" y="461"/>
      <point x="223" y="484"/>
      <point x="208" y="501" type="curve"/>
      <point x="244" y="524"/>
      <point x="302" y="543"/>
    </contour>
    <contour>
      <point x="383" y="622" type="line"/>
      <point x="383" y="163" type="line" smooth="yes"/>
      <point x="383" y="98"/>
      <point x="354" y="60"/>
      <point x="289" y="60" type="curve" smooth="yes"/>
      <point x="201" y="60"/>
      <point x="104" y="156"/>
      <point x="67" y="237" type="curve"/>
      <point x="0" y="199" type="line"/>
      <point x="51" y="86"/>
      <point x="165" y="-12"/>
      <point x="289" y="-12" type="curve" smooth="yes"/>
      <point x="395" y="-12"/>
      <point x="464" y="42"/>
      <point x="464" y="161" type="curve" smooth="yes"/>
      <point x="464" y="642" type="line"/>
    </contour>
  </outline>
</glyph>
<glyph name="O_iv" format="2">
  <advance width="750"/>
  <unicode hex="1140C"/>
  <outline>
    <contour>
      <point x="589" y="622" type="line"/>
      <point x="589" y="0" type="line"/>
      <point x="670" y="0" type="line"/>
      <point x="670" y="622" type="line"/>
    </contour>
    <contour>
      <point x="348" y="620" type="line"/>
      <point x="348" y="554" type="line" smooth="yes"/>
      <point x="348" y="488"/>
      <point x="312" y="410"/>
      <point x="214" y="399" type="curve"/>
      <point x="203" y="334" type="line"/>
      <point x="343" y="342"/>
      <point x="429" y="449"/>
      <point x="429" y="556" type="curve" smooth="yes"/>
      <point x="429" y="617" type="line"/>
    </contour>
    <contour>
      <point x="296" y="375" type="curve"/>
      <point x="203" y="334" type="line"/>
      <point x="348" y="311"/>
      <point x="400" y="235"/>
      <point x="400" y="169" type="curve" smooth="yes"/>
      <point x="400" y="94"/>
      <point x="361" y="60"/>
      <point x="296" y="60" type="curve" smooth="yes"/>
      <point x="206" y="60"/>
      <point x="138" y="152"/>
      <point x="71" y="340" type="curve"/>
      <point x="0" y="317" type="line"/>
      <point x="85" y="70"/>
      <point x="168" y="-12"/>
      <point x="300" y="-12" type="curve" smooth="yes"/>
      <point x="406" y="-12"/>
      <point x="481" y="51"/>
      <point x="481" y="165" type="curve" smooth="yes"/>
      <point x="481" y="260"/>
      <point x="418" y="345"/>
    </contour>
    <contour>
      <point x="56" y="650" type="line"/>
      <point x="97" y="579"/>
      <point x="159" y="551"/>
      <point x="236" y="551" type="curve" smooth="yes"/>
      <point x="318" y="551"/>
      <point x="388" y="588"/>
      <point x="405" y="654" type="curve"/>
      <point x="354" y="675" type="line"/>
      <point x="326" y="646"/>
      <point x="282" y="619"/>
      <point x="229" y="619" type="curve" smooth="yes"/>
      <point x="183" y="619"/>
      <point x="139" y="640"/>
      <point x="113" y="681" type="curve"/>
    </contour>
    <contour>
      <point x="694" y="651" type="curve"/>
      <point x="633" y="681" type="line"/>
      <point x="604" y="641"/>
      <point x="573" y="619"/>
      <point x="527" y="619" type="curve" smooth="yes"/>
      <point x="484" y="619"/>
      <point x="447" y="637"/>
      <point x="414" y="675" type="curve"/>
      <point x="354" y="675" type="line"/>
      <point x="371" y="599"/>
      <point x="424" y="551"/>
      <point x="512" y="551" type="curve" smooth="yes"/>
      <point x="583" y="551"/>
      <point x="653" y="580"/>
    </contour>
  </outline>
</glyph>
<glyph name="AU_iv" format="2">
  <advance width="790"/>
  <unicode hex="1140D"/>
  <outline>
    <contour>
      <point x="348" y="620" type="line"/>
      <point x="348" y="554" type="line" smooth="yes"/>
      <point x="348" y="488"/>
      <point x="312" y="410"/>
      <point x="214" y="399" type="curve"/>
      <point x="203" y="334" type="line"/>
      <point x="343" y="342"/>
      <point x="429" y="449"/>
      <point x="429" y="556" type="curve" smooth="yes"/>
      <point x="429" y="617" type="line"/>
    </contour>
    <contour>
      <point x="589" y="622" type="line"/>
      <point x="589" y="0" type="line"/>
      <point x="670" y="0" type="line"/>
      <point x="670" y="622" type="line"/>
    </contour>
    <contour>
      <point x="296" y="375" type="curve"/>
      <point x="203" y="334" type="line"/>
      <point x="348" y="311"/>
      <point x="400" y="235"/>
      <point x="400" y="169" type="curve" smooth="yes"/>
      <point x="400" y="94"/>
      <point x="361" y="60"/>
      <point x="296" y="60" type="curve" smooth="yes"/>
      <point x="206" y="60"/>
      <point x="138" y="152"/>
      <point x="71" y="340" type="curve"/>
      <point x="0" y="317" type="line"/>
      <point x="85" y="70"/>
      <point x="168" y="-12"/>
      <point x="300" y="-12" type="curve" smooth="yes"/>
      <point x="406" y="-12"/>
      <point x="481" y="51"/>
      <point x="481" y="165" type="curve" smooth="yes"/>
      <point x="481" y="260"/>
      <point x="418" y="345"/>
    </contour>
    <contour>
      <point x="56" y="650" type="line"/>
      <point x="97" y="579"/>
      <point x="159" y="551"/>
      <point x="236" y="551" type="curve" smooth="yes"/>
      <point x="318" y="551"/>
      <point x="388" y="588"/>
      <point x="405" y="654" type="curve"/>
      <point x="354" y="675" type="line"/>
      <point x="326" y="646"/>
      <point x="282" y="619"/>
      <point x="229" y="619" type="curve" smooth="yes"/>
      <point x="183" y="619"/>
      <point x="139" y="640"/>
      <point x="113" y="681" type="curve"/>
    </contour>
    <contour>
      <point x="540" y="622" type="curve" smooth="yes"/>
      <point x="497" y="622"/>
      <point x="447" y="637"/>
      <point x="414" y="675" type="curve"/>
      <point x="354" y="675" type="line"/>
      <point x="371" y="599"/>
      <point x="452" y="550"/>
      <point x="540" y="550" type="curve" smooth="yes"/>
      <point x="661" y="550"/>
      <point x="707" y="622"/>
      <point x="707" y="689" type="curve" smooth="yes"/>
      <point x="707" y="773"/>
      <point x="644" y="818"/>
      <point x="566" y="818" type="curve" smooth="yes"/>
      <point x="536" y="818"/>
      <point x="482" y="804"/>
      <point x="451" y="804" type="curve" smooth="yes"/>
      <point x="418" y="804"/>
      <point x="385" y="819"/>
      <point x="327" y="897" type="curve"/>
      <point x="267" y="860" type="line"/>
      <point x="344" y="741"/>
      <point x="399" y="736"/>
      <point x="451" y="736" type="curve" smooth="yes"/>
      <point x="488" y="736"/>
      <point x="524" y="750"/>
      <point x="565" y="750" type="curve" smooth="yes"/>
      <point x="595" y="750"/>
      <point x="634" y="740"/>
      <point x="634" y="693" type="curve" smooth="yes"/>
      <point x="634" y="635"/>
      <point x="587" y="622"/>
    </contour>
  </outline>
</glyph>
<glyph name="Ka" format="2">
  <advance width="680"/>
  <unicode hex="1140E"/>
  <outline>
    <contour>
      <point x="0" y="551" type="line"/>
      <point x="690" y="551" type="line"/>
      <point x="690" y="622" type="line"/>
      <point x="0" y="622" type="line"/>
    </contour>
    <contour>
      <point x="294" y="615" type="line"/>
      <point x="294" y="0" type="line"/>
      <point x="375" y="0" type="line"/>
      <point x="375" y="615" type="line"/>
    </contour>
    <contour>
      <point x="354" y="198" type="curve"/>
      <point x="338" y="270" type="line"/>
      <point x="309" y="234"/>
      <point x="268" y="205"/>
      <point x="209" y="205" type="curve" smooth="yes"/>
      <point x="155" y="205"/>
      <point x="116" y="230"/>
      <point x="116" y="284" type="curve" smooth="yes"/>
      <point x="116" y="357"/>
      <point x="189" y="400"/>
      <point x="323" y="400" type="curve" smooth="yes"/>
      <point x="482" y="400"/>
      <point x="539" y="321"/>
      <point x="539" y="228" type="curve" smooth="yes"/>
      <point x="539" y="0" type="line"/>
      <point x="619" y="0" type="line"/>
      <point x="619" y="230" type="line" smooth="yes"/>
      <point x="619" y="376"/>
      <point x="518" y="470"/>
      <point x="323" y="470" type="curve" smooth="yes"/>
      <point x="170" y="470"/>
      <point x="40" y="415"/>
      <point x="40" y="286" type="curve" smooth="yes"/>
      <point x="40" y="182"/>
      <point x="117" y="131"/>
      <point x="200" y="131" type="curve" smooth="yes"/>
      <point x="258" y="131"/>
      <point x="322" y="157"/>
    </contour>
  </outline>
</glyph>
<glyph name="Ga" format="2">
  <advance width="576"/>
  <unicode hex="11410"/>
  <outline>
    <contour>
      <point x="496" y="457" type="curve"/>
      <point x="496" y="555" type="line"/>
      <point x="440" y="589"/>
      <point x="364" y="612"/>
      <point x="286" y="612" type="curve" smooth="yes"/>
      <point x="166" y="612"/>
      <point x="66" y="562"/>
      <point x="45" y="407" type="curve"/>
      <point x="141" y="407"/>
      <point x="221" y="367"/>
      <point x="221" y="281" type="curve" smooth="yes"/>
      <point x="221" y="220"/>
      <point x="178" y="189"/>
      <point x="123" y="189" type="curve" smooth="yes"/>
      <point x="89" y="189"/>
      <point x="60" y="199"/>
      <point x="29" y="214" type="curve"/>
      <point x="2" y="142" type="line"/>
      <point x="43" y="124"/>
      <point x="89" y="116"/>
      <point x="125" y="116" type="curve" smooth="yes"/>
      <point x="224" y="116"/>
      <point x="297" y="182"/>
      <point x="297" y="284" type="curve" smooth="yes"/>
      <point x="297" y="400"/>
      <point x="214" y="459"/>
      <point x="142" y="470" type="curve"/>
      <point x="165" y="520"/>
      <point x="232" y="541"/>
      <point x="292" y="541" type="curve" smooth="yes"/>
      <point x="368" y="541"/>
      <point x="440" y="504"/>
    </contour>
    <contour>
      <point x="415" y="555" type="line"/>
      <point x="415" y="0" type="line"/>
      <point x="496" y="0" type="line"/>
      <point x="496" y="555" type="line"/>
    </contour>
  </outline>
</glyph>
<glyph name="Ca" format="2">
  <advance width="559"/>
  <unicode hex="11414"/>
  <outline>
    <contour>
      <point x="0" y="551" type="line"/>
      <point x="569" y="551" type="line"/>
      <point x="569" y="622" type="line"/>
      <point x="0" y="622" type="line"/>
    </contour>
    <contour>
      <point x="398" y="600" type="line"/>
      <point x="398" y="0" type="line"/>
      <point x="479" y="0" type="line"/>
      <point x="479" y="600" type="line"/>
    </contour>
    <contour>
      <point x="412" y="187" type="curve"/>
      <point x="412" y="282" type="line"/>
      <point x="374" y="242"/>
      <point x="327" y="208"/>
      <point x="261" y="208" type="curve" smooth="yes"/>
      <point x="157" y="208"/>
      <point x="136" y="290"/>
      <point x="115" y="340" type="curve"/>
      <point x="216" y="347"/>
      <point x="248" y="400"/>
      <point x="308" y="400" type="curve" smooth="yes"/>
      <point x="371" y="400"/>
      <point x="414" y="371"/>
      <point x="430" y="361" type="curve"/>
      <point x="439" y="437" type="line"/>
      <point x="412" y="451"/>
      <point x="366" y="470"/>
      <point x="315" y="470" type="curve" smooth="yes"/>
      <point x="229" y="470"/>
      <point x="149" y="396"/>
      <point x="20" y="396" type="curve"/>
      <point x="62" y="279"/>
      <point x="78" y="138"/>
      <point x="261" y="138" type="curve" smooth="yes"/>
      <point x="330" y="138"/>
      <point x="377" y="164"/>
    </contour>
  </outline>
</glyph>
<glyph name="Jha" format="2">
  <advance width="656"/>
  <unicode hex="11417"/>
  <outline>
    <contour>
      <point x="666" y="551" type="line"/>
      <point x="666" y="622" type="line"/>
      <point x="-5" y="622" type="line"/>
      <point x="-5" y="551" type="line"/>
    </contour>
    <contour>
      <point x="515" y="600" type="line"/>
      <point x="515" y="0" type="line"/>
      <point x="596" y="0" type="line"/>
      <point x="596" y="600" type="line"/>
    </contour>
    <contour>
      <point x="38" y="349" type="curve"/>
      <point x="-20" y="295" type="line"/>
      <point x="72" y="121"/>
      <point x="185" y="80"/>
      <point x="235" y="80" type="curve" smooth="yes"/>
      <point x="277" y="80"/>
      <point x="299" y="109"/>
      <point x="299" y="174" type="curve" smooth="yes"/>
      <point x="299" y="600" type="line"/>
      <point x="218" y="600" type="line"/>
      <point x="218" y="177" type="line"/>
      <point x="146" y="207"/>
      <point x="75" y="277"/>
    </contour>
    <contour>
      <point x="290" y="388" type="curve"/>
      <point x="235" y="341" type="line"/>
      <point x="364" y="219"/>
      <point x="535" y="150"/>
      <point x="568" y="140" type="curve"/>
      <point x="537" y="238" type="line"/>
      <point x="504" y="241"/>
      <point x="357" y="330"/>
    </contour>
  </outline>
</glyph>
<glyph name="Nya" format="2">
  <advance width="781"/>
  <unicode hex="11418"/>
  <outline>
    <contour>
      <point x="657" y="-27" type="curve"/>
      <point x="711" y="6" type="line"/>
      <point x="684" y="49"/>
      <point x="644" y="96"/>
      <point x="619" y="131" type="curve" smooth="yes"/>
      <point x="596" y="163"/>
      <point x="573" y="187"/>
      <point x="541" y="187" type="curve" smooth="yes"/>
      <point x="511" y="187"/>
      <point x="489" y="166"/>
      <point x="489" y="134" type="curve" smooth="yes"/>
      <point x="489" y="93"/>
      <point x="524" y="74"/>
      <point x="560" y="74" type="curve" smooth="yes"/>
      <point x="660" y="74"/>
      <point x="741" y="146"/>
      <point x="741" y="239" type="curve" smooth="yes"/>
      <point x="741" y="299"/>
      <point x="694" y="366"/>
      <point x="605" y="381" type="curve"/>
      <point x="563" y="331" type="line"/>
      <point x="625" y="330"/>
      <point x="668" y="289"/>
      <point x="668" y="236" type="curve" smooth="yes"/>
      <point x="668" y="182"/>
      <point x="635" y="134"/>
      <point x="574" y="134" type="curve"/>
      <point x="559" y="108" type="line"/>
      <point x="588" y="75"/>
      <point x="621" y="33"/>
    </contour>
    <contour>
      <point x="538" y="390" type="curve"/>
      <point x="541" y="329" type="line"/>
      <point x="616" y="332"/>
      <point x="707" y="378"/>
      <point x="707" y="485" type="curve" smooth="yes"/>
      <point x="707" y="547"/>
      <point x="671" y="619"/>
      <point x="574" y="619" type="curve" smooth="yes"/>
      <point x="491" y="619"/>
      <point x="444" y="565"/>
      <point x="412" y="525" type="curve"/>
      <point x="433" y="459" type="line"/>
      <point x="471" y="500"/>
      <point x="518" y="548"/>
      <point x="572" y="548" type="curve" smooth="yes"/>
      <point x="614" y="548"/>
      <point x="638" y="510"/>
      <point x="638" y="476" type="curve" smooth="yes"/>
      <point x="638" y="431"/>
      <point x="613" y="390"/>
    </contour>
    <contour>
      <point x="256" y="627" type="curve" smooth="yes"/>
      <point x="189" y="627"/>
      <point x="141" y="579"/>
      <point x="141" y="515" type="curve" smooth="yes"/>
      <point x="141" y="464"/>
      <point x="177" y="424"/>
      <point x="224" y="424" type="curve" smooth="yes"/>
      <point x="270" y="424"/>
      <point x="307" y="464"/>
      <point x="307" y="515" type="curve" smooth="yes"/>
      <point x="307" y="525"/>
      <point x="306" y="535"/>
      <point x="303" y="543" type="curve"/>
      <point x="371" y="516"/>
      <point x="402" y="416"/>
      <point x="402" y="309" type="curve" smooth="yes"/>
      <point x="402" y="173"/>
      <point x="352" y="60"/>
      <point x="261" y="60" type="curve" smooth="yes"/>
      <point x="179" y="60"/>
      <point x="109" y="168"/>
      <point x="77" y="255" type="curve"/>
      <point x="10" y="216" type="line"/>
      <point x="56" y="92"/>
      <point x="141" y="-12"/>
      <point x="256" y="-12" type="curve" smooth="yes"/>
      <point x="397" y="-12"/>
      <point x="483" y="133"/>
      <point x="483" y="310" type="curve" smooth="yes"/>
      <point x="483" y="478"/>
      <point x="410" y="627"/>
    </contour>
  </outline>
</glyph>
<glyph name="Ttha" format="2">
  <advance width="622"/>
  <unicode hex="1141B"/>
  <outline>
    <contour>
      <point x="40" y="268" type="curve" smooth="yes"/>
      <point x="40" y="78"/>
      <point x="171" y="-12"/>
      <point x="311" y="-12" type="curve" smooth="yes"/>
      <point x="451" y="-12"/>
      <point x="582" y="78"/>
      <point x="582" y="268" type="curve" smooth="yes"/>
      <point x="582" y="471"/>
      <point x="411" y="630"/>
      <point x="311" y="630" type="curve" smooth="yes"/>
      <point x="221" y="630"/>
      <point x="40" y="471"/>
    </contour>
    <contour>
      <point x="120" y="268" type="curve" smooth="yes"/>
      <point x="120" y="430"/>
      <point x="249" y="558"/>
      <point x="309" y="558" type="curve" smooth="yes"/>
      <point x="370" y="558"/>
      <point x="502" y="430"/>
      <point x="502" y="268" type="curve" smooth="yes"/>
      <point x="502" y="119"/>
      <point x="410" y="60"/>
      <point x="309" y="60" type="curve" smooth="yes"/>
      <point x="209" y="60"/>
      <point x="120" y="119"/>
    </contour>
  </outline>
</glyph>
<glyph name="Ddha" format="2">
  <advance width="580"/>
  <unicode hex="1141D"/>
  <outline>
    <contour>
      <point x="0" y="551" type="line"/>
      <point x="590" y="551" type="line"/>
      <point x="590" y="622" type="line"/>
      <point x="0" y="622" type="line"/>
    </contour>
    <contour>
      <point x="324" y="58" type="curve" smooth="yes"/>
      <point x="195" y="58"/>
      <point x="132" y="164"/>
      <point x="117" y="285" type="curve"/>
      <point x="265" y="296"/>
      <point x="413" y="368"/>
      <point x="413" y="540" type="curve" smooth="yes"/>
      <point x="413" y="620" type="line"/>
      <point x="332" y="620" type="line"/>
      <point x="332" y="538" type="line" smooth="yes"/>
      <point x="332" y="400"/>
      <point x="187" y="351"/>
      <point x="30" y="346" type="curve"/>
      <point x="30" y="177"/>
      <point x="104" y="-12"/>
      <point x="326" y="-12" type="curve" smooth="yes"/>
      <point x="462" y="-12"/>
      <point x="550" y="62"/>
      <point x="550" y="155" type="curve" smooth="yes"/>
      <point x="550" y="216"/>
      <point x="511" y="280"/>
      <point x="424" y="280" type="curve" smooth="yes"/>
      <point x="338" y="280"/>
      <point x="292" y="216"/>
      <point x="292" y="155" type="curve" smooth="yes"/>
      <point x="292" y="109"/>
      <point x="317" y="67"/>
      <point x="366" y="45" type="curve"/>
      <point x="450" y="81" type="line"/>
      <point x="377" y="91"/>
      <point x="367" y="137"/>
      <point x="367" y="159" type="curve" smooth="yes"/>
      <point x="367" y="196"/>
      <point x="394" y="214"/>
      <point x="423" y="214" type="curve" smooth="yes"/>
      <point x="455" y="214"/>
      <point x="475" y="191"/>
      <point x="475" y="157" type="curve" smooth="yes"/>
      <point x="475" y="99"/>
      <point x="425" y="58"/>
    </contour>
  </outline>
</glyph>
<glyph name="Ta" format="2">
  <advance width="595"/>
  <unicode hex="1141F"/>
  <outline>
    <contour>
      <point x="605" y="551" type="line"/>
      <point x="605" y="622" type="line"/>
      <point x="0" y="622" type="line"/>
      <point x="0" y="551" type="line"/>
    </contour>
    <contour>
      <point x="514" y="0" type="line"/>
      <point x="514" y="375" type="line" smooth="yes"/>
      <point x="514" y="513"/>
      <point x="429" y="575"/>
      <point x="296" y="575" type="curve" smooth="yes"/>
      <point x="154" y="575"/>
      <point x="80" y="482"/>
      <point x="80" y="369" type="curve" smooth="yes"/>
      <point x="80" y="230" type="line"/>
      <point x="161" y="230" type="line"/>
      <point x="161" y="368" type="line" smooth="yes"/>
      <point x="161" y="440"/>
      <point x="196" y="503"/>
      <point x="294" y="503" type="curve" smooth="yes"/>
      <point x="409" y="503"/>
      <point x="433" y="434"/>
      <point x="433" y="368" type="curve" smooth="yes"/>
      <point x="433" y="0" type="line"/>
    </contour>
  </outline>
</glyph>
<glyph name="Tha" format="2">
  <advance width="640"/>
  <unicode hex="11420"/>
  <outline>
    <contour>
      <point x="479" y="0" type="line"/>
      <point x="560" y="0" type="line"/>
      <point x="560" y="622" type="line"/>
      <point x="479" y="622" type="line"/>
    </contour>
    <contour>
      <point x="514" y="191" type="curve"/>
      <point x="505" y="257" type="line"/>
      <point x="464" y="197"/>
      <point x="370" y="169"/>
      <point x="305" y="169" type="curve" smooth="yes"/>
      <point x="239" y="169"/>
      <point x="176" y="191"/>
      <point x="159" y="249" type="curve"/>
      <point x="221" y="289"/>
      <point x="307" y="348"/>
      <point x="307" y="484" type="curve" smooth="yes"/>
      <point x="307" y="569"/>
      <point x="257" y="632"/>
      <point x="177" y="632" type="curve" smooth="yes"/>
      <point x="91" y="632"/>
      <point x="45" y="568"/>
      <point x="45" y="507" type="curve" smooth="yes"/>
      <point x="45" y="441"/>
      <point x="89" y="379"/>
      <point x="185" y="379" type="curve" smooth="yes"/>
      <point x="210" y="379"/>
      <point x="228" y="388"/>
      <point x="250" y="409" type="curve"/>
      <point x="250" y="478" type="line"/>
      <point x="232" y="459"/>
      <point x="214" y="446"/>
      <point x="185" y="446" type="curve" smooth="yes"/>
      <point x="153" y="446"/>
      <point x="120" y="469"/>
      <point x="120" y="511" type="curve" smooth="yes"/>
      <point x="120" y="548"/>
      <point x="147" y="566"/>
      <point x="172" y="566" type="curve" smooth="yes"/>
      <point x="208" y="566"/>
      <point x="232" y="532"/>
      <point x="232" y="482" type="curve" smooth="yes"/>
      <point x="232" y="363"/>
      <point x="152" y="311"/>
      <point x="71" y="279" type="curve"/>
      <point x="85" y="167"/>
      <point x="179" y="98"/>
      <point x="299" y="98" type="curve" smooth="yes"/>
      <point x="363" y="98"/>
      <point x="477" y="125"/>
    </contour>
  </outline>
</glyph>
<glyph name="Da" format="2">
  <advance width="565"/>
  <unicode hex="11421"/>
  <outline>
    <contour>
      <point x="0" y="551" type="line"/>
      <point x="575" y="551" type="line"/>
      <point x="575" y="622" type="line"/>
      <point x="0" y="622" type="line"/>
    </contour>
    <contour>
      <point x="302" y="600" type="line"/>
      <point x="302" y="548" type="line" smooth="yes"/>
      <point x="302" y="400"/>
      <point x="187" y="351"/>
      <point x="30" y="346" type="curve"/>
      <point x="42" y="149"/>
      <point x="149" y="26"/>
      <point x="315" y="26" type="curve" smooth="yes"/>
      <point x="340" y="26"/>
      <point x="366" y="30"/>
      <point x="393" y="37" type="curve"/>
      <point x="397" y="11"/>
      <point x="406" y="-39"/>
      <point x="414" y="-74" type="curve"/>
      <point x="492" y="-60" type="line"/>
      <point x="487" y="-27"/>
      <point x="477" y="29"/>
      <point x="470" y="59" type="curve"/>
      <point x="503" y="69"/>
      <point x="548" y="106"/>
      <point x="548" y="159" type="curve" smooth="yes"/>
      <point x="548" y="204"/>
      <point x="515" y="250"/>
      <point x="462" y="250" type="curve" smooth="yes"/>
      <point x="417" y="250"/>
      <point x="374" y="216"/>
      <point x="374" y="156" type="curve" smooth="yes"/>
      <point x="374" y="137"/>
      <point x="378" y="121"/>
      <point x="381" y="109" type="curve"/>
      <point x="359" y="104"/>
      <point x="338" y="101"/>
      <point x="317" y="101" type="curve" smooth="yes"/>
      <point x="199" y="101"/>
      <point x="129" y="168"/>
      <point x="117" y="285" type="curve"/>
      <point x="265" y="296"/>
      <point x="383" y="368"/>
      <point x="383" y="550" type="curve" smooth="yes"/>
      <point x="383" y="600" type="line"/>
    </contour>
  </outline>
</glyph>
<glyph name="Dha" format="2">
  <advance width="556"/>
  <unicode hex="11422"/>
  <outline>
    <contour>
      <point x="395" y="622" type="line"/>
      <point x="395" y="0" type="line"/>
      <point x="476" y="0" type="line"/>
      <point x="476" y="622" type="line"/>
    </contour>
    <contour>
      <point x="40" y="622" type="line"/>
      <point x="40" y="553" type="line" smooth="yes"/>
      <point x="40" y="392"/>
      <point x="93" y="338"/>
      <point x="246" y="328" type="curve"/>
      <point x="309" y="385" type="line"/>
      <point x="140" y="386"/>
      <point x="121" y="437"/>
      <point x="121" y="562" type="curve" smooth="yes"/>
      <point x="121" y="622" type="line"/>
    </contour>
    <contour>
      <point x="413" y="298" type="curve"/>
      <point x="421" y="366" type="line"/>
      <point x="377" y="380"/>
      <point x="314" y="388"/>
      <point x="261" y="388" type="curve" smooth="yes"/>
      <point x="158" y="388"/>
      <point x="46" y="344"/>
      <point x="46" y="227" type="curve" smooth="yes"/>
      <point x="46" y="119"/>
      <point x="144" y="81"/>
      <point x="243" y="81" type="curve" smooth="yes"/>
      <point x="324" y="81"/>
      <point x="362" y="101"/>
      <point x="410" y="132" type="curve"/>
      <point x="415" y="221" type="line"/>
      <point x="379" y="177"/>
      <point x="326" y="151"/>
      <point x="245" y="151" type="curve" smooth="yes"/>
      <point x="186" y="151"/>
      <point x="126" y="172"/>
      <point x="126" y="229" type="curve" smooth="yes"/>
      <point x="126" y="299"/>
      <point x="197" y="318"/>
      <point x="264" y="318" type="curve" smooth="yes"/>
      <point x="309" y="318"/>
      <point x="371" y="308"/>
    </contour>
  </outline>
</glyph>
<glyph name="Na" format="2">
  <advance width="542"/>
  <unicode hex="11423"/>
  <outline>
    <contour>
      <point x="0" y="551" type="line"/>
      <point x="552" y="551" type="line"/>
      <point x="552" y="622" type="line"/>
      <point x="0" y="622" type="line"/>
    </contour>
    <contour>
      <point x="381" y="0" type="line"/>
      <point x="462" y="0" type="line"/>
      <point x="462" y="600" type="line"/>
      <point x="381" y="600" type="line"/>
    </contour>
    <contour>
      <point x="304" y="410" type="curve" smooth="yes"/>
      <point x="153" y="410"/>
      <point x="36" y="352"/>
      <point x="36" y="256" type="curve" smooth="yes"/>
      <point x="36" y="205"/>
      <point x="72" y="164"/>
      <point x="119" y="164" type="curve" smooth="yes"/>
      <point x="165" y="164"/>
      <point x="202" y="204"/>
      <point x="202" y="255" type="curve" smooth="yes"/>
      <point x="202" y="278"/>
      <point x="194" y="299"/>
      <point x="182" y="315" type="curve"/>
      <point x="213" y="331"/>
      <point x="255" y="339"/>
      <point x="300" y="339" type="curve" smooth="yes"/>
      <point x="353" y="339"/>
      <point x="386" y="327"/>
      <point x="405" y="307" type="curve"/>
      <point x="424" y="385" type="line"/>
      <point x="394" y="401"/>
      <point x="354" y="410"/>
    </contour>
  </outline>
</glyph>
<glyph name="Nha" format="2">
  <advance width="700"/>
  <unicode hex="11424"/>
  <outline>
    <contour>
      <point x="710" y="622" type="line"/>
      <point x="0" y="622" type="line"/>
      <point x="0" y="551" type="line"/>
      <point x="710" y="551" type="line"/>
    </contour>
    <contour>
      <point x="348" y="0" type="line"/>
      <point x="429" y="0" type="line"/>
      <point x="429" y="311" type="line"/>
      <point x="348" y="311" type="line"/>
    </contour>
    <contour>
      <point x="295" y="202" type="curve" smooth="yes"/>
      <point x="205" y="202"/>
      <point x="86" y="174"/>
      <point x="86" y="91" type="curve" smooth="yes"/>
      <point x="86" y="53"/>
      <point x="114" y="25"/>
      <point x="150" y="25" type="curve" smooth="yes"/>
      <point x="187" y="25"/>
      <point x="216" y="54"/>
      <point x="216" y="90" type="curve" smooth="yes"/>
      <point x="216" y="103"/>
      <point x="212" y="116"/>
      <point x="205" y="126" type="curve"/>
      <point x="229" y="137"/>
      <point x="260" y="141"/>
      <point x="292" y="141" type="curve" smooth="yes"/>
      <point x="333" y="141"/>
      <point x="358" y="134"/>
      <point x="374" y="118" type="curve"/>
      <point x="388" y="184" type="line"/>
      <point x="365" y="196"/>
      <point x="333" y="202"/>
    </contour>
    <contour>
      <point x="352" y="582" type="line" smooth="yes"/>
      <point x="352" y="554"/>
      <point x="304" y="542"/>
      <point x="247" y="528" type="curve" smooth="yes"/>
      <point x="167" y="508"/>
      <point x="70" y="477"/>
      <point x="70" y="392" type="curve" smooth="yes"/>
      <point x="70" y="317"/>
      <point x="145" y="283"/>
      <point x="217" y="283" type="curve" smooth="yes"/>
      <point x="282" y="283"/>
      <point x="349" y="304"/>
      <point x="428" y="304" type="curve" smooth="yes"/>
      <point x="519" y="304"/>
      <point x="539" y="235"/>
      <point x="539" y="191" type="curve" smooth="yes"/>
      <point x="539" y="0" type="line"/>
      <point x="620" y="0" type="line"/>
      <point x="620" y="194" type="line" smooth="yes"/>
      <point x="620" y="291"/>
      <point x="569" y="375"/>
      <point x="436" y="375" type="curve" smooth="yes"/>
      <point x="368" y="375"/>
      <point x="275" y="357"/>
      <point x="223" y="357" type="curve" smooth="yes"/>
      <point x="169" y="357"/>
      <point x="150" y="371"/>
      <point x="150" y="396" type="curve" smooth="yes"/>
      <point x="150" y="439"/>
      <point x="205" y="453"/>
      <point x="266" y="467" type="curve" smooth="yes"/>
      <point x="345" y="485"/>
      <point x="435" y="512"/>
      <point x="435" y="584" type="curve" smooth="yes"/>
      <point x="435" y="622" type="line"/>
      <point x="352" y="622" type="line"/>
    </contour>
  </outline>
</glyph>
<glyph name="Ba" format="2">
  <advance width="566"/>
  <unicode hex="11427"/>
  <outline>
    <contour>
      <point x="576" y="551" type="line"/>
      <point x="576" y="622" type="line"/>
      <point x="0" y="622" type="line"/>
      <point x="0" y="551" type="line"/>
    </contour>
    <contour>
      <point x="405" y="600" type="line"/>
      <point x="405" y="219" type="line"/>
      <point x="370" y="186"/>
      <point x="321" y="167"/>
      <point x="251" y="167" type="curve" smooth="yes"/>
      <point x="187" y="167"/>
      <point x="131" y="205"/>
      <point x="131" y="287" type="curve" smooth="yes"/>
      <point x="131" y="357"/>
      <point x="184" y="401"/>
      <point x="272" y="401" type="curve" smooth="yes"/>
      <point x="352" y="401"/>
      <point x="405" y="376"/>
      <point x="431" y="363" type="curve"/>
      <point x="445" y="435" type="line"/>
      <point x="426" y="444"/>
      <point x="359" y="470"/>
      <point x="269" y="470" type="curve" smooth="yes"/>
      <point x="138" y="470"/>
      <point x="50" y="400"/>
      <point x="50" y="286" type="curve" smooth="yes"/>
      <point x="50" y="175"/>
      <point x="132" y="98"/>
      <point x="245" y="98" type="curve" smooth="yes"/>
      <point x="319" y="98"/>
      <point x="369" y="113"/>
      <point x="405" y="134" type="curve"/>
      <point x="405" y="0" type="line"/>
      <point x="486" y="0" type="line"/>
      <point x="486" y="600" type="line"/>
    </contour>
  </outline>
</glyph>
<glyph name="Bha" format="2">
  <advance width="544"/>
  <unicode hex="11428"/>
  <outline>
    <contour>
      <point x="554" y="551" type="line"/>
      <point x="554" y="622" type="line"/>
      <point x="0" y="622" type="line"/>
      <point x="0" y="551" type="line"/>
    </contour>
    <contour>
      <point x="347" y="48" type="line"/>
      <point x="105" y="367" type="line"/>
      <point x="105" y="352" type="line"/>
      <point x="134" y="352"/>
      <point x="179" y="395"/>
      <point x="218" y="445" type="curve" smooth="yes"/>
      <point x="248" y="484"/>
      <point x="287" y="539"/>
      <point x="338" y="539" type="curve" smooth="yes"/>
      <point x="364" y="539"/>
      <point x="399" y="525"/>
      <point x="399" y="466" type="curve" smooth="yes"/>
      <point x="399" y="440"/>
      <point x="392" y="399"/>
      <point x="368" y="355" type="curve"/>
      <point x="431" y="314" type="line"/>
      <point x="456" y="349"/>
      <point x="480" y="403"/>
      <point x="480" y="464" type="curve" smooth="yes"/>
      <point x="480" y="567"/>
      <point x="416" y="611"/>
      <point x="348" y="611" type="curve" smooth="yes"/>
      <point x="255" y="611"/>
      <point x="211" y="534"/>
      <point x="153" y="471" type="curve" smooth="yes"/>
      <point x="125" y="441"/>
      <point x="83" y="399"/>
      <point x="36" y="399" type="curve"/>
      <point x="36" y="327" type="line"/>
      <point x="285" y="0" type="line"/>
    </contour>
  </outline>
</glyph>
<glyph name="Mha" format="2">
  <advance width="858"/>
  <unicode hex="1142A"/>
  <outline>
    <contour>
      <point x="868" y="622" type="line"/>
      <point x="0" y="622" type="line"/>
      <point x="0" y="551" type="line"/>
      <point x="868" y="551" type="line"/>
    </contour>
    <contour>
      <point x="315" y="612" type="line"/>
      <point x="234" y="612" type="line"/>
      <point x="234" y="564" type="line" smooth="yes"/>
      <point x="234" y="531"/>
      <point x="199" y="510"/>
      <point x="159" y="497" type="curve" smooth="yes"/>
      <point x="104" y="480"/>
      <point x="40" y="450"/>
      <point x="40" y="379" type="curve" smooth="yes"/>
      <point x="40" y="301"/>
      <point x="115" y="268"/>
      <point x="197" y="268" type="curve" smooth="yes"/>
      <point x="316" y="268"/>
      <point x="529" y="310"/>
      <point x="621" y="298" type="curve" smooth="yes"/>
      <point x="689" y="289"/>
      <point x="697" y="234"/>
      <point x="697" y="208" type="curve" smooth="yes"/>
      <point x="697" y="0" type="line"/>
      <point x="778" y="0" type="line"/>
      <point x="778" y="207" type="line" smooth="yes"/>
      <point x="778" y="294"/>
      <point x="737" y="362"/>
      <point x="632" y="373" type="curve" smooth="yes"/>
      <point x="543" y="382"/>
      <point x="305" y="342"/>
      <point x="203" y="342" type="curve" smooth="yes"/>
      <point x="139" y="342"/>
      <point x="120" y="353"/>
      <point x="120" y="381" type="curve" smooth="yes"/>
      <point x="120" y="410"/>
      <point x="163" y="420"/>
      <point x="209" y="438" type="curve" smooth="yes"/>
      <point x="260" y="458"/>
      <point x="315" y="489"/>
      <point x="315" y="564" type="curve" smooth="yes"/>
    </contour>
    <contour>
      <point x="486" y="0" type="line"/>
      <point x="567" y="0" type="line"/>
      <point x="567" y="612" type="line"/>
      <point x="486" y="612" type="line"/>
    </contour>
    <contour>
      <point x="349" y="192" type="curve" smooth="yes"/>
      <point x="337" y="192"/>
      <point x="320" y="191"/>
      <point x="305" y="189" type="curve"/>
      <point x="305" y="311" type="line"/>
      <point x="224" y="311" type="line"/>
      <point x="224" y="178" type="line"/>
      <point x="195" y="171"/>
      <point x="175" y="143"/>
      <point x="175" y="109" type="curve" smooth="yes"/>
      <point x="175" y="70"/>
      <point x="202" y="38"/>
      <point x="239" y="38" type="curve" smooth="yes"/>
      <point x="276" y="38"/>
      <point x="305" y="70"/>
      <point x="305" y="109" type="curve" smooth="yes"/>
      <point x="305" y="124" type="line"/>
      <point x="316" y="125"/>
      <point x="331" y="126"/>
      <point x="343" y="126" type="curve" smooth="yes"/>
      <point x="398" y="126"/>
      <point x="466" y="109"/>
      <point x="499" y="65" type="curve"/>
      <point x="504" y="148" type="line"/>
      <point x="436" y="182"/>
      <point x="388" y="192"/>
    </contour>
  </outline>
</glyph>
<glyph name="Ra" format="2">
  <advance width="536"/>
  <unicode hex="1142C"/>
  <outline>
    <contour>
      <point x="0" y="551" type="line"/>
      <point x="546" y="551" type="line"/>
      <point x="546" y="622" type="line"/>
      <point x="0" y="622" type="line"/>
    </contour>
    <contour>
      <point x="397" y="284" type="curve"/>
      <point x="416" y="362" type="line"/>
      <point x="386" y="380"/>
      <point x="348" y="401"/>
      <point x="308" y="401" type="curve" smooth="yes"/>
      <point x="248" y="401"/>
      <point x="206" y="355"/>
      <point x="142" y="355" type="curve" smooth="yes"/>
      <point x="108" y="355"/>
      <point x="78" y="368"/>
      <point x="54" y="380" type="curve"/>
      <point x="36" y="314" type="line"/>
      <point x="66" y="298"/>
      <point x="101" y="284"/>
      <point x="140" y="284" type="curve" smooth="yes"/>
      <point x="210" y="284"/>
      <point x="247" y="330"/>
      <point x="304" y="330" type="curve" smooth="yes"/>
      <point x="345" y="330"/>
      <point x="378" y="306"/>
    </contour>
    <contour>
      <point x="375" y="0" type="line"/>
      <point x="456" y="0" type="line"/>
      <point x="456" y="600" type="line"/>
      <point x="375" y="600" type="line"/>
    </contour>
  </outline>
</glyph>
<glyph name="La" format="2">
  <advance width="663"/>
  <unicode hex="1142E"/>
  <outline>
    <contour>
      <point x="-10" y="551" type="line"/>
      <point x="673" y="551" type="line"/>
      <point x="673" y="622" type="line"/>
      <point x="-10" y="622" type="line"/>
    </contour>
    <contour>
      <point x="502" y="600" type="line"/>
      <point x="502" y="0" type="line"/>
      <point x="583" y="0" type="line"/>
      <point x="583" y="600" type="line"/>
    </contour>
    <contour>
      <point x="451" y="477" type="curve" smooth="yes"/>
      <point x="406" y="477"/>
      <point x="351" y="460"/>
      <point x="316" y="419" type="curve"/>
      <point x="284" y="456"/>
      <point x="237" y="477"/>
      <point x="186" y="477" type="curve" smooth="yes"/>
      <point x="90" y="477"/>
      <point x="30" y="412"/>
      <point x="30" y="332" type="curve" smooth="yes"/>
      <point x="30" y="263"/>
      <point x="85" y="190"/>
      <point x="137" y="121" type="curve" smooth="yes"/>
      <point x="237" y="-11" type="line"/>
      <point x="298" y="34" type="line"/>
      <point x="193" y="174" type="line" smooth="yes"/>
      <point x="145" y="238"/>
      <point x="112" y="282"/>
      <point x="112" y="329" type="curve" smooth="yes"/>
      <point x="112" y="386"/>
      <point x="154" y="409"/>
      <point x="187" y="409" type="curve" smooth="yes"/>
      <point x="236" y="409"/>
      <point x="279" y="376"/>
      <point x="279" y="316" type="curve" smooth="yes"/>
      <point x="279" y="310" type="line"/>
      <point x="353" y="310" type="line"/>
      <point x="353" y="405"/>
      <point x="426" y="409"/>
      <point x="455" y="409" type="curve" smooth="yes"/>
      <point x="487" y="409"/>
      <point x="514" y="399"/>
      <point x="522" y="397" type="curve"/>
      <point x="535" y="468" type="line"/>
      <point x="518" y="472"/>
      <point x="489" y="477"/>
    </contour>
  </outline>
</glyph>
<glyph name="Lha" format="2">
  <advance width="730"/>
  <unicode hex="1142F"/>
  <outline>
    <contour>
      <point x="0" y="551" type="line"/>
      <point x="740" y="551" type="line"/>
      <point x="740" y="622" type="line"/>
      <point x="0" y="622" type="line"/>
    </contour>
    <contour>
      <point x="425" y="622" type="line"/>
      <point x="345" y="622" type="line"/>
      <point x="345" y="577" type="line" smooth="yes"/>
      <point x="345" y="544"/>
      <point x="293" y="529"/>
      <point x="233" y="514" type="curve" smooth="yes"/>
      <point x="154" y="494"/>
      <point x="60" y="474"/>
      <point x="60" y="391" type="curve" smooth="yes"/>
      <point x="60" y="316"/>
      <point x="137" y="283"/>
      <point x="219" y="283" type="curve" smooth="yes"/>
      <point x="296" y="283"/>
      <point x="405" y="312"/>
      <point x="466" y="312" type="curve" smooth="yes"/>
      <point x="547" y="312"/>
      <point x="569" y="254"/>
      <point x="569" y="210" type="curve" smooth="yes"/>
      <point x="569" y="0" type="line"/>
      <point x="650" y="0" type="line"/>
      <point x="650" y="213" type="line" smooth="yes"/>
      <point x="650" y="310"/>
      <point x="599" y="383"/>
      <point x="463" y="383" type="curve" smooth="yes"/>
      <point x="380" y="383"/>
      <point x="267" y="357"/>
      <point x="205" y="357" type="curve" smooth="yes"/>
      <point x="161" y="357"/>
      <point x="140" y="371"/>
      <point x="140" y="392" type="curve" smooth="yes"/>
      <point x="140" y="431"/>
      <point x="207" y="437"/>
      <point x="276" y="454" type="curve" smooth="yes"/>
      <point x="349" y="472"/>
      <point x="425" y="502"/>
      <point x="425" y="566" type="curve" smooth="yes"/>
    </contour>
    <contour>
      <point x="344" y="0" type="line"/>
      <point x="425" y="0" type="line"/>
      <point x="425" y="310" type="line"/>
      <point x="344" y="310" type="line"/>
    </contour>
    <contour>
      <point x="345" y="130" type="curve"/>
      <point x="415" y="135" type="line"/>
      <point x="415" y="186"/>
      <point x="371" y="224"/>
      <point x="309" y="224" type="curve" smooth="yes"/>
      <point x="280" y="224"/>
      <point x="252" y="212"/>
      <point x="231" y="192" type="curve"/>
      <point x="207" y="212"/>
      <point x="176" y="224"/>
      <point x="147" y="224" type="curve" smooth="yes"/>
      <point x="84" y="224"/>
      <point x="41" y="186"/>
      <point x="41" y="135" type="curve" smooth="yes"/>
      <point x="41" y="98"/>
      <point x="68" y="58"/>
      <point x="100" y="17" type="curve" smooth="yes"/>
      <point x="120" y="-9" type="line"/>
      <point x="179" y="28" type="line"/>
      <point x="160" y="51" type="line" smooth="yes"/>
      <point x="139" y="77"/>
      <point x="111" y="111"/>
      <point x="111" y="130" type="curve" smooth="yes"/>
      <point x="111" y="156"/>
      <point x="132" y="167"/>
      <point x="152" y="167" type="curve" smooth="yes"/>
      <point x="177" y="167"/>
      <point x="200" y="144"/>
      <point x="200" y="109" type="curve"/>
      <point x="263" y="109" type="line"/>
      <point x="263" y="144"/>
      <point x="283" y="167"/>
      <point x="309" y="167" type="curve" smooth="yes"/>
      <point x="324" y="167"/>
      <point x="345" y="156"/>
    </contour>
  </outline>
</glyph>
<glyph name="Sha" format="2">
  <advance width="651"/>
  <unicode hex="11431"/>
  <outline>
    <contour>
      <point x="571" y="622" type="line"/>
      <point x="490" y="622" type="line"/>
      <point x="490" y="0" type="line"/>
      <point x="571" y="0" type="line"/>
    </contour>
    <contour>
      <point x="528" y="329" type="line"/>
      <point x="461" y="388"/>
      <point x="411" y="430"/>
      <point x="379" y="592" type="curve"/>
      <point x="315" y="611" type="line"/>
      <point x="320" y="435"/>
      <point x="397" y="325"/>
      <point x="515" y="260" type="curve"/>
    </contour>
    <contour>
      <point x="199" y="235" type="curve" smooth="yes"/>
      <point x="300" y="235"/>
      <point x="329" y="300"/>
      <point x="329" y="350" type="curve" smooth="yes"/>
      <point x="329" y="499"/>
      <point x="168" y="510"/>
      <point x="73" y="629" type="curve"/>
      <point x="20" y="594" type="line"/>
      <point x="85" y="480"/>
      <point x="254" y="457"/>
      <point x="254" y="363" type="curve" smooth="yes"/>
      <point x="254" y="326"/>
      <point x="236" y="301"/>
      <point x="199" y="301" type="curve" smooth="yes"/>
      <point x="163" y="301"/>
      <point x="145" y="326"/>
      <point x="145" y="363" type="curve" smooth="yes"/>
      <point x="145" y="457"/>
      <point x="314" y="480"/>
      <point x="379" y="594" type="curve"/>
      <point x="326" y="629" type="line"/>
      <point x="231" y="510"/>
      <point x="70" y="499"/>
      <point x="70" y="350" type="curve" smooth="yes"/>
      <point x="70" y="300"/>
      <point x="99" y="235"/>
    </contour>
  </outline>
</glyph>
<glyph name="Sa" format="2">
  <advance width="571"/>
  <unicode hex="11433"/>
  <outline>
    <contour>
      <point x="-10" y="551" type="line"/>
      <point x="581" y="551" type="line"/>
      <point x="581" y="622" type="line"/>
      <point x="-10" y="622" type="line"/>
    </contour>
    <contour>
      <point x="491" y="600" type="line"/>
      <point x="410" y="600" type="line"/>
      <point x="410" y="0" type="line"/>
      <point x="491" y="0" type="line"/>
    </contour>
    <contour>
      <point x="300" y="0" type="line"/>
      <point x="94" y="289" type="line"/>
      <point x="148" y="301"/>
      <point x="213" y="346"/>
      <point x="213" y="465" type="curve" smooth="yes"/>
      <point x="213" y="515"/>
      <point x="183" y="574"/>
      <point x="167" y="600" type="curve"/>
      <point x="81" y="600" type="line"/>
      <point x="97" y="579"/>
      <point x="132" y="514"/>
      <point x="132" y="466" type="curve" smooth="yes"/>
      <point x="132" y="397"/>
      <point x="102" y="333"/>
      <point x="21" y="331" type="curve"/>
      <point x="16" y="271" type="line"/>
      <point x="204" y="0" type="line"/>
    </contour>
    <contour>
      <point x="461" y="215" type="curve"/>
      <point x="461" y="286" type="line"/>
      <point x="358" y="313"/>
      <point x="238" y="333"/>
      <point x="116" y="333" type="curve" smooth="yes"/>
      <point x="83" y="333"/>
      <point x="56" y="332"/>
      <point x="21" y="331" type="curve"/>
      <point x="37" y="262" type="line"/>
      <point x="64" y="263"/>
      <point x="75" y="262"/>
      <point x="102" y="262" type="curve" smooth="yes"/>
      <point x="238" y="262"/>
      <point x="343" y="242"/>
    </contour>
  </outline>
</glyph>
<glyph name="AA_dv" format="2">
  <advance width="211"/>
  <unicode hex="11435"/>
  <outline>
    <contour>
      <point x="50" y="0" type="line"/>
      <point x="131" y="0" type="line"/>
      <point x="131" y="551" type="line"/>
      <point x="221" y="551" type="line"/>
      <point x="221" y="622" type="line"/>
      <point x="0" y="622" type="line"/>
      <point x="0" y="551" type="line"/>
      <point x="50" y="551" type="line"/>
    </contour>
  </outline>
</glyph>
<glyph name="I_dv" format="2">
  <advance width="211"/>
  <unicode hex="11436"/>
  <outline>
    <contour>
      <point x="50" y="551" type="line"/>
      <point x="50" y="0" type="line"/>
      <point x="131" y="0" type="line"/>
      <point x="131" y="551" type="line"/>
      <point x="251" y="551" type="line"/>
      <point x="251" y="622" type="line"/>
      <point x="0" y="622" type="line"/>
      <point x="0" y="551" type="line"/>
    </contour>
    <contour>
      <point x="52" y="614" type="curve"/>
      <point x="131" y="618" type="line"/>
      <point x="110" y="644"/>
      <point x="92" y="686"/>
      <point x="92" y="720" type="curve" smooth="yes"/>
      <point x="92" y="741"/>
      <point x="96" y="793"/>
      <point x="177" y="793" type="curve" smooth="yes"/>
      <point x="238" y="793"/>
      <point x="298" y="757"/>
      <point x="365" y="706" type="curve" smooth="yes"/>
      <point x="543" y="569" type="line"/>
      <point x="585" y="619" type="line"/>
      <point x="427" y="740" type="line" smooth="yes"/>
      <point x="323" y="819"/>
      <point x="254" y="865"/>
      <point x="164" y="865" type="curve" smooth="yes"/>
      <point x="56" y="865"/>
      <point x="11" y="805"/>
      <point x="11" y="733" type="curve" smooth="yes"/>
      <point x="11" y="686"/>
      <point x="33" y="639"/>
    </contour>
  </outline>
</glyph>
<glyph name="II_dv" format="2">
  <advance width="211"/>
  <unicode hex="11437"/>
  <outline>
    <contour>
      <point x="128" y="622" type="line"/>
      <point x="3" y="747" type="line" smooth="yes"/>
      <point x="-46" y="796"/>
      <point x="-96" y="835"/>
      <point x="-161" y="835" type="curve" smooth="yes"/>
      <point x="-227" y="835"/>
      <point x="-265" y="786"/>
      <point x="-265" y="723" type="curve" smooth="yes"/>
      <point x="-265" y="664"/>
      <point x="-239" y="619"/>
      <point x="-221" y="591" type="curve"/>
      <point x="-155" y="620" type="line"/>
      <point x="-172" y="647"/>
      <point x="-188" y="679"/>
      <point x="-188" y="718" type="curve" smooth="yes"/>
      <point x="-188" y="747"/>
      <point x="-170" y="763"/>
      <point x="-148" y="763" type="curve" smooth="yes"/>
      <point x="-114" y="763"/>
      <point x="-79" y="731"/>
      <point x="-42" y="697" type="curve" smooth="yes"/>
      <point x="41" y="622" type="line"/>
      <point x="0" y="622" type="line"/>
      <point x="0" y="551" type="line"/>
      <point x="50" y="551" type="line"/>
      <point x="50" y="0" type="line"/>
      <point x="131" y="0" type="line"/>
      <point x="131" y="551" type="line"/>
      <point x="251" y="551" type="line"/>
      <point x="251" y="622" type="line"/>
    </contour>
  </outline>
</glyph>
<glyph name="U_dv" format="2">
  <unicode hex="11438"/>
  <outline>
    <contour>
      <point x="-64" y="-271" type="curve"/>
      <point x="0" y="-229" type="line"/>
      <point x="-55" y="-135"/>
      <point x="-171" y="-61"/>
      <point x="-301" y="-61" type="curve" smooth="yes"/>
      <point x="-362" y="-61"/>
      <point x="-400" y="-75"/>
      <point x="-431" y="-92" type="curve"/>
      <point x="-405" y="-161" type="line"/>
      <point x="-387" y="-150"/>
      <point x="-354" y="-133"/>
      <point x="-300" y="-133" type="curve" smooth="yes"/>
      <point x="-187" y="-133"/>
      <point x="-105" y="-200"/>
    </contour>
  </outline>
</glyph>
<glyph name="UU_dv" format="2">
  <unicode hex="11439"/>
  <outline>
    <contour>
      <point x="-152" y="15" type="line"/>
      <point x="-233" y="15" type="line"/>
      <point x="-233" y="-63" type="line" smooth="yes"/>
      <point x="-233" y="-98"/>
      <point x="-258" y="-172"/>
      <point x="-319" y="-172" type="curve" smooth="yes"/>
      <point x="-343" y="-172"/>
      <point x="-361" y="-158"/>
      <point x="-361" y="-133" type="curve" smooth="yes"/>
      <point x="-361" y="-111"/>
      <point x="-342" y="-96"/>
      <point x="-312" y="-96" type="curve" smooth="yes"/>
      <point x="-225" y="-96"/>
      <point x="-135" y="-144"/>
      <point x="-62" y="-235" type="curve"/>
      <point x="0" y="-196" type="line"/>
      <point x="-81" y="-98"/>
      <point x="-199" y="-26"/>
      <point x="-310" y="-26" type="curve" smooth="yes"/>
      <point x="-385" y="-26"/>
      <point x="-434" y="-74"/>
      <point x="-434" y="-137" type="curve" smooth="yes"/>
      <point x="-434" y="-202"/>
      <point x="-384" y="-238"/>
      <point x="-325" y="-238" type="curve" smooth="yes"/>
      <point x="-214" y="-238"/>
      <point x="-152" y="-128"/>
      <point x="-152" y="-75" type="curve" smooth="yes"/>
    </contour>
  </outline>
</glyph>
<glyph name="R_dv" format="2">
  <unicode hex="1143A"/>
  <outline>
    <contour>
      <point x="0" y="-233" type="curve"/>
      <point x="-25" y="-164" type="line"/>
      <point x="-71" y="-188"/>
      <point x="-96" y="-198"/>
      <point x="-138" y="-198" type="curve" smooth="yes"/>
      <point x="-179" y="-198"/>
      <point x="-219" y="-178"/>
      <point x="-219" y="-132" type="curve" smooth="yes"/>
      <point x="-219" y="-88"/>
      <point x="-187" y="-57"/>
      <point x="-109" y="-48" type="curve"/>
      <point x="-116" y="18" type="line"/>
      <point x="-233" y="11"/>
      <point x="-293" y="-52"/>
      <point x="-293" y="-126" type="curve" smooth="yes"/>
      <point x="-293" y="-210"/>
      <point x="-233" y="-268"/>
      <point x="-133" y="-268" type="curve" smooth="yes"/>
      <point x="-79" y="-268"/>
      <point x="-34" y="-251"/>
    </contour>
  </outline>
</glyph>
<glyph name="RR_dv" format="2">
  <unicode hex="1143B"/>
  <outline>
    <contour>
      <point x="-37" y="-214" type="curve"/>
      <point x="-59" y="-148" type="line"/>
      <point x="-93" y="-162"/>
      <point x="-118" y="-168"/>
      <point x="-154" y="-168" type="curve" smooth="yes"/>
      <point x="-202" y="-168"/>
      <point x="-225" y="-151"/>
      <point x="-225" y="-114" type="curve" smooth="yes"/>
      <point x="-225" y="-81"/>
      <point x="-193" y="-55"/>
      <point x="-115" y="-48" type="curve"/>
      <point x="-121" y="18" type="line"/>
      <point x="-238" y="12"/>
      <point x="-299" y="-44"/>
      <point x="-299" y="-114" type="curve" smooth="yes"/>
      <point x="-299" y="-193"/>
      <point x="-231" y="-238"/>
      <point x="-149" y="-238" type="curve" smooth="yes"/>
      <point x="-105" y="-238"/>
      <point x="-68" y="-228"/>
    </contour>
    <contour>
      <point x="0" y="-370" type="curve"/>
      <point x="-22" y="-304" type="line"/>
      <point x="-56" y="-318"/>
      <point x="-82" y="-324"/>
      <point x="-117" y="-324" type="curve" smooth="yes"/>
      <point x="-167" y="-324"/>
      <point x="-196" y="-307"/>
      <point x="-196" y="-270" type="curve" smooth="yes"/>
      <point x="-196" y="-252"/>
      <point x="-188" y="-238"/>
      <point x="-169" y="-222" type="curve"/>
      <point x="-244" y="-195" type="line"/>
      <point x="-260" y="-216"/>
      <point x="-270" y="-239"/>
      <point x="-270" y="-272" type="curve" smooth="yes"/>
      <point x="-270" y="-338"/>
      <point x="-218" y="-394"/>
      <point x="-112" y="-394" type="curve" smooth="yes"/>
      <point x="-67" y="-394"/>
      <point x="-31" y="-384"/>
    </contour>
  </outline>
</glyph>
<glyph name="L_dv" format="2">
  <unicode hex="1143C"/>
  <outline>
    <contour>
      <point x="-38" y="-325" type="curve"/>
      <point x="-43" y="-258" type="line"/>
      <point x="-62" y="-268"/>
      <point x="-85" y="-272"/>
      <point x="-112" y="-272" type="curve" smooth="yes"/>
      <point x="-161" y="-272"/>
      <point x="-173" y="-249"/>
      <point x="-173" y="-233" type="curve" smooth="yes"/>
      <point x="-173" y="-195"/>
      <point x="-98" y="-152"/>
      <point x="-98" y="-84" type="curve" smooth="yes"/>
      <point x="-98" y="-49"/>
      <point x="-122" y="11"/>
      <point x="-208" y="11" type="curve" smooth="yes"/>
      <point x="-261" y="11"/>
      <point x="-301" y="-24"/>
      <point x="-316" y="-52" type="curve"/>
      <point x="-262" y="-92" type="line"/>
      <point x="-256" y="-75"/>
      <point x="-238" y="-59"/>
      <point x="-210" y="-59" type="curve" smooth="yes"/>
      <point x="-184" y="-59"/>
      <point x="-170" y="-79"/>
      <point x="-170" y="-92" type="curve" smooth="yes"/>
      <point x="-170" y="-141"/>
      <point x="-245" y="-165"/>
      <point x="-245" y="-243" type="curve" smooth="yes"/>
      <point x="-245" y="-281"/>
      <point x="-214" y="-341"/>
      <point x="-123" y="-341" type="curve" smooth="yes"/>
      <point x="-90" y="-341"/>
      <point x="-58" y="-333"/>
    </contour>
  </outline>
</glyph>
<glyph name="LL_dv" format="2">
  <unicode hex="1143D"/>
  <outline>
    <contour>
      <point x="-162" y="-248" type="curve"/>
      <point x="-169" y="-185" type="line"/>
      <point x="-184" y="-192"/>
      <point x="-201" y="-197"/>
      <point x="-232" y="-197" type="curve" smooth="yes"/>
      <point x="-262" y="-197"/>
      <point x="-273" y="-178"/>
      <point x="-273" y="-168" type="curve" smooth="yes"/>
      <point x="-273" y="-143"/>
      <point x="-215" y="-117"/>
      <point x="-215" y="-64" type="curve" smooth="yes"/>
      <point x="-215" y="-37"/>
      <point x="-240" y="10"/>
      <point x="-309" y="10" type="curve" smooth="yes"/>
      <point x="-354" y="10"/>
      <point x="-389" y="-18"/>
      <point x="-399" y="-31" type="curve"/>
      <point x="-363" y="-78" type="line"/>
      <point x="-353" y="-65"/>
      <point x="-336" y="-55"/>
      <point x="-316" y="-55" type="curve" smooth="yes"/>
      <point x="-295" y="-55"/>
      <point x="-287" y="-69"/>
      <point x="-287" y="-79" type="curve" smooth="yes"/>
      <point x="-287" y="-109"/>
      <point x="-345" y="-126"/>
      <point x="-345" y="-186" type="curve" smooth="yes"/>
      <point x="-345" y="-215"/>
      <point x="-319" y="-262"/>
      <point x="-238" y="-262" type="curve" smooth="yes"/>
      <point x="-211" y="-262"/>
      <point x="-178" y="-255"/>
    </contour>
    <contour>
      <point x="-131" y="-384" type="curve"/>
      <point x="-143" y="-320" type="line"/>
      <point x="-163" y="-326"/>
      <point x="-181" y="-329"/>
      <point x="-208" y="-329" type="curve" smooth="yes"/>
      <point x="-245" y="-329"/>
      <point x="-265" y="-312"/>
      <point x="-265" y="-277" type="curve" smooth="yes"/>
      <point x="-265" y="-261"/>
      <point x="-257" y="-242"/>
      <point x="-243" y="-226" type="curve"/>
      <point x="-304" y="-204" type="line"/>
      <point x="-318" y="-216"/>
      <point x="-335" y="-248"/>
      <point x="-335" y="-279" type="curve" smooth="yes"/>
      <point x="-335" y="-341"/>
      <point x="-296" y="-394"/>
      <point x="-210" y="-394" type="curve" smooth="yes"/>
      <point x="-173" y="-394"/>
      <point x="-152" y="-390"/>
    </contour>
  </outline>
</glyph>
<glyph name="E_dv" format="2">
  <unicode hex="1143E"/>
  <outline>
    <contour>
      <point x="-675" y="650" type="line"/>
      <point x="-634" y="579"/>
      <point x="-572" y="551"/>
      <point x="-495" y="551" type="curve" smooth="yes"/>
      <point x="-413" y="551"/>
      <point x="-343" y="588"/>
      <point x="-326" y="654" type="curve"/>
      <point x="-377" y="675" type="line"/>
      <point x="-405" y="646"/>
      <point x="-449" y="619"/>
      <point x="-502" y="619" type="curve" smooth="yes"/>
      <point x="-548" y="619"/>
      <point x="-592" y="640"/>
      <point x="-618" y="681" type="curve"/>
    </contour>
    <contour>
      <point x="-37" y="651" type="curve"/>
      <point x="-98" y="681" type="line"/>
      <point x="-127" y="641"/>
      <point x="-158" y="619"/>
      <point x="-204" y="619" type="curve" smooth="yes"/>
      <point x="-247" y="619"/>
      <point x="-284" y="637"/>
      <point x="-317" y="675" type="curve"/>
      <point x="-377" y="675" type="line"/>
      <point x="-360" y="599"/>
      <point x="-307" y="551"/>
      <point x="-219" y="551" type="curve" smooth="yes"/>
      <point x="-148" y="551"/>
      <point x="-78" y="580"/>
    </contour>
  </outline>
</glyph>
<glyph name="AI_dv" format="2">
  <unicode hex="1143F"/>
  <outline>
    <contour>
      <point x="-645" y="650" type="line"/>
      <point x="-604" y="579"/>
      <point x="-542" y="551"/>
      <point x="-465" y="551" type="curve" smooth="yes"/>
      <point x="-383" y="551"/>
      <point x="-313" y="588"/>
      <point x="-296" y="654" type="curve"/>
      <point x="-347" y="675" type="line"/>
      <point x="-375" y="646"/>
      <point x="-419" y="619"/>
      <point x="-472" y="619" type="curve" smooth="yes"/>
      <point x="-518" y="619"/>
      <point x="-562" y="640"/>
      <point x="-588" y="681" type="curve"/>
    </contour>
    <contour>
      <point x="-183" y="622" type="curve" smooth="yes"/>
      <point x="-226" y="622"/>
      <point x="-254" y="637"/>
      <point x="-287" y="675" type="curve"/>
      <point x="-347" y="675" type="line"/>
      <point x="-330" y="599"/>
      <point x="-271" y="550"/>
      <point x="-183" y="550" type="curve" smooth="yes"/>
      <point x="-62" y="550"/>
      <point x="-16" y="622"/>
      <point x="-16" y="689" type="curve" smooth="yes"/>
      <point x="-16" y="773"/>
      <point x="-79" y="818"/>
      <point x="-157" y="818" type="curve" smooth="yes"/>
      <point x="-187" y="818"/>
      <point x="-219" y="804"/>
      <point x="-250" y="804" type="curve" smooth="yes"/>
      <point x="-283" y="804"/>
      <point x="-316" y="819"/>
      <point x="-374" y="897" type="curve"/>
      <point x="-434" y="860" type="line"/>
      <point x="-357" y="741"/>
      <point x="-302" y="736"/>
      <point x="-250" y="736" type="curve" smooth="yes"/>
      <point x="-213" y="736"/>
      <point x="-199" y="750"/>
      <point x="-158" y="750" type="curve" smooth="yes"/>
      <point x="-128" y="750"/>
      <point x="-89" y="740"/>
      <point x="-89" y="693" type="curve" smooth="yes"/>
      <point x="-89" y="635"/>
      <point x="-136" y="622"/>
    </contour>
  </outline>
</glyph>
<glyph name="O_dv" format="2">
  <advance width="209"/>
  <unicode hex="11440"/>
  <outline>
    <contour>
      <point x="28" y="626" type="line"/>
      <point x="28" y="0" type="line"/>
      <point x="109" y="0" type="line"/>
      <point x="109" y="626" type="line"/>
    </contour>
    <contour>
      <point x="-608" y="650" type="line"/>
      <point x="-567" y="579"/>
      <point x="-500" y="551"/>
      <point x="-414" y="551" type="curve" smooth="yes"/>
      <point x="-316" y="551"/>
      <point x="-226" y="588"/>
      <point x="-209" y="654" type="curve"/>
      <point x="-260" y="675" type="line"/>
      <point x="-288" y="646"/>
      <point x="-347" y="619"/>
      <point x="-413" y="619" type="curve" smooth="yes"/>
      <point x="-471" y="619"/>
      <point x="-525" y="640"/>
      <point x="-551" y="681" type="curve"/>
    </contour>
    <contour>
      <point x="130" y="651" type="curve"/>
      <point x="69" y="681" type="line"/>
      <point x="40" y="641"/>
      <point x="-12" y="619"/>
      <point x="-72" y="619" type="curve" smooth="yes"/>
      <point x="-126" y="619"/>
      <point x="-167" y="637"/>
      <point x="-200" y="675" type="curve"/>
      <point x="-260" y="675" type="line"/>
      <point x="-243" y="599"/>
      <point x="-182" y="551"/>
      <point x="-79" y="551" type="curve" smooth="yes"/>
      <point x="2" y="551"/>
      <point x="89" y="580"/>
    </contour>
  </outline>
</glyph>
<glyph name="Virama" format="2">
  <unicode hex="11442"/>
  <outline>
    <contour>
      <point x="-305" y="-40" type="line"/>
      <point x="-369" y="-72" type="line"/>
      <point x="-319" y="-136"/>
      <point x="-234" y="-227"/>
      <point x="-137" y="-311" type="curve"/>
      <point x="-83" y="-257" type="line"/>
      <point x="-167" y="-190"/>
      <point x="-245" y="-111"/>
      <point x="-300" y="-40" type="curve"/>
    </contour>
  </outline>
</glyph>
<glyph name="Candrabindu" format="2">
  <unicode hex="11443"/>
  <outline>
    <contour>
      <point x="-250" y="867" type="curve"/>
      <point x="-280" y="837" type="line"/>
      <point x="-265" y="817"/>
      <point x="-238" y="802"/>
      <point x="-210" y="802" type="curve" smooth="yes"/>
      <point x="-147" y="802"/>
      <point x="-125" y="843"/>
      <point x="-125" y="878" type="curve" smooth="yes"/>
      <point x="-125" y="912"/>
      <point x="-146" y="932"/>
      <point x="-182" y="939" type="curve"/>
      <point x="-182" y="969" type="line"/>
      <point x="-239" y="969" type="line"/>
      <point x="-239" y="907" type="line"/>
      <point x="-195" y="907"/>
      <point x="-177" y="897"/>
      <point x="-177" y="879" type="curve" smooth="yes"/>
      <point x="-177" y="863"/>
      <point x="-191" y="853"/>
      <point x="-213" y="853" type="curve" smooth="yes"/>
      <point x="-226" y="853"/>
      <point x="-239" y="858"/>
    </contour>
    <contour>
      <point x="-343" y="809" type="curve"/>
      <point x="-389" y="764" type="line"/>
      <point x="-344" y="706"/>
      <point x="-286" y="680"/>
      <point x="-208" y="680" type="curve" smooth="yes"/>
      <point x="-128" y="680"/>
      <point x="-71" y="705"/>
      <point x="-27" y="764" type="curve"/>
      <point x="-73" y="809" type="line"/>
      <point x="-100" y="773"/>
      <point x="-142" y="742"/>
      <point x="-208" y="742" type="curve" smooth="yes"/>
      <point x="-273" y="742"/>
      <point x="-315" y="774"/>
    </contour>
  </outline>
</glyph>
<glyph name="Anusvara" format="2">
  <unicode hex="11444"/>
  <outline>
    <contour>
      <point x="-92" y="680" type="curve" smooth="yes"/>
      <point x="-39" y="680"/>
      <point x="0" y="719"/>
      <point x="0" y="766" type="curve" smooth="yes"/>
      <point x="0" y="815"/>
      <point x="-39" y="852"/>
      <point x="-92" y="852" type="curve" smooth="yes"/>
      <point x="-147" y="852"/>
      <point x="-184" y="813"/>
      <point x="-184" y="766" type="curve" smooth="yes"/>
      <point x="-184" y="716"/>
      <point x="-142" y="680"/>
    </contour>
    <contour>
      <point x="-93" y="729" type="curve" smooth="yes"/>
      <point x="-115" y="729"/>
      <point x="-132" y="745"/>
      <point x="-132" y="766" type="curve" smooth="yes"/>
      <point x="-132" y="787"/>
      <point x="-117" y="804"/>
      <point x="-93" y="804" type="curve" smooth="yes"/>
      <point x="-69" y="804"/>
      <point x="-52" y="788"/>
      <point x="-52" y="766" type="curve" smooth="yes"/>
      <point x="-52" y="745"/>
      <point x="-69" y="729"/>
    </contour>
  </outline>
</glyph>
<glyph name="Visarga" format="2">
  <advance width="484"/>
  <unicode hex="11445"/>
  <outline>
    <contour>
      <point x="293" y="322" type="line"/>
      <point x="317" y="349" type="line" smooth="yes"/>
      <point x="366" y="403"/>
      <point x="404" y="459"/>
      <point x="404" y="523" type="curve" smooth="yes"/>
      <point x="404" y="592"/>
      <point x="345" y="648"/>
      <point x="249" y="648" type="curve" smooth="yes"/>
      <point x="142" y="648"/>
      <point x="91" y="583"/>
      <point x="91" y="507" type="curve" smooth="yes"/>
      <point x="91" y="426"/>
      <point x="134" y="385"/>
      <point x="181" y="332" type="curve" smooth="yes"/>
      <point x="193" y="319" type="line"/>
      <point x="170" y="294" type="line" smooth="yes"/>
      <point x="107" y="226"/>
      <point x="80" y="176"/>
      <point x="80" y="121" type="curve" smooth="yes"/>
      <point x="80" y="41"/>
      <point x="144" y="-12"/>
      <point x="237" y="-12" type="curve" smooth="yes"/>
      <point x="330" y="-12"/>
      <point x="395" y="43"/>
      <point x="395" y="137" type="curve" smooth="yes"/>
      <point x="395" y="209"/>
      <point x="360" y="253"/>
      <point x="319" y="295" type="curve" smooth="yes"/>
    </contour>
    <contour>
      <point x="228" y="390" type="line" smooth="yes"/>
      <point x="194" y="426"/>
      <point x="171" y="458"/>
      <point x="171" y="500" type="curve" smooth="yes"/>
      <point x="171" y="554"/>
      <point x="209" y="576"/>
      <point x="252" y="576" type="curve" smooth="yes"/>
      <point x="295" y="576"/>
      <point x="324" y="551"/>
      <point x="324" y="516" type="curve" smooth="yes"/>
      <point x="324" y="484"/>
      <point x="311" y="448"/>
      <point x="255" y="388" type="curve" smooth="yes"/>
      <point x="243" y="375" type="line"/>
    </contour>
    <contour>
      <point x="234" y="59" type="curve" smooth="yes"/>
      <point x="181" y="59"/>
      <point x="160" y="92"/>
      <point x="160" y="123" type="curve" smooth="yes"/>
      <point x="160" y="156"/>
      <point x="182" y="196"/>
      <point x="227" y="247" type="curve" smooth="yes"/>
      <point x="242" y="264" type="line"/>
      <point x="255" y="250" type="line" smooth="yes"/>
      <point x="285" y="216"/>
      <point x="315" y="181"/>
      <point x="315" y="137" type="curve" smooth="yes"/>
      <point x="315" y="87"/>
      <point x="285" y="59"/>
    </contour>
  </outline>
</glyph>
<glyph name="Nukta" format="2">
  <unicode hex="11446"/>
  <outline>
    <contour>
      <point x="-372" y="-134" type="curve" smooth="yes"/>
      <point x="-372" y="-167"/>
      <point x="-347" y="-192"/>
      <point x="-317" y="-192" type="curve" smooth="yes"/>
      <point x="-286" y="-192"/>
      <point x="-262" y="-167"/>
      <point x="-262" y="-134" type="curve" smooth="yes"/>
      <point x="-262" y="-102"/>
      <point x="-286" y="-76"/>
      <point x="-317" y="-76" type="curve" smooth="yes"/>
      <point x="-347" y="-76"/>
      <point x="-372" y="-102"/>
    </contour>
  </outline>
</glyph>
<glyph name="Avagraha" format="2">
  <advance width="439"/>
  <unicode hex="11447"/>
  <outline>
    <contour>
      <point x="253" y="640" type="curve"/>
      <point x="189" y="598" type="line"/>
      <point x="207" y="578"/>
      <point x="217" y="559"/>
      <point x="217" y="534" type="curve" smooth="yes"/>
      <point x="217" y="508"/>
      <point x="202" y="496"/>
      <point x="171" y="470" type="curve" smooth="yes"/>
      <point x="139" y="444" type="line" smooth="yes"/>
      <point x="103" y="414"/>
      <point x="90" y="386"/>
      <point x="90" y="360" type="curve" smooth="yes"/>
      <point x="90" y="243"/>
      <point x="276" y="257"/>
      <point x="276" y="170" type="curve" smooth="yes"/>
      <point x="276" y="132"/>
      <point x="249" y="100"/>
      <point x="189" y="87" type="curve"/>
      <point x="144" y="127"/>
      <point x="111" y="131"/>
      <point x="84" y="131" type="curve" smooth="yes"/>
      <point x="47" y="131"/>
      <point x="20" y="111"/>
      <point x="20" y="71" type="curve" smooth="yes"/>
      <point x="20" y="31"/>
      <point x="60" y="0"/>
      <point x="105" y="0" type="curve" smooth="yes"/>
      <point x="127" y="0"/>
      <point x="147" y="3"/>
      <point x="167" y="9" type="curve"/>
      <point x="204" y="-33"/>
      <point x="241" y="-84"/>
      <point x="286" y="-148" type="curve"/>
      <point x="351" y="-106" type="line"/>
      <point x="321" y="-65"/>
      <point x="287" y="-19"/>
      <point x="249" y="24" type="curve"/>
      <point x="324" y="54"/>
      <point x="359" y="109"/>
      <point x="359" y="176" type="curve" smooth="yes"/>
      <point x="359" y="298"/>
      <point x="173" y="309"/>
      <point x="173" y="360" type="curve" smooth="yes"/>
      <point x="173" y="370"/>
      <point x="178" y="379"/>
      <point x="198" y="395" type="curve" smooth="yes"/>
      <point x="234" y="424" type="line" smooth="yes"/>
      <point x="282" y="463"/>
      <point x="300" y="487"/>
      <point x="300" y="534" type="curve" smooth="yes"/>
      <point x="300" y="576"/>
      <point x="282" y="601"/>
    </contour>
  </outline>
</glyph>
<glyph name="Finalanusvara" format="2">
  <advance width="299"/>
  <unicode hex="11448"/>
  <outline>
    <contour>
      <point x="50" y="362" type="curve" smooth="yes"/>
      <point x="50" y="329"/>
      <point x="75" y="304"/>
      <point x="105" y="304" type="curve" smooth="yes"/>
      <point x="136" y="304"/>
      <point x="160" y="329"/>
      <point x="160" y="362" type="curve" smooth="yes"/>
      <point x="160" y="394"/>
      <point x="136" y="420"/>
      <point x="105" y="420" type="curve" smooth="yes"/>
      <point x="75" y="420"/>
      <point x="50" y="394"/>
    </contour>
    <contour>
      <point x="134" y="147" type="curve"/>
      <point x="66" y="125" type="line"/>
      <point x="84" y="40"/>
      <point x="155" y="-61"/>
      <point x="265" y="-137" type="curve"/>
      <point x="319" y="-86" type="line"/>
      <point x="246" y="-40"/>
      <point x="169" y="55"/>
    </contour>
  </outline>
</glyph>
<glyph name="Om" format="2">
  <advance width="746"/>
  <unicode hex="11449"/>
  <outline>
    <contour>
      <point x="351" y="361" type="curve"/>
      <point x="339" y="291" type="line"/>
      <point x="450" y="291"/>
      <point x="488" y="234"/>
      <point x="488" y="178" type="curve" smooth="yes"/>
      <point x="488" y="91"/>
      <point x="436" y="58"/>
      <point x="382" y="58" type="curve" smooth="yes"/>
      <point x="296" y="58"/>
      <point x="209" y="115"/>
      <point x="83" y="312" type="curve"/>
      <point x="20" y="280" type="line"/>
      <point x="140" y="60"/>
      <point x="266" y="-12"/>
      <point x="382" y="-12" type="curve" smooth="yes"/>
      <point x="477" y="-12"/>
      <point x="569" y="54"/>
      <point x="569" y="178" type="curve" smooth="yes"/>
      <point x="569" y="268"/>
      <point x="501" y="361"/>
    </contour>
    <contour>
      <point x="660" y="478" type="curve"/>
      <point x="726" y="517" type="line"/>
      <point x="694" y="586"/>
      <point x="641" y="634"/>
      <point x="561" y="634" type="curve" smooth="yes"/>
      <point x="450" y="634"/>
      <point x="356" y="484"/>
      <point x="277" y="347" type="curve"/>
      <point x="339" y="291" type="line"/>
      <point x="397" y="400"/>
      <point x="497" y="560"/>
      <point x="561" y="560" type="curve" smooth="yes"/>
      <point x="607" y="560"/>
      <point x="643" y="521"/>
    </contour>
    <contour>
      <point x="395" y="489" type="curve"/>
      <point x="456" y="551" type="line"/>
      <point x="425" y="603"/>
      <point x="367" y="634"/>
      <point x="294" y="634" type="curve" smooth="yes"/>
      <point x="229" y="634"/>
      <point x="158" y="599"/>
      <point x="102" y="521" type="curve"/>
      <point x="155" y="476" type="line"/>
      <point x="195" y="531"/>
      <point x="241" y="560"/>
      <point x="289" y="560" type="curve" smooth="yes"/>
      <point x="345" y="560"/>
      <point x="382" y="534"/>
    </contour>
    <contour>
      <point x="219" y="860" type="curve"/>
      <point x="155" y="827" type="line"/>
      <point x="205" y="722"/>
      <point x="287" y="680"/>
      <point x="397" y="680" type="curve" smooth="yes"/>
      <point x="508" y="680"/>
      <point x="588" y="729"/>
      <point x="636" y="831" type="curve"/>
      <point x="572" y="860" type="line"/>
      <point x="549" y="805"/>
      <point x="496" y="746"/>
      <point x="397" y="746" type="curve" smooth="yes"/>
      <point x="296" y="746"/>
      <point x="243" y="805"/>
    </contour>
    <contour>
      <point x="347" y="877" type="curve"/>
      <point x="306" y="850" type="line"/>
      <point x="318" y="825"/>
      <point x="353" y="802"/>
      <point x="392" y="802" type="curve" smooth="yes"/>
      <point x="465" y="802"/>
      <point x="494" y="844"/>
      <point x="494" y="887" type="curve" smooth="yes"/>
      <point x="494" y="921"/>
      <point x="462" y="956"/>
      <point x="420" y="961" type="curve"/>
      <point x="420" y="1031" type="line"/>
      <point x="366" y="1031" type="line"/>
      <point x="366" y="932" type="line"/>
      <point x="423" y="925"/>
      <point x="434" y="907"/>
      <point x="434" y="890" type="curve" smooth="yes"/>
      <point x="434" y="874"/>
      <point x="426" y="858"/>
      <point x="397" y="858" type="curve" smooth="yes"/>
      <point x="375" y="858"/>
      <point x="360" y="864"/>
    </contour>
  </outline>
</glyph>
<glyph name="Siddhi" format="2">
  <advance width="436"/>
  <unicode hex="1144A"/>
  <outline>
    <contour>
      <point x="406" y="0" type="line"/>
      <point x="217" y="213" type="line" smooth="yes"/>
      <point x="203" y="228"/>
      <point x="196" y="238"/>
      <point x="196" y="250" type="curve" smooth="yes"/>
      <point x="196" y="261"/>
      <point x="202" y="275"/>
      <point x="220" y="295" type="curve" smooth="yes"/>
      <point x="294" y="380" type="line" smooth="yes"/>
      <point x="338" y="431"/>
      <point x="349" y="460"/>
      <point x="349" y="494" type="curve" smooth="yes"/>
      <point x="349" y="559"/>
      <point x="292" y="632"/>
      <point x="204" y="632" type="curve" smooth="yes"/>
      <point x="137" y="632"/>
      <point x="70" y="575"/>
      <point x="70" y="508" type="curve" smooth="yes"/>
      <point x="70" y="440"/>
      <point x="155" y="367"/>
      <point x="225" y="319" type="curve"/>
      <point x="259" y="390" type="line"/>
      <point x="206" y="419"/>
      <point x="145" y="470"/>
      <point x="145" y="508" type="curve" smooth="yes"/>
      <point x="145" y="541"/>
      <point x="174" y="566"/>
      <point x="206" y="566" type="curve" smooth="yes"/>
      <point x="240" y="566"/>
      <point x="274" y="528"/>
      <point x="274" y="494" type="curve" smooth="yes"/>
      <point x="274" y="475"/>
      <point x="264" y="452"/>
      <point x="240" y="424" type="curve" smooth="yes"/>
      <point x="146" y="315" type="line" smooth="yes"/>
      <point x="120" y="285"/>
      <point x="111" y="267"/>
      <point x="111" y="251" type="curve" smooth="yes"/>
      <point x="111" y="232"/>
      <point x="124" y="210"/>
      <point x="147" y="185" type="curve" smooth="yes"/>
      <point x="315" y="0" type="line"/>
    </contour>
  </outline>
</glyph>
<glyph name="Danda" format="2">
  <advance width="329"/>
  <unicode hex="1144B"/>
  <outline>
    <contour>
      <point x="124" y="722" type="line"/>
      <point x="124" y="-100" type="line"/>
      <point x="205" y="-100" type="line"/>
      <point x="205" y="722" type="line"/>
    </contour>
  </outline>
</glyph>
<glyph name="Dbldanda" format="2">
  <advance width="489"/>
  <unicode hex="1144C"/>
  <outline>
    <contour>
      <point x="124" y="722" type="line"/>
      <point x="124" y="-100" type="line"/>
      <point x="205" y="-100" type="line"/>
      <point x="205" y="722" type="line"/>
    </contour>
    <contour>
      <point x="284" y="722" type="line"/>
      <point x="284" y="-100" type="line"/>
      <point x="365" y="-100" type="line"/>
      <point x="365" y="722" type="line"/>
    </contour>
  </outline>
</glyph>
<glyph name="Comma" format="2">
  <advance width="283"/>
  <unicode hex="1144D"/>
  <outline>
    <contour>
      <point x="118" y="147" type="curve"/>
      <point x="50" y="125" type="line"/>
      <point x="68" y="40"/>
      <point x="139" y="-61"/>
      <point x="249" y="-137" type="curve"/>
      <point x="303" y="-86" type="line"/>
      <point x="230" y="-40"/>
      <point x="153" y="55"/>
    </contour>
  </outline>
</glyph>
<glyph name="Gapfiller" format="2">
  <advance width="393"/>
  <unicode hex="1144E"/>
  <outline>
    <contour>
      <point x="233" y="-21" type="line"/>
      <point x="283" y="35" type="line"/>
      <point x="189" y="113" type="line"/>
      <point x="281" y="198" type="line"/>
      <point x="233" y="247" type="line"/>
      <point x="140" y="163" type="line" smooth="yes"/>
      <point x="119" y="144"/>
      <point x="110" y="127"/>
      <point x="110" y="109" type="curve" smooth="yes"/>
      <point x="110" y="91"/>
      <point x="122" y="72"/>
      <point x="143" y="55" type="curve" smooth="yes"/>
    </contour>
    <contour>
      <point x="233" y="299" type="line"/>
      <point x="283" y="355" type="line"/>
      <point x="189" y="433" type="line"/>
      <point x="281" y="518" type="line"/>
      <point x="233" y="567" type="line"/>
      <point x="140" y="483" type="line" smooth="yes"/>
      <point x="119" y="464"/>
      <point x="110" y="447"/>
      <point x="110" y="429" type="curve" smooth="yes"/>
      <point x="110" y="411"/>
      <point x="122" y="392"/>
      <point x="143" y="375" type="curve" smooth="yes"/>
    </contour>
  </outline>
</glyph>
<glyph name="Abbreviation" format="2">
  <advance width="356"/>
  <unicode hex="1144F"/>
  <outline>
    <contour>
      <point x="178" y="175" type="curve" smooth="yes"/>
      <point x="255" y="175"/>
      <point x="306" y="236"/>
      <point x="306" y="312" type="curve" smooth="yes"/>
      <point x="306" y="390"/>
      <point x="255" y="449"/>
      <point x="178" y="449" type="curve" smooth="yes"/>
      <point x="99" y="449"/>
      <point x="50" y="386"/>
      <point x="50" y="312" type="curve" smooth="yes"/>
      <point x="50" y="232"/>
      <point x="105" y="175"/>
    </contour>
    <contour>
      <point x="178" y="240" type="curve" smooth="yes"/>
      <point x="143" y="240"/>
      <point x="120" y="270"/>
      <point x="120" y="312" type="curve" smooth="yes"/>
      <point x="120" y="351"/>
      <point x="140" y="384"/>
      <point x="178" y="384" type="curve" smooth="yes"/>
      <point x="214" y="384"/>
      <point x="236" y="353"/>
      <point x="236" y="312" type="curve" smooth="yes"/>
      <point x="236" y="270"/>
      <point x="214" y="240"/>
    </contour>
  </outline>
</glyph>
<glyph name="Zero_Newa" format="2">
  <advance width="546"/>
  <unicode hex="11450"/>
  <outline>
    <contour>
      <point x="273" y="52" type="curve" smooth="yes"/>
      <point x="406" y="52"/>
      <point x="496" y="154"/>
      <point x="496" y="305" type="curve" smooth="yes"/>
      <point x="496" y="458"/>
      <point x="415" y="562"/>
      <point x="272" y="562" type="curve" smooth="yes"/>
      <point x="140" y="562"/>
      <point x="50" y="459"/>
      <point x="50" y="308" type="curve" smooth="yes"/>
      <point x="50" y="146"/>
      <point x="135" y="52"/>
    </contour>
    <contour>
      <point x="270" y="124" type="curve" smooth="yes"/>
      <point x="186" y="124"/>
      <point x="130" y="195"/>
      <point x="130" y="304" type="curve" smooth="yes"/>
      <point x="130" y="416"/>
      <point x="191" y="490"/>
      <point x="276" y="490" type="curve" smooth="yes"/>
      <point x="360" y="490"/>
      <point x="416" y="420"/>
      <point x="416" y="309" type="curve" smooth="yes"/>
      <point x="416" y="199"/>
      <point x="357" y="124"/>
    </contour>
  </outline>
</glyph>
<glyph name="One_Newa" format="2">
  <advance width="361"/>
  <unicode hex="11451"/>
  <outline>
    <contour>
      <point x="87" y="258" type="line"/>
      <point x="113" y="232" type="line"/>
      <point x="212" y="286"/>
      <point x="331" y="348"/>
      <point x="331" y="488" type="curve" smooth="yes"/>
      <point x="331" y="546"/>
      <point x="299" y="632"/>
      <point x="196" y="632" type="curve" smooth="yes"/>
      <point x="104" y="632"/>
      <point x="63" y="568"/>
      <point x="63" y="507" type="curve" smooth="yes"/>
      <point x="63" y="441"/>
      <point x="109" y="379"/>
      <point x="212" y="379" type="curve" smooth="yes"/>
      <point x="230" y="379"/>
      <point x="248" y="388"/>
      <point x="270" y="409" type="curve"/>
      <point x="270" y="484" type="line"/>
      <point x="255" y="452"/>
      <point x="234" y="446"/>
      <point x="205" y="446" type="curve" smooth="yes"/>
      <point x="173" y="446"/>
      <point x="140" y="469"/>
      <point x="140" y="511" type="curve" smooth="yes"/>
      <point x="140" y="548"/>
      <point x="167" y="566"/>
      <point x="192" y="566" type="curve" smooth="yes"/>
      <point x="236" y="566"/>
      <point x="249" y="525"/>
      <point x="249" y="491" type="curve" smooth="yes"/>
      <point x="249" y="371"/>
      <point x="132" y="306"/>
      <point x="35" y="285" type="curve"/>
      <point x="30" y="231" type="line"/>
      <point x="192" y="0" type="line"/>
      <point x="288" y="0" type="line"/>
      <point x="116" y="242" type="line"/>
    </contour>
  </outline>
</glyph>
<glyph name="Two_Newa" format="2">
  <advance width="431"/>
  <unicode hex="11452"/>
  <outline>
    <contour>
      <point x="381" y="398" type="curve" smooth="yes"/>
      <point x="381" y="510"/>
      <point x="334" y="633"/>
      <point x="190" y="633" type="curve" smooth="yes"/>
      <point x="95" y="633"/>
      <point x="37" y="572"/>
      <point x="20" y="500" type="curve"/>
      <point x="90" y="479" type="line"/>
      <point x="97" y="509"/>
      <point x="128" y="561"/>
      <point x="195" y="561" type="curve" smooth="yes"/>
      <point x="280" y="561"/>
      <point x="301" y="470"/>
      <point x="301" y="398" type="curve" smooth="yes"/>
      <point x="301" y="310"/>
      <point x="280" y="237"/>
      <point x="225" y="213" type="curve"/>
      <point x="186" y="254"/>
      <point x="146" y="282"/>
      <point x="109" y="282" type="curve" smooth="yes"/>
      <point x="67" y="282"/>
      <point x="39" y="257"/>
      <point x="39" y="220" type="curve" smooth="yes"/>
      <point x="39" y="150"/>
      <point x="114" y="130"/>
      <point x="176" y="129" type="curve"/>
      <point x="218" y="88"/>
      <point x="245" y="39"/>
      <point x="287" y="-39" type="curve"/>
      <point x="365" y="2" type="line"/>
      <point x="341" y="50"/>
      <point x="309" y="106"/>
      <point x="272" y="155" type="curve"/>
      <point x="336" y="197"/>
      <point x="381" y="284"/>
    </contour>
  </outline>
</glyph>
<glyph name="Three_Newa" format="2">
  <advance width="441"/>
  <unicode hex="11453"/>
  <outline>
    <contour>
      <point x="391" y="181" type="curve" smooth="yes"/>
      <point x="391" y="256"/>
      <point x="342" y="317"/>
      <point x="255" y="335" type="curve"/>
      <point x="328" y="375"/>
      <point x="362" y="427"/>
      <point x="362" y="498" type="curve" smooth="yes"/>
      <point x="362" y="572"/>
      <point x="315" y="633"/>
      <point x="205" y="633" type="curve" smooth="yes"/>
      <point x="130" y="633"/>
      <point x="63" y="597"/>
      <point x="17" y="528" type="curve"/>
      <point x="77" y="479" type="line"/>
      <point x="118" y="534"/>
      <point x="163" y="561"/>
      <point x="206" y="561" type="curve" smooth="yes"/>
      <point x="260" y="561"/>
      <point x="282" y="531"/>
      <point x="282" y="495" type="curve" smooth="yes"/>
      <point x="282" y="416"/>
      <point x="205" y="368"/>
      <point x="101" y="333" type="curve"/>
      <point x="121" y="270" type="line"/>
      <point x="145" y="277" type="line"/>
      <point x="153" y="279"/>
      <point x="177" y="284"/>
      <point x="190" y="284" type="curve" smooth="yes"/>
      <point x="264" y="284"/>
      <point x="311" y="242"/>
      <point x="311" y="183" type="curve" smooth="yes"/>
      <point x="311" y="126"/>
      <point x="272" y="74"/>
      <point x="205" y="63" type="curve"/>
      <point x="171" y="101"/>
      <point x="125" y="142"/>
      <point x="79" y="142" type="curve" smooth="yes"/>
      <point x="50" y="142"/>
      <point x="10" y="129"/>
      <point x="10" y="80" type="curve" smooth="yes"/>
      <point x="10" y="10"/>
      <point x="85" y="-10"/>
      <point x="153" y="-11" type="curve"/>
      <point x="189" y="-52"/>
      <point x="216" y="-101"/>
      <point x="258" y="-179" type="curve"/>
      <point x="336" y="-138" type="line"/>
      <point x="315" y="-94"/>
      <point x="286" y="-45"/>
      <point x="255" y="0" type="curve"/>
      <point x="328" y="27"/>
      <point x="391" y="76"/>
    </contour>
  </outline>
</glyph>
<glyph name="Four_Newa" format="2">
  <advance width="509"/>
  <unicode hex="11454"/>
  <outline>
    <contour>
      <point x="452" y="622" type="line"/>
      <point x="183" y="308" type="line" smooth="yes"/>
      <point x="121" y="236"/>
      <point x="66" y="165"/>
      <point x="66" y="103" type="curve" smooth="yes"/>
      <point x="66" y="18"/>
      <point x="137" y="-12"/>
      <point x="229" y="-12" type="curve" smooth="yes"/>
      <point x="329" y="-12"/>
      <point x="388" y="45"/>
      <point x="388" y="123" type="curve" smooth="yes"/>
      <point x="388" y="204"/>
      <point x="316" y="270"/>
      <point x="236" y="332" type="curve" smooth="yes"/>
      <point x="145" y="402"/>
      <point x="100" y="437"/>
      <point x="100" y="461" type="curve" smooth="yes"/>
      <point x="100" y="490"/>
      <point x="169" y="576"/>
      <point x="206" y="622" type="curve"/>
      <point x="126" y="622" type="line"/>
      <point x="54" y="534"/>
      <point x="20" y="484"/>
      <point x="20" y="452" type="curve" smooth="yes"/>
      <point x="20" y="419"/>
      <point x="96" y="351"/>
      <point x="195" y="272" type="curve" smooth="yes"/>
      <point x="283" y="202"/>
      <point x="308" y="168"/>
      <point x="308" y="127" type="curve" smooth="yes"/>
      <point x="308" y="69"/>
      <point x="263" y="60"/>
      <point x="224" y="60" type="curve" smooth="yes"/>
      <point x="181" y="60"/>
      <point x="146" y="75"/>
      <point x="146" y="107" type="curve" smooth="yes"/>
      <point x="146" y="153"/>
      <point x="196" y="215"/>
      <point x="262" y="293" type="curve" smooth="yes"/>
      <point x="539" y="622" type="line"/>
    </contour>
  </outline>
</glyph>
<glyph name="Five_Newa" format="2">
  <advance width="594"/>
  <unicode hex="11455"/>
  <outline>
    <contour>
      <point x="463" y="398" type="line"/>
      <point x="463" y="0" type="line"/>
      <point x="544" y="0" type="line"/>
      <point x="544" y="419" type="line"/>
    </contour>
    <contour>
      <point x="60" y="304" type="curve"/>
      <point x="-10" y="276" type="line"/>
      <point x="36" y="124"/>
      <point x="94" y="34"/>
      <point x="218" y="34" type="curve" smooth="yes"/>
      <point x="328" y="34"/>
      <point x="385" y="127"/>
      <point x="385" y="230" type="curve" smooth="yes"/>
      <point x="385" y="325"/>
      <point x="320" y="410"/>
      <point x="213" y="436" type="curve"/>
      <point x="117" y="389" type="line"/>
      <point x="270" y="375"/>
      <point x="305" y="300"/>
      <point x="305" y="234" type="curve" smooth="yes"/>
      <point x="305" y="164"/>
      <point x="282" y="106"/>
      <point x="215" y="106" type="curve" smooth="yes"/>
      <point x="134" y="106"/>
      <point x="102" y="175"/>
    </contour>
    <contour>
      <point x="370" y="622" type="curve"/>
      <point x="302" y="622" type="line"/>
      <point x="290" y="565"/>
      <point x="189" y="477"/>
      <point x="104" y="442" type="curve"/>
      <point x="117" y="389" type="line"/>
      <point x="216" y="416"/>
      <point x="359" y="512"/>
    </contour>
    <contour>
      <point x="320" y="565" type="line"/>
      <point x="463" y="397" type="line"/>
      <point x="544" y="419" type="line"/>
      <point x="370" y="622" type="line"/>
    </contour>
  </outline>
</glyph>
<glyph name="Six_Newa" format="2">
  <advance width="432"/>
  <unicode hex="11456"/>
  <outline>
    <contour>
      <point x="358" y="524" type="curve"/>
      <point x="394" y="586" type="line"/>
      <point x="345" y="617"/>
      <point x="283" y="632"/>
      <point x="224" y="632" type="curve" smooth="yes"/>
      <point x="106" y="632"/>
      <point x="46" y="557"/>
      <point x="46" y="478" type="curve" smooth="yes"/>
      <point x="46" y="391"/>
      <point x="118" y="312"/>
      <point x="249" y="312" type="curve" smooth="yes"/>
      <point x="296" y="312" type="line"/>
      <point x="286" y="382" type="line"/>
      <point x="254" y="382" type="line" smooth="yes"/>
      <point x="163" y="382"/>
      <point x="126" y="436"/>
      <point x="126" y="477" type="curve" smooth="yes"/>
      <point x="126" y="525"/>
      <point x="163" y="560"/>
      <point x="230" y="560" type="curve" smooth="yes"/>
      <point x="273" y="560"/>
      <point x="321" y="546"/>
    </contour>
    <contour>
      <point x="296" y="312" type="curve"/>
      <point x="215" y="368" type="line"/>
      <point x="100" y="338"/>
      <point x="40" y="273"/>
      <point x="40" y="185" type="curve" smooth="yes"/>
      <point x="40" y="63"/>
      <point x="133" y="10"/>
      <point x="237" y="10" type="curve" smooth="yes"/>
      <point x="299" y="10"/>
      <point x="390" y="24"/>
      <point x="404" y="59" type="curve"/>
      <point x="358" y="132" type="line"/>
      <point x="332" y="102"/>
      <point x="284" y="85"/>
      <point x="240" y="85" type="curve" smooth="yes"/>
      <point x="166" y="85"/>
      <point x="120" y="127"/>
      <point x="120" y="187" type="curve" smooth="yes"/>
      <point x="120" y="276"/>
      <point x="221" y="312"/>
    </contour>
    <contour>
      <point x="411" y="107" type="curve" smooth="yes"/>
      <point x="411" y="152"/>
      <point x="383" y="187"/>
      <point x="342" y="187" type="curve" smooth="yes"/>
      <point x="305" y="187"/>
      <point x="285" y="153"/>
      <point x="285" y="107" type="curve" smooth="yes"/>
      <point x="285" y="61"/>
      <point x="314" y="25"/>
      <point x="348" y="25" type="curve" smooth="yes"/>
      <point x="383" y="25"/>
      <point x="411" y="61"/>
    </contour>
    <contour>
      <point x="20" y="3" type="curve"/>
      <point x="31" y="-68" type="line"/>
      <point x="122" y="-75"/>
      <point x="170" y="-164"/>
      <point x="290" y="-164" type="curve" smooth="yes"/>
      <point x="362" y="-164"/>
      <point x="432" y="-123"/>
      <point x="432" y="-31" type="curve" smooth="yes"/>
      <point x="432" y="1"/>
      <point x="409" y="74"/>
      <point x="372" y="108" type="curve"/>
      <point x="300" y="54" type="line"/>
      <point x="330" y="20"/>
      <point x="356" y="11"/>
      <point x="356" y="-36" type="curve" smooth="yes"/>
      <point x="356" y="-74"/>
      <point x="322" y="-90"/>
      <point x="286" y="-90" type="curve" smooth="yes"/>
      <point x="186" y="-90"/>
      <point x="142" y="-5"/>
    </contour>
  </outline>
</glyph>
<glyph name="Seven_Newa" format="2">
  <advance width="464"/>
  <unicode hex="11457"/>
  <outline>
    <contour>
      <point x="414" y="0" type="line"/>
      <point x="414" y="433" type="line" smooth="yes"/>
      <point x="414" y="571"/>
      <point x="339" y="633"/>
      <point x="226" y="633" type="curve" smooth="yes"/>
      <point x="104" y="633"/>
      <point x="40" y="540"/>
      <point x="40" y="427" type="curve" smooth="yes"/>
      <point x="40" y="288" type="line"/>
      <point x="121" y="288" type="line"/>
      <point x="121" y="426" type="line" smooth="yes"/>
      <point x="121" y="498"/>
      <point x="146" y="561"/>
      <point x="224" y="561" type="curve" smooth="yes"/>
      <point x="319" y="561"/>
      <point x="333" y="492"/>
      <point x="333" y="426" type="curve" smooth="yes"/>
      <point x="333" y="0" type="line"/>
    </contour>
  </outline>
</glyph>
<glyph name="Eight_Newa" format="2">
  <advance width="559"/>
  <unicode hex="11458"/>
  <outline>
    <contour>
      <point x="148" y="525" type="curve"/>
      <point x="82" y="454" type="line"/>
      <point x="94" y="460"/>
      <point x="109" y="463"/>
      <point x="124" y="463" type="curve" smooth="yes"/>
      <point x="155" y="463"/>
      <point x="184" y="449"/>
      <point x="184" y="414" type="curve" smooth="yes"/>
      <point x="184" y="345"/>
      <point x="62" y="271"/>
      <point x="62" y="135" type="curve" smooth="yes"/>
      <point x="62" y="37"/>
      <point x="128" y="-12"/>
      <point x="230" y="-12" type="curve" smooth="yes"/>
      <point x="366" y="-12"/>
      <point x="468" y="98"/>
      <point x="549" y="226" type="curve"/>
      <point x="483" y="265" type="line"/>
      <point x="403" y="141"/>
      <point x="313" y="60"/>
      <point x="232" y="60" type="curve" smooth="yes"/>
      <point x="171" y="60"/>
      <point x="142" y="100"/>
      <point x="142" y="143" type="curve" smooth="yes"/>
      <point x="142" y="251"/>
      <point x="264" y="306"/>
      <point x="264" y="419" type="curve" smooth="yes"/>
      <point x="264" y="494"/>
      <point x="198" y="525"/>
    </contour>
    <contour>
      <point x="440" y="659" type="line"/>
      <point x="10" y="508" type="line"/>
      <point x="35" y="438" type="line"/>
      <point x="465" y="592" type="line"/>
    </contour>
  </outline>
</glyph>
<glyph name="Nine_Newa" format="2">
  <advance width="485"/>
  <unicode hex="11459"/>
  <outline>
    <contour>
      <point x="313" y="253" type="curve" smooth="yes"/>
      <point x="400" y="253"/>
      <point x="455" y="314"/>
      <point x="455" y="404" type="curve" smooth="yes"/>
      <point x="455" y="520"/>
      <point x="376" y="593"/>
      <point x="158" y="661" type="curve"/>
      <point x="132" y="596" type="line"/>
      <point x="289" y="550"/>
      <point x="374" y="498"/>
      <point x="374" y="399" type="curve" smooth="yes"/>
      <point x="374" y="354"/>
      <point x="345" y="325"/>
      <point x="314" y="325" type="curve" smooth="yes"/>
      <point x="286" y="325"/>
      <point x="259" y="342"/>
      <point x="259" y="383" type="curve" smooth="yes"/>
      <point x="259" y="402"/>
      <point x="262" y="434"/>
      <point x="267" y="465" type="curve"/>
      <point x="250" y="470"/>
      <point x="230" y="475"/>
      <point x="196" y="475" type="curve" smooth="yes"/>
      <point x="76" y="475"/>
      <point x="30" y="396"/>
      <point x="30" y="316" type="curve" smooth="yes"/>
      <point x="30" y="189"/>
      <point x="146" y="59"/>
      <point x="403" y="-60" type="curve"/>
      <point x="439" y="11" type="line"/>
      <point x="262" y="94"/>
      <point x="112" y="190"/>
      <point x="112" y="316" type="curve" smooth="yes"/>
      <point x="112" y="379"/>
      <point x="151" y="402"/>
      <point x="187" y="402" type="curve"/>
      <point x="184" y="386"/>
      <point x="182" y="369"/>
      <point x="182" y="358" type="curve" smooth="yes"/>
      <point x="182" y="298"/>
      <point x="234" y="253"/>
    </contour>
  </outline>
</glyph>
<glyph name="Placeholder" format="2">
  <advance width="1352"/>
  <unicode hex="1145B"/>
  <outline>
    <contour>
      <point x="1213" y="317" type="curve" smooth="yes"/>
      <point x="1126" y="317"/>
      <point x="1100" y="201"/>
      <point x="1020" y="201" type="curve" smooth="yes"/>
      <point x="950" y="201"/>
      <point x="929" y="381"/>
      <point x="810" y="381" type="curve" smooth="yes"/>
      <point x="672" y="381"/>
      <point x="682" y="174"/>
      <point x="592" y="174" type="curve" smooth="yes"/>
      <point x="503" y="174"/>
      <point x="463" y="470"/>
      <point x="252" y="470" type="curve" smooth="yes"/>
      <point x="137" y="470"/>
      <point x="50" y="364"/>
      <point x="50" y="238" type="curve" smooth="yes"/>
      <point x="50" y="138"/>
      <point x="107" y="11"/>
      <point x="261" y="11" type="curve" smooth="yes"/>
      <point x="345" y="11"/>
      <point x="391" y="55"/>
      <point x="391" y="123" type="curve" smooth="yes"/>
      <point x="391" y="174"/>
      <point x="355" y="214"/>
      <point x="308" y="214" type="curve" smooth="yes"/>
      <point x="261" y="214"/>
      <point x="225" y="175"/>
      <point x="225" y="123" type="curve" smooth="yes"/>
      <point x="225" y="111"/>
      <point x="227" y="100"/>
      <point x="231" y="89" type="curve"/>
      <point x="150" y="104"/>
      <point x="130" y="193"/>
      <point x="130" y="241" type="curve" smooth="yes"/>
      <point x="130" y="329"/>
      <point x="183" y="398"/>
      <point x="258" y="398" type="curve" smooth="yes"/>
      <point x="423" y="398"/>
      <point x="429" y="102"/>
      <point x="588" y="102" type="curve" smooth="yes"/>
      <point x="742" y="102"/>
      <point x="730" y="310"/>
      <point x="811" y="310" type="curve" smooth="yes"/>
      <point x="875" y="310"/>
      <point x="897" y="130"/>
      <point x="1019" y="130" type="curve" smooth="yes"/>
      <point x="1121" y="130"/>
      <point x="1166" y="246"/>
      <point x="1210" y="246" type="curve" smooth="yes"/>
      <point x="1230" y="246"/>
      <point x="1249" y="232"/>
      <point x="1270" y="207" type="curve"/>
      <point x="1324" y="260" type="line"/>
      <point x="1291" y="293"/>
      <point x="1263" y="317"/>
    </contour>
  </outline>
</glyph>
<glyph name="Insertion" format="2">
  <advance width="649"/>
  <unicode hex="1145D"/>
  <outline>
    <contour>
      <point x="325" y="556" type="curve" smooth="yes"/>
      <point x="356" y="556"/>
      <point x="380" y="581"/>
      <point x="380" y="614" type="curve" smooth="yes"/>
      <point x="380" y="646"/>
      <point x="356" y="672"/>
      <point x="325" y="672" type="curve" smooth="yes"/>
      <point x="295" y="672"/>
      <point x="270" y="646"/>
      <point x="270" y="614" type="curve" smooth="yes"/>
      <point x="270" y="581"/>
      <point x="295" y="556"/>
    </contour>
    <contour>
      <point x="279" y="350" type="line"/>
      <point x="370" y="350" type="line"/>
      <point x="569" y="622" type="line"/>
      <point x="480" y="622" type="line"/>
      <point x="325" y="411" type="line"/>
      <point x="169" y="622" type="line"/>
      <point x="80" y="622" type="line"/>
    </contour>
    <contour>
      <point x="370" y="272" type="line"/>
      <point x="279" y="272" type="line"/>
      <point x="80" y="0" type="line"/>
      <point x="169" y="0" type="line"/>
      <point x="325" y="211" type="line"/>
      <point x="480" y="0" type="line"/>
      <point x="569" y="0" type="line"/>
    </contour>
    <contour>
      <point x="325" y="66" type="curve" smooth="yes"/>
      <point x="295" y="66"/>
      <point x="270" y="41"/>
      <point x="270" y="8" type="curve" smooth="yes"/>
      <point x="270" y="-24"/>
      <point x="295" y="-50"/>
      <point x="325" y="-50" type="curve" smooth="yes"/>
      <point x="356" y="-50"/>
      <point x="380" y="-24"/>
      <point x="380" y="8" type="curve" smooth="yes"/>
      <point x="380" y="41"/>
      <point x="356" y="66"/>
    </contour>
  </outline>
</glyph>
<glyph name="sandhiMark" format="2">
  <unicode hex="1145E"/>
  <outline>
    <contour>
      <point x="-106" y="787" type="curve" smooth="yes"/>
      <point x="-106" y="838"/>
      <point x="-154" y="858"/>
      <point x="-176" y="866" type="curve" smooth="yes"/>
      <point x="-183" y="869"/>
      <point x="-186" y="870"/>
      <point x="-186" y="872" type="curve" smooth="yes"/>
      <point x="-186" y="874"/>
      <point x="-184" y="876"/>
      <point x="-179" y="881" type="curve" smooth="yes"/>
      <point x="-168" y="892"/>
      <point x="-132" y="916"/>
      <point x="-70" y="954" type="curve"/>
      <point x="-102" y="1000" type="line"/>
      <point x="-163" y="959"/>
      <point x="-230" y="909"/>
      <point x="-262" y="877" type="curve" smooth="yes"/>
      <point x="-264" y="875"/>
      <point x="-267" y="872"/>
      <point x="-267" y="869" type="curve" smooth="yes"/>
      <point x="-267" y="866"/>
      <point x="-264" y="864"/>
      <point x="-257" y="860" type="curve" smooth="yes"/>
      <point x="-227" y="843"/>
      <point x="-177" y="823"/>
      <point x="-177" y="781" type="curve" smooth="yes"/>
      <point x="-177" y="755"/>
      <point x="-195" y="734"/>
      <point x="-220" y="734" type="curve" smooth="yes"/>
      <point x="-236" y="734"/>
      <point x="-259" y="739"/>
      <point x="-280" y="748" type="curve"/>
      <point x="-259" y="701" type="line"/>
      <point x="-218" y="685"/>
      <point x="-174" y="668"/>
      <point x="-109" y="623" type="curve"/>
      <point x="-84" y="660" type="line"/>
      <point x="-132" y="692"/>
      <point x="-167" y="709"/>
      <point x="-191" y="723" type="curve" smooth="yes"/>
      <point x="-229" y="745"/>
      <point x="-253" y="759"/>
      <point x="-275" y="759" type="curve" smooth="yes"/>
      <point x="-295" y="759"/>
      <point x="-306" y="747"/>
      <point x="-306" y="730" type="curve" smooth="yes"/>
      <point x="-306" y="704"/>
      <point x="-279" y="696"/>
      <point x="-229" y="694" type="curve"/>
      <point x="-221" y="694"/>
      <point x="-212" y="694"/>
      <point x="-203" y="694" type="curve" smooth="yes"/>
      <point x="-153" y="694"/>
      <point x="-106" y="740"/>
    </contour>
  </outline>
</glyph>
<glyph name="vedic_anusvara" format="2">
  <advance width="761"/>
  <unicode hex="1145F"/>
  <outline>
    <contour>
      <point x="639" y="406" type="curve"/>
      <point x="571" y="447" type="line"/>
      <point x="538" y="364"/>
      <point x="479" y="269"/>
      <point x="352" y="269" type="curve" smooth="yes"/>
      <point x="227" y="269"/>
      <point x="168" y="358"/>
      <point x="168" y="453" type="curve" smooth="yes"/>
      <point x="168" y="510"/>
      <point x="189" y="565"/>
      <point x="210" y="605" type="curve"/>
      <point x="129" y="625" type="line"/>
      <point x="103" y="579"/>
      <point x="87" y="525"/>
      <point x="87" y="456" type="curve" smooth="yes"/>
      <point x="87" y="314"/>
      <point x="178" y="198"/>
      <point x="349" y="198" type="curve" smooth="yes"/>
      <point x="503" y="198"/>
      <point x="594" y="301"/>
    </contour>
    <contour>
      <point x="355" y="382" type="curve" smooth="yes"/>
      <point x="317" y="382"/>
      <point x="288" y="411"/>
      <point x="288" y="449" type="curve" smooth="yes"/>
      <point x="288" y="487"/>
      <point x="317" y="516"/>
      <point x="355" y="516" type="curve" smooth="yes"/>
      <point x="393" y="516"/>
      <point x="422" y="487"/>
      <point x="422" y="449" type="curve" smooth="yes"/>
      <point x="422" y="411"/>
      <point x="393" y="382"/>
    </contour>
    <contour>
      <point x="681" y="-19" type="curve"/>
      <point x="681" y="55" type="line"/>
      <point x="574" y="92"/>
      <point x="547" y="156"/>
      <point x="447" y="156" type="curve" smooth="yes"/>
      <point x="410" y="156"/>
      <point x="370" y="147"/>
      <point x="326" y="111" type="curve"/>
      <point x="326" y="221" type="line"/>
      <point x="245" y="221" type="line"/>
      <point x="245" y="12" type="line"/>
      <point x="304" y="12" type="line"/>
      <point x="337" y="54"/>
      <point x="388" y="85"/>
      <point x="445" y="85" type="curve" smooth="yes"/>
      <point x="525" y="85"/>
      <point x="576" y="19"/>
    </contour>
  </outline>
</glyph>
<glyph name="AA_dv.alt" format="2">
  <advance width="208"/>
  <outline>
    <contour>
      <point x="47" y="622" type="line"/>
      <point x="47" y="445" type="line"/>
      <point x="0" y="483"/>
      <point x="-41" y="517"/>
      <point x="-82" y="556" type="curve"/>
      <point x="-135" y="514" type="line"/>
      <point x="-83" y="465"/>
      <point x="-23" y="415"/>
      <point x="47" y="355" type="curve"/>
      <point x="47" y="0" type="line"/>
      <point x="128" y="0" type="line"/>
      <point x="128" y="622" type="line"/>
    </contour>
  </outline>
</glyph>
<glyph name="AA_dv.alt2" format="2">
  <advance width="213"/>
  <outline>
    <contour>
      <point x="52" y="0" type="line"/>
      <point x="133" y="0" type="line"/>
      <point x="133" y="622" type="line"/>
      <point x="52" y="622" type="line"/>
    </contour>
    <contour>
      <point x="-109" y="551" type="curve"/>
      <point x="-118" y="472" type="line"/>
      <point x="-58" y="430"/>
      <point x="0" y="386"/>
      <point x="57" y="337" type="curve"/>
      <point x="97" y="396" type="line"/>
      <point x="33" y="444"/>
      <point x="-37" y="499"/>
    </contour>
  </outline>
</glyph>
<glyph name="AA_dv.alt3ga" format="2">
  <advance width="213"/>
  <outline>
    <contour>
      <point x="47" y="0" type="line"/>
      <point x="128" y="0" type="line"/>
      <point x="128" y="622" type="line"/>
      <point x="47" y="622" type="line"/>
    </contour>
    <contour>
      <point x="-181" y="577" type="curve"/>
      <point x="-216" y="519" type="line"/>
      <point x="-140" y="477"/>
      <point x="-66" y="436"/>
      <point x="49" y="373" type="curve"/>
      <point x="103" y="417" type="line"/>
      <point x="-17" y="483"/>
      <point x="-92" y="525"/>
    </contour>
  </outline>
</glyph>
<glyph name="AA_dv.alt5" format="2">
  <advance width="203"/>
  <outline>
    <contour>
      <point x="42" y="0" type="line"/>
      <point x="123" y="0" type="line"/>
      <point x="123" y="622" type="line"/>
      <point x="42" y="622" type="line"/>
    </contour>
    <contour>
      <point x="-339" y="577" type="curve"/>
      <point x="-339" y="518" type="line"/>
      <point x="-229" y="486"/>
      <point x="-79" y="443"/>
      <point x="43" y="407" type="curve"/>
      <point x="78" y="456" type="line"/>
      <point x="-58" y="497"/>
      <point x="-219" y="544"/>
    </contour>
  </outline>
</glyph>
<glyph name="AA_dv.alt6" format="2">
  <advance width="213"/>
  <outline>
    <contour>
      <point x="52" y="0" type="line"/>
      <point x="133" y="0" type="line"/>
      <point x="133" y="622" type="line"/>
      <point x="52" y="622" type="line"/>
    </contour>
    <contour>
      <point x="-491" y="628" type="curve"/>
      <point x="-491" y="581" type="line"/>
      <point x="-334" y="540"/>
      <point x="-90" y="454"/>
      <point x="53" y="397" type="curve"/>
      <point x="108" y="447" type="line"/>
      <point x="-39" y="510"/>
      <point x="-313" y="593"/>
    </contour>
  </outline>
</glyph>
<glyph name="AA_dv.nya" format="2">
  <advance width="213"/>
  <outline>
    <contour>
      <point x="52" y="0" type="line"/>
      <point x="133" y="0" type="line"/>
      <point x="133" y="622" type="line"/>
      <point x="52" y="622" type="line"/>
    </contour>
    <contour>
      <point x="-129" y="597" type="curve"/>
      <point x="-138" y="518" type="line"/>
      <point x="-58" y="476"/>
      <point x="0" y="439"/>
      <point x="57" y="390" type="curve"/>
      <point x="97" y="449" type="line"/>
      <point x="33" y="497"/>
      <point x="-37" y="545"/>
    </contour>
  </outline>
</glyph>
<glyph name="AA_dv.ttha" format="2">
  <advance width="213"/>
  <outline>
    <contour>
      <point x="52" y="0" type="line"/>
      <point x="133" y="0" type="line"/>
      <point x="133" y="622" type="line"/>
      <point x="52" y="622" type="line"/>
    </contour>
    <contour>
      <point x="-239" y="609" type="curve"/>
      <point x="-238" y="536" type="line"/>
      <point x="-120" y="484"/>
      <point x="0" y="438"/>
      <point x="57" y="412" type="curve"/>
      <point x="97" y="471" type="line"/>
      <point x="33" y="498"/>
      <point x="-99" y="549"/>
    </contour>
  </outline>
</glyph>
<glyph name="AI_dv.alt" format="2">
  <advance width="793"/>
  <outline>
    <contour>
      <point x="632" y="600" type="line"/>
      <point x="713" y="600" type="line"/>
      <point x="713" y="688" type="line" smooth="yes"/>
      <point x="713" y="773"/>
      <point x="650" y="818"/>
      <point x="572" y="818" type="curve" smooth="yes"/>
      <point x="542" y="818"/>
      <point x="488" y="804"/>
      <point x="457" y="804" type="curve" smooth="yes"/>
      <point x="424" y="804"/>
      <point x="391" y="819"/>
      <point x="333" y="897" type="curve"/>
      <point x="273" y="860" type="line"/>
      <point x="350" y="741"/>
      <point x="405" y="736"/>
      <point x="457" y="736" type="curve" smooth="yes"/>
      <point x="494" y="736"/>
      <point x="530" y="750"/>
      <point x="571" y="750" type="curve" smooth="yes"/>
      <point x="599" y="750"/>
      <point x="632" y="741"/>
      <point x="632" y="700" type="curve" smooth="yes"/>
    </contour>
    <contour>
      <point x="141" y="100" type="curve"/>
      <point x="193" y="152" type="line"/>
      <point x="152" y="204"/>
      <point x="130" y="286"/>
      <point x="130" y="363" type="curve" smooth="yes"/>
      <point x="130" y="446"/>
      <point x="156" y="531"/>
      <point x="225" y="587" type="curve"/>
      <point x="179" y="646" type="line"/>
      <point x="81" y="570"/>
      <point x="50" y="464"/>
      <point x="50" y="363" type="curve" smooth="yes"/>
      <point x="50" y="265"/>
      <point x="82" y="164"/>
    </contour>
  </outline>
</glyph>
<glyph name="AI_dv.lg" format="2">
  <outline>
    <contour>
      <point x="-175" y="817" type="curve" smooth="yes"/>
      <point x="-226" y="817"/>
      <point x="-265" y="801"/>
      <point x="-320" y="801" type="curve" smooth="yes"/>
      <point x="-378" y="801"/>
      <point x="-434" y="818"/>
      <point x="-490" y="896" type="curve"/>
      <point x="-548" y="859" type="line"/>
      <point x="-474" y="741"/>
      <point x="-370" y="733"/>
      <point x="-323" y="733" type="curve" smooth="yes"/>
      <point x="-257" y="733"/>
      <point x="-230" y="750"/>
      <point x="-182" y="750" type="curve" smooth="yes"/>
      <point x="-138" y="750"/>
      <point x="-102" y="736"/>
      <point x="-102" y="697" type="curve" smooth="yes"/>
      <point x="-102" y="643"/>
      <point x="-175" y="619"/>
      <point x="-275" y="619" type="curve" smooth="yes"/>
      <point x="-337" y="619"/>
      <point x="-392" y="628"/>
      <point x="-445" y="675" type="curve"/>
      <point x="-509" y="675" type="line"/>
      <point x="-542" y="646"/>
      <point x="-589" y="619"/>
      <point x="-672" y="619" type="curve" smooth="yes"/>
      <point x="-748" y="619"/>
      <point x="-802" y="640"/>
      <point x="-838" y="681" type="curve"/>
      <point x="-897" y="649" type="line"/>
      <point x="-846" y="588"/>
      <point x="-772" y="551"/>
      <point x="-662" y="551" type="curve" smooth="yes"/>
      <point x="-585" y="551"/>
      <point x="-525" y="569"/>
      <point x="-477" y="606" type="curve"/>
      <point x="-424" y="563"/>
      <point x="-363" y="551"/>
      <point x="-292" y="551" type="curve" smooth="yes"/>
      <point x="-157" y="551"/>
      <point x="-31" y="597"/>
      <point x="-31" y="700" type="curve" smooth="yes"/>
      <point x="-31" y="771"/>
      <point x="-92" y="817"/>
    </contour>
  </outline>
</glyph>
<glyph name="AI_dv.md" format="2">
  <outline>
    <contour>
      <point x="-150" y="818" type="curve" smooth="yes"/>
      <point x="-187" y="818"/>
      <point x="-219" y="804"/>
      <point x="-250" y="804" type="curve" smooth="yes"/>
      <point x="-283" y="804"/>
      <point x="-316" y="819"/>
      <point x="-374" y="897" type="curve"/>
      <point x="-434" y="860" type="line"/>
      <point x="-359" y="752"/>
      <point x="-302" y="736"/>
      <point x="-250" y="736" type="curve" smooth="yes"/>
      <point x="-213" y="736"/>
      <point x="-198" y="750"/>
      <point x="-159" y="750" type="curve" smooth="yes"/>
      <point x="-127" y="750"/>
      <point x="-89" y="740"/>
      <point x="-89" y="693" type="curve" smooth="yes"/>
      <point x="-89" y="635"/>
      <point x="-155" y="622"/>
      <point x="-202" y="622" type="curve" smooth="yes"/>
      <point x="-257" y="622"/>
      <point x="-297" y="641"/>
      <point x="-325" y="675" type="curve"/>
      <point x="-389" y="675" type="line"/>
      <point x="-427" y="646"/>
      <point x="-479" y="619"/>
      <point x="-542" y="619" type="curve" smooth="yes"/>
      <point x="-598" y="619"/>
      <point x="-642" y="640"/>
      <point x="-668" y="681" type="curve"/>
      <point x="-725" y="650" type="line"/>
      <point x="-684" y="579"/>
      <point x="-627" y="551"/>
      <point x="-535" y="551" type="curve" smooth="yes"/>
      <point x="-470" y="551"/>
      <point x="-408" y="565"/>
      <point x="-357" y="605" type="curve"/>
      <point x="-317" y="568"/>
      <point x="-270" y="550"/>
      <point x="-206" y="550" type="curve" smooth="yes"/>
      <point x="-82" y="550"/>
      <point x="-16" y="616"/>
      <point x="-16" y="692" type="curve" smooth="yes"/>
      <point x="-16" y="767"/>
      <point x="-79" y="818"/>
    </contour>
  </outline>
</glyph>
<glyph name="AI_dv.sm" format="2">
  <outline>
    <contour>
      <point x="-146" y="814" type="curve" smooth="yes"/>
      <point x="-171" y="814"/>
      <point x="-198" y="800"/>
      <point x="-216" y="800" type="curve" smooth="yes"/>
      <point x="-246" y="800"/>
      <point x="-268" y="831"/>
      <point x="-290" y="862" type="curve"/>
      <point x="-337" y="824" type="line"/>
      <point x="-297" y="759"/>
      <point x="-263" y="735"/>
      <point x="-223" y="735" type="curve" smooth="yes"/>
      <point x="-194" y="735"/>
      <point x="-170" y="749"/>
      <point x="-144" y="749" type="curve" smooth="yes"/>
      <point x="-115" y="749"/>
      <point x="-95" y="725"/>
      <point x="-95" y="690" type="curve" smooth="yes"/>
      <point x="-95" y="645"/>
      <point x="-128" y="619"/>
      <point x="-166" y="619" type="curve" smooth="yes"/>
      <point x="-202" y="619"/>
      <point x="-225" y="641"/>
      <point x="-249" y="675" type="curve"/>
      <point x="-309" y="675" type="line"/>
      <point x="-335" y="646"/>
      <point x="-367" y="619"/>
      <point x="-410" y="619" type="curve" smooth="yes"/>
      <point x="-448" y="619"/>
      <point x="-482" y="640"/>
      <point x="-505" y="681" type="curve"/>
      <point x="-557" y="650" type="line"/>
      <point x="-520" y="579"/>
      <point x="-464" y="551"/>
      <point x="-406" y="551" type="curve" smooth="yes"/>
      <point x="-357" y="551"/>
      <point x="-309" y="572"/>
      <point x="-279" y="605" type="curve"/>
      <point x="-252" y="573"/>
      <point x="-214" y="551"/>
      <point x="-164" y="551" type="curve" smooth="yes"/>
      <point x="-69" y="551"/>
      <point x="-27" y="622"/>
      <point x="-27" y="689" type="curve" smooth="yes"/>
      <point x="-27" y="772"/>
      <point x="-82" y="814"/>
    </contour>
  </outline>
</glyph>
<glyph name="AI_dv.xlg" format="2">
  <outline>
    <contour>
      <point x="-100" y="817" type="curve" smooth="yes"/>
      <point x="-150" y="817"/>
      <point x="-189" y="801"/>
      <point x="-244" y="801" type="curve" smooth="yes"/>
      <point x="-302" y="801"/>
      <point x="-368" y="818"/>
      <point x="-424" y="896" type="curve"/>
      <point x="-482" y="859" type="line"/>
      <point x="-408" y="741"/>
      <point x="-294" y="733"/>
      <point x="-247" y="733" type="curve" smooth="yes"/>
      <point x="-181" y="733"/>
      <point x="-154" y="750"/>
      <point x="-106" y="750" type="curve" smooth="yes"/>
      <point x="-62" y="750"/>
      <point x="-26" y="734"/>
      <point x="-26" y="697" type="curve" smooth="yes"/>
      <point x="-26" y="641"/>
      <point x="-111" y="619"/>
      <point x="-222" y="619" type="curve" smooth="yes"/>
      <point x="-292" y="619"/>
      <point x="-382" y="628"/>
      <point x="-445" y="675" type="curve"/>
      <point x="-509" y="675" type="line"/>
      <point x="-556" y="646"/>
      <point x="-629" y="619"/>
      <point x="-742" y="619" type="curve" smooth="yes"/>
      <point x="-848" y="619"/>
      <point x="-902" y="640"/>
      <point x="-938" y="681" type="curve"/>
      <point x="-997" y="649" type="line"/>
      <point x="-946" y="588"/>
      <point x="-890" y="551"/>
      <point x="-739" y="551" type="curve" smooth="yes"/>
      <point x="-632" y="551"/>
      <point x="-546" y="569"/>
      <point x="-477" y="605" type="curve"/>
      <point x="-402" y="561"/>
      <point x="-309" y="551"/>
      <point x="-234" y="551" type="curve" smooth="yes"/>
      <point x="-80" y="551"/>
      <point x="45" y="597"/>
      <point x="45" y="700" type="curve" smooth="yes"/>
      <point x="45" y="771"/>
      <point x="-16" y="817"/>
    </contour>
  </outline>
</glyph>
<glyph name="AI_dv_top.alt" format="2">
  <outline>
    <contour>
      <point x="632" y="700" type="curve" smooth="yes"/>
      <point x="632" y="560" type="line"/>
      <point x="713" y="560" type="line"/>
      <point x="713" y="688" type="line" smooth="yes"/>
      <point x="713" y="773"/>
      <point x="650" y="818"/>
      <point x="572" y="818" type="curve" smooth="yes"/>
      <point x="542" y="818"/>
      <point x="488" y="804"/>
      <point x="457" y="804" type="curve" smooth="yes"/>
      <point x="424" y="804"/>
      <point x="391" y="819"/>
      <point x="333" y="897" type="curve"/>
      <point x="273" y="860" type="line"/>
      <point x="350" y="741"/>
      <point x="405" y="736"/>
      <point x="457" y="736" type="curve" smooth="yes"/>
      <point x="494" y="736"/>
      <point x="530" y="750"/>
      <point x="571" y="750" type="curve" smooth="yes"/>
      <point x="599" y="750"/>
      <point x="632" y="741"/>
    </contour>
  </outline>
</glyph>
<glyph name="AU_dv.alt" format="2">
  <advance width="807"/>
  <outline>
    <contour>
      <point x="626" y="600" type="line"/>
      <point x="707" y="600" type="line"/>
      <point x="707" y="688" type="line" smooth="yes"/>
      <point x="707" y="773"/>
      <point x="644" y="818"/>
      <point x="566" y="818" type="curve" smooth="yes"/>
      <point x="536" y="818"/>
      <point x="482" y="804"/>
      <point x="451" y="804" type="curve" smooth="yes"/>
      <point x="418" y="804"/>
      <point x="385" y="819"/>
      <point x="327" y="897" type="curve"/>
      <point x="267" y="860" type="line"/>
      <point x="344" y="741"/>
      <point x="399" y="736"/>
      <point x="451" y="736" type="curve" smooth="yes"/>
      <point x="488" y="736"/>
      <point x="524" y="750"/>
      <point x="565" y="750" type="curve" smooth="yes"/>
      <point x="593" y="750"/>
      <point x="626" y="741"/>
      <point x="626" y="700" type="curve" smooth="yes"/>
    </contour>
    <contour>
      <point x="626" y="0" type="line"/>
      <point x="707" y="0" type="line"/>
      <point x="707" y="622" type="line"/>
      <point x="626" y="622" type="line"/>
    </contour>
    <contour>
      <point x="517" y="577" type="curve"/>
      <point x="457" y="534" type="line"/>
      <point x="506" y="479"/>
      <point x="573" y="424"/>
      <point x="644" y="363" type="curve"/>
      <point x="698" y="417" type="line"/>
      <point x="632" y="470"/>
      <point x="567" y="519"/>
    </contour>
    <contour>
      <point x="141" y="100" type="curve"/>
      <point x="193" y="152" type="line"/>
      <point x="152" y="204"/>
      <point x="130" y="286"/>
      <point x="130" y="363" type="curve" smooth="yes"/>
      <point x="130" y="446"/>
      <point x="156" y="531"/>
      <point x="225" y="587" type="curve"/>
      <point x="179" y="646" type="line"/>
      <point x="81" y="570"/>
      <point x="50" y="464"/>
      <point x="50" y="363" type="curve" smooth="yes"/>
      <point x="50" y="265"/>
      <point x="82" y="164"/>
    </contour>
  </outline>
</glyph>
<glyph name="AU_dv.lg" format="2">
  <advance width="190"/>
  <outline>
    <contour>
      <point x="28" y="622" type="line"/>
      <point x="28" y="0" type="line"/>
      <point x="109" y="0" type="line"/>
      <point x="109" y="656" type="line"/>
    </contour>
    <contour>
      <point x="4" y="817" type="curve" smooth="yes"/>
      <point x="-46" y="817"/>
      <point x="-88" y="804"/>
      <point x="-143" y="804" type="curve" smooth="yes"/>
      <point x="-201" y="804"/>
      <point x="-254" y="818"/>
      <point x="-310" y="896" type="curve"/>
      <point x="-368" y="859" type="line"/>
      <point x="-294" y="745"/>
      <point x="-182" y="736"/>
      <point x="-140" y="736" type="curve" smooth="yes"/>
      <point x="-88" y="736"/>
      <point x="-47" y="750"/>
      <point x="2" y="750" type="curve" smooth="yes"/>
      <point x="45" y="750"/>
      <point x="78" y="736"/>
      <point x="78" y="701" type="curve" smooth="yes"/>
      <point x="78" y="640"/>
      <point x="-37" y="633"/>
      <point x="-103" y="633" type="curve" smooth="yes"/>
      <point x="-177" y="633"/>
      <point x="-254" y="643"/>
      <point x="-309" y="687" type="curve"/>
      <point x="-373" y="687" type="line"/>
      <point x="-411" y="658"/>
      <point x="-474" y="619"/>
      <point x="-598" y="619" type="curve" smooth="yes"/>
      <point x="-703" y="619"/>
      <point x="-758" y="646"/>
      <point x="-794" y="687" type="curve"/>
      <point x="-853" y="655" type="line"/>
      <point x="-802" y="594"/>
      <point x="-738" y="551"/>
      <point x="-588" y="551" type="curve" smooth="yes"/>
      <point x="-480" y="551"/>
      <point x="-411" y="572"/>
      <point x="-341" y="617" type="curve"/>
      <point x="-270" y="570"/>
      <point x="-182" y="561"/>
      <point x="-99" y="561" type="curve" smooth="yes"/>
      <point x="18" y="561"/>
      <point x="150" y="579"/>
      <point x="150" y="701" type="curve" smooth="yes"/>
      <point x="150" y="782"/>
      <point x="88" y="817"/>
    </contour>
  </outline>
</glyph>
<glyph name="AU_dv.md" format="2">
  <advance width="190"/>
  <outline>
    <contour>
      <point x="28" y="622" type="line"/>
      <point x="28" y="0" type="line"/>
      <point x="109" y="0" type="line"/>
      <point x="109" y="656" type="line"/>
    </contour>
    <contour>
      <point x="9" y="817" type="curve" smooth="yes"/>
      <point x="-42" y="817"/>
      <point x="-83" y="804"/>
      <point x="-138" y="804" type="curve" smooth="yes"/>
      <point x="-196" y="804"/>
      <point x="-254" y="818"/>
      <point x="-310" y="896" type="curve"/>
      <point x="-368" y="859" type="line"/>
      <point x="-294" y="748"/>
      <point x="-194" y="736"/>
      <point x="-130" y="736" type="curve" smooth="yes"/>
      <point x="-60" y="736"/>
      <point x="-38" y="750"/>
      <point x="7" y="750" type="curve" smooth="yes"/>
      <point x="54" y="750"/>
      <point x="78" y="734"/>
      <point x="78" y="703" type="curve" smooth="yes"/>
      <point x="78" y="637"/>
      <point x="-43" y="629"/>
      <point x="-96" y="629" type="curve" smooth="yes"/>
      <point x="-149" y="629"/>
      <point x="-211" y="640"/>
      <point x="-254" y="687" type="curve"/>
      <point x="-318" y="687" type="line"/>
      <point x="-352" y="658"/>
      <point x="-398" y="629"/>
      <point x="-501" y="629" type="curve" smooth="yes"/>
      <point x="-597" y="629"/>
      <point x="-651" y="652"/>
      <point x="-687" y="693" type="curve"/>
      <point x="-746" y="661" type="line"/>
      <point x="-703" y="600"/>
      <point x="-644" y="561"/>
      <point x="-493" y="561" type="curve" smooth="yes"/>
      <point x="-403" y="561"/>
      <point x="-346" y="572"/>
      <point x="-286" y="617" type="curve"/>
      <point x="-224" y="571"/>
      <point x="-170" y="561"/>
      <point x="-98" y="561" type="curve" smooth="yes"/>
      <point x="-1" y="561"/>
      <point x="150" y="579"/>
      <point x="150" y="702" type="curve" smooth="yes"/>
      <point x="150" y="782"/>
      <point x="92" y="817"/>
    </contour>
  </outline>
</glyph>
<glyph name="AU_dv.sm" format="2">
  <advance width="209"/>
  <outline>
    <contour>
      <point x="29" y="622" type="line"/>
      <point x="29" y="0" type="line"/>
      <point x="110" y="0" type="line"/>
      <point x="110" y="622" type="line"/>
    </contour>
    <contour>
      <point x="9" y="816" type="curve" smooth="yes"/>
      <point x="-28" y="816"/>
      <point x="-81" y="802"/>
      <point x="-113" y="802" type="curve" smooth="yes"/>
      <point x="-146" y="802"/>
      <point x="-179" y="817"/>
      <point x="-237" y="895" type="curve"/>
      <point x="-296" y="860" type="line"/>
      <point x="-219" y="741"/>
      <point x="-156" y="736"/>
      <point x="-114" y="736" type="curve" smooth="yes"/>
      <point x="-67" y="736"/>
      <point x="-39" y="750"/>
      <point x="2" y="750" type="curve" smooth="yes"/>
      <point x="32" y="750"/>
      <point x="71" y="740"/>
      <point x="71" y="693" type="curve" smooth="yes"/>
      <point x="71" y="635"/>
      <point x="22" y="618"/>
      <point x="-37" y="618" type="curve" smooth="yes"/>
      <point x="-100" y="618"/>
      <point x="-130" y="637"/>
      <point x="-157" y="673" type="curve"/>
      <point x="-221" y="673" type="line"/>
      <point x="-249" y="644"/>
      <point x="-286" y="617"/>
      <point x="-342" y="617" type="curve" smooth="yes"/>
      <point x="-390" y="617"/>
      <point x="-444" y="638"/>
      <point x="-470" y="679" type="curve"/>
      <point x="-527" y="648" type="line"/>
      <point x="-486" y="577"/>
      <point x="-419" y="549"/>
      <point x="-343" y="549" type="curve" smooth="yes"/>
      <point x="-277" y="549"/>
      <point x="-230" y="570"/>
      <point x="-189" y="603" type="curve"/>
      <point x="-136" y="558"/>
      <point x="-81" y="550"/>
      <point x="-40" y="550" type="curve" smooth="yes"/>
      <point x="78" y="550"/>
      <point x="144" y="617"/>
      <point x="144" y="693" type="curve" smooth="yes"/>
      <point x="144" y="768"/>
      <point x="80" y="816"/>
    </contour>
  </outline>
</glyph>
<glyph name="AU_dv.tall" format="2">
  <advance width="209"/>
  <outline>
    <contour>
      <point x="28" y="12" type="line"/>
      <point x="28" y="-151" type="line"/>
      <point x="109" y="-151" type="line"/>
      <point x="109" y="12" type="line"/>
    </contour>
    <contour>
      <point x="28" y="622" type="line"/>
      <point x="28" y="0" type="line"/>
      <point x="109" y="0" type="line"/>
      <point x="109" y="622" type="line"/>
    </contour>
    <contour>
      <point x="-238" y="897" type="curve"/>
      <point x="-297" y="862" type="line"/>
      <point x="-220" y="743"/>
      <point x="-165" y="738"/>
      <point x="-113" y="738" type="curve" smooth="yes"/>
      <point x="-76" y="738"/>
      <point x="-40" y="752"/>
      <point x="1" y="752" type="curve" smooth="yes"/>
      <point x="31" y="752"/>
      <point x="70" y="742"/>
      <point x="70" y="695" type="curve" smooth="yes"/>
      <point x="70" y="637"/>
      <point x="6" y="620"/>
      <point x="-66" y="620" type="curve" smooth="yes"/>
      <point x="-146" y="620"/>
      <point x="-173" y="639"/>
      <point x="-200" y="675" type="curve"/>
      <point x="-260" y="675" type="line"/>
      <point x="-239" y="564"/>
      <point x="-126" y="552"/>
      <point x="-68" y="552" type="curve" smooth="yes"/>
      <point x="75" y="552"/>
      <point x="143" y="619"/>
      <point x="143" y="695" type="curve" smooth="yes"/>
      <point x="143" y="770"/>
      <point x="79" y="818"/>
      <point x="1" y="818" type="curve" smooth="yes"/>
      <point x="-29" y="818"/>
      <point x="-83" y="804"/>
      <point x="-114" y="804" type="curve" smooth="yes"/>
      <point x="-147" y="804"/>
      <point x="-180" y="819"/>
    </contour>
    <contour>
      <point x="-608" y="650" type="line"/>
      <point x="-567" y="579"/>
      <point x="-500" y="551"/>
      <point x="-414" y="551" type="curve" smooth="yes"/>
      <point x="-316" y="551"/>
      <point x="-226" y="588"/>
      <point x="-209" y="654" type="curve"/>
      <point x="-260" y="675" type="line"/>
      <point x="-288" y="646"/>
      <point x="-347" y="619"/>
      <point x="-413" y="619" type="curve" smooth="yes"/>
      <point x="-471" y="619"/>
      <point x="-525" y="640"/>
      <point x="-551" y="681" type="curve"/>
    </contour>
  </outline>
</glyph>
<glyph name="AU_dv.xlg.tall" format="2">
  <advance width="190"/>
  <outline>
    <contour>
      <point x="28" y="12" type="line"/>
      <point x="28" y="-151" type="line"/>
      <point x="109" y="-151" type="line"/>
      <point x="109" y="12" type="line"/>
    </contour>
    <contour>
      <point x="28" y="622" type="line"/>
      <point x="28" y="0" type="line"/>
      <point x="109" y="0" type="line"/>
      <point x="109" y="656" type="line"/>
    </contour>
    <contour>
      <point x="8" y="817" type="curve" smooth="yes"/>
      <point x="-44" y="817"/>
      <point x="-83" y="801"/>
      <point x="-138" y="801" type="curve" smooth="yes"/>
      <point x="-196" y="801"/>
      <point x="-262" y="818"/>
      <point x="-318" y="896" type="curve"/>
      <point x="-376" y="859" type="line"/>
      <point x="-302" y="741"/>
      <point x="-188" y="733"/>
      <point x="-141" y="733" type="curve" smooth="yes"/>
      <point x="-75" y="733"/>
      <point x="-48" y="750"/>
      <point x="0" y="750" type="curve" smooth="yes"/>
      <point x="44" y="750"/>
      <point x="80" y="736"/>
      <point x="80" y="699" type="curve" smooth="yes"/>
      <point x="80" y="643"/>
      <point x="-6" y="619"/>
      <point x="-117" y="619" type="curve" smooth="yes"/>
      <point x="-187" y="619"/>
      <point x="-286" y="628"/>
      <point x="-339" y="675" type="curve"/>
      <point x="-403" y="675" type="line"/>
      <point x="-451" y="646"/>
      <point x="-523" y="619"/>
      <point x="-636" y="619" type="curve" smooth="yes"/>
      <point x="-742" y="619"/>
      <point x="-796" y="640"/>
      <point x="-832" y="681" type="curve"/>
      <point x="-891" y="649" type="line"/>
      <point x="-840" y="588"/>
      <point x="-784" y="551"/>
      <point x="-633" y="551" type="curve" smooth="yes"/>
      <point x="-526" y="551"/>
      <point x="-440" y="569"/>
      <point x="-371" y="605" type="curve"/>
      <point x="-296" y="561"/>
      <point x="-204" y="551"/>
      <point x="-129" y="551" type="curve" smooth="yes"/>
      <point x="25" y="551"/>
      <point x="151" y="597"/>
      <point x="151" y="700" type="curve" smooth="yes"/>
      <point x="151" y="771"/>
      <point x="90" y="817"/>
    </contour>
  </outline>
</glyph>
<glyph name="AU_dv.xxlg" format="2">
  <advance width="190"/>
  <outline>
    <contour>
      <point x="28" y="622" type="line"/>
      <point x="28" y="0" type="line"/>
      <point x="109" y="0" type="line"/>
      <point x="109" y="656" type="line"/>
    </contour>
    <contour>
      <point x="5" y="817" type="curve" smooth="yes"/>
      <point x="-44" y="817"/>
      <point x="-83" y="801"/>
      <point x="-138" y="801" type="curve" smooth="yes"/>
      <point x="-196" y="801"/>
      <point x="-262" y="818"/>
      <point x="-318" y="896" type="curve"/>
      <point x="-376" y="859" type="line"/>
      <point x="-302" y="741"/>
      <point x="-188" y="733"/>
      <point x="-141" y="733" type="curve" smooth="yes"/>
      <point x="-75" y="733"/>
      <point x="-48" y="750"/>
      <point x="0" y="750" type="curve" smooth="yes"/>
      <point x="44" y="750"/>
      <point x="80" y="732"/>
      <point x="80" y="699" type="curve" smooth="yes"/>
      <point x="80" y="631"/>
      <point x="-69" y="619"/>
      <point x="-194" y="619" type="curve" smooth="yes"/>
      <point x="-342" y="619"/>
      <point x="-391" y="638"/>
      <point x="-444" y="674" type="curve"/>
      <point x="-508" y="674" type="line"/>
      <point x="-563" y="645"/>
      <point x="-663" y="618"/>
      <point x="-769" y="618" type="curve" smooth="yes"/>
      <point x="-862" y="618"/>
      <point x="-948" y="639"/>
      <point x="-990" y="680" type="curve"/>
      <point x="-1051" y="649" type="line"/>
      <point x="-985" y="578"/>
      <point x="-908" y="550"/>
      <point x="-767" y="550" type="curve" smooth="yes"/>
      <point x="-647" y="550"/>
      <point x="-543" y="564"/>
      <point x="-476" y="606" type="curve"/>
      <point x="-398" y="560"/>
      <point x="-298" y="553"/>
      <point x="-191" y="553" type="curve" smooth="yes"/>
      <point x="-65" y="553"/>
      <point x="151" y="566"/>
      <point x="151" y="700" type="curve" smooth="yes"/>
      <point x="151" y="768"/>
      <point x="90" y="817"/>
    </contour>
  </outline>
</glyph>
<glyph name="AU_dv_part.alt" format="2">
  <advance width="213"/>
  <outline>
    <contour>
      <point x="47" y="622" type="line"/>
      <point x="47" y="445" type="line"/>
      <point x="0" y="483"/>
      <point x="-41" y="517"/>
      <point x="-82" y="556" type="curve"/>
      <point x="-135" y="514" type="line"/>
      <point x="-83" y="465"/>
      <point x="-23" y="415"/>
      <point x="47" y="355" type="curve"/>
      <point x="47" y="0" type="line"/>
      <point x="128" y="0" type="line"/>
      <point x="128" y="622" type="line"/>
    </contour>
    <contour>
      <point x="47" y="700" type="curve" smooth="yes"/>
      <point x="47" y="560" type="line"/>
      <point x="128" y="560" type="line"/>
      <point x="128" y="688" type="line" smooth="yes"/>
      <point x="128" y="773"/>
      <point x="65" y="818"/>
      <point x="-13" y="818" type="curve" smooth="yes"/>
      <point x="-43" y="818"/>
      <point x="-97" y="804"/>
      <point x="-128" y="804" type="curve" smooth="yes"/>
      <point x="-161" y="804"/>
      <point x="-194" y="819"/>
      <point x="-252" y="897" type="curve"/>
      <point x="-312" y="860" type="line"/>
      <point x="-235" y="741"/>
      <point x="-180" y="736"/>
      <point x="-128" y="736" type="curve" smooth="yes"/>
      <point x="-91" y="736"/>
      <point x="-55" y="750"/>
      <point x="-14" y="750" type="curve" smooth="yes"/>
      <point x="14" y="750"/>
      <point x="47" y="741"/>
    </contour>
  </outline>
</glyph>
<glyph name="AU_dv_part.alt2" format="2">
  <advance width="213"/>
  <outline>
    <contour>
      <point x="52" y="0" type="line"/>
      <point x="133" y="0" type="line"/>
      <point x="133" y="622" type="line"/>
      <point x="52" y="622" type="line"/>
    </contour>
    <contour>
      <point x="-109" y="551" type="curve"/>
      <point x="-118" y="472" type="line"/>
      <point x="-58" y="430"/>
      <point x="0" y="386"/>
      <point x="57" y="337" type="curve"/>
      <point x="97" y="396" type="line"/>
      <point x="33" y="444"/>
      <point x="-37" y="499"/>
    </contour>
    <contour>
      <point x="52" y="700" type="curve" smooth="yes"/>
      <point x="52" y="560" type="line"/>
      <point x="133" y="560" type="line"/>
      <point x="133" y="688" type="line" smooth="yes"/>
      <point x="133" y="773"/>
      <point x="70" y="818"/>
      <point x="-8" y="818" type="curve" smooth="yes"/>
      <point x="-38" y="818"/>
      <point x="-92" y="804"/>
      <point x="-123" y="804" type="curve" smooth="yes"/>
      <point x="-156" y="804"/>
      <point x="-189" y="819"/>
      <point x="-247" y="897" type="curve"/>
      <point x="-307" y="860" type="line"/>
      <point x="-230" y="741"/>
      <point x="-175" y="736"/>
      <point x="-123" y="736" type="curve" smooth="yes"/>
      <point x="-86" y="736"/>
      <point x="-50" y="750"/>
      <point x="-9" y="750" type="curve" smooth="yes"/>
      <point x="19" y="750"/>
      <point x="52" y="741"/>
    </contour>
  </outline>
</glyph>
<glyph name="AU_dv_part.alt2_anusvara" format="2">
  <advance width="213"/>
  <outline>
    <contour>
      <point x="52" y="0" type="line"/>
      <point x="133" y="0" type="line"/>
      <point x="133" y="622" type="line"/>
      <point x="52" y="622" type="line"/>
    </contour>
    <contour>
      <point x="-109" y="551" type="curve"/>
      <point x="-118" y="472" type="line"/>
      <point x="-58" y="430"/>
      <point x="0" y="386"/>
      <point x="57" y="337" type="curve"/>
      <point x="97" y="396" type="line"/>
      <point x="33" y="444"/>
      <point x="-37" y="499"/>
    </contour>
    <contour>
      <point x="52" y="700" type="curve" smooth="yes"/>
      <point x="52" y="560" type="line"/>
      <point x="133" y="560" type="line"/>
      <point x="133" y="688" type="line" smooth="yes"/>
      <point x="133" y="773"/>
      <point x="70" y="818"/>
      <point x="-8" y="818" type="curve" smooth="yes"/>
      <point x="-38" y="818"/>
      <point x="-92" y="804"/>
      <point x="-123" y="804" type="curve" smooth="yes"/>
      <point x="-156" y="804"/>
      <point x="-189" y="819"/>
      <point x="-247" y="897" type="curve"/>
      <point x="-307" y="860" type="line"/>
      <point x="-230" y="741"/>
      <point x="-175" y="736"/>
      <point x="-123" y="736" type="curve" smooth="yes"/>
      <point x="-86" y="736"/>
      <point x="-50" y="750"/>
      <point x="-9" y="750" type="curve" smooth="yes"/>
      <point x="19" y="750"/>
      <point x="52" y="741"/>
    </contour>
    <contour>
      <point x="-103" y="859" type="curve" smooth="yes"/>
      <point x="-50" y="859"/>
      <point x="-11" y="898"/>
      <point x="-11" y="945" type="curve" smooth="yes"/>
      <point x="-11" y="994"/>
      <point x="-50" y="1031"/>
      <point x="-103" y="1031" type="curve" smooth="yes"/>
      <point x="-158" y="1031"/>
      <point x="-195" y="992"/>
      <point x="-195" y="945" type="curve" smooth="yes"/>
      <point x="-195" y="895"/>
      <point x="-153" y="859"/>
    </contour>
    <contour>
      <point x="-104" y="908" type="curve" smooth="yes"/>
      <point x="-126" y="908"/>
      <point x="-143" y="924"/>
      <point x="-143" y="945" type="curve" smooth="yes"/>
      <point x="-143" y="966"/>
      <point x="-128" y="983"/>
      <point x="-104" y="983" type="curve" smooth="yes"/>
      <point x="-80" y="983"/>
      <point x="-63" y="967"/>
      <point x="-63" y="945" type="curve" smooth="yes"/>
      <point x="-63" y="924"/>
      <point x="-80" y="908"/>
    </contour>
  </outline>
</glyph>
<glyph name="AU_dv_part.alt2_candra" format="2">
  <advance width="213"/>
  <outline>
    <contour>
      <point x="-186" y="954" type="curve"/>
      <point x="-213" y="933" type="line"/>
      <point x="-203" y="916"/>
      <point x="-180" y="902"/>
      <point x="-158" y="902" type="curve" smooth="yes"/>
      <point x="-109" y="902"/>
      <point x="-88" y="934"/>
      <point x="-88" y="963" type="curve" smooth="yes"/>
      <point x="-88" y="996"/>
      <point x="-109" y="1013"/>
      <point x="-136" y="1019" type="curve"/>
      <point x="-136" y="1036" type="line"/>
      <point x="-179" y="1036" type="line"/>
      <point x="-179" y="990" type="line"/>
      <point x="-147" y="990"/>
      <point x="-132" y="978"/>
      <point x="-132" y="964" type="curve" smooth="yes"/>
      <point x="-132" y="955"/>
      <point x="-139" y="943"/>
      <point x="-157" y="943" type="curve" smooth="yes"/>
      <point x="-167" y="943"/>
      <point x="-178" y="946"/>
    </contour>
    <contour>
      <point x="-260" y="935" type="curve"/>
      <point x="-303" y="899" type="line"/>
      <point x="-265" y="841"/>
      <point x="-207" y="819"/>
      <point x="-150" y="819" type="curve" smooth="yes"/>
      <point x="-93" y="819"/>
      <point x="-41" y="844"/>
      <point x="-5" y="899" type="curve"/>
      <point x="-48" y="935" type="line"/>
      <point x="-70" y="904"/>
      <point x="-107" y="876"/>
      <point x="-150" y="876" type="curve" smooth="yes"/>
      <point x="-195" y="876"/>
      <point x="-237" y="903"/>
    </contour>
    <contour>
      <point x="52" y="680" type="curve" smooth="yes"/>
      <point x="52" y="540" type="line"/>
      <point x="133" y="540" type="line"/>
      <point x="133" y="668" type="line" smooth="yes"/>
      <point x="133" y="753"/>
      <point x="70" y="798"/>
      <point x="-8" y="798" type="curve" smooth="yes"/>
      <point x="-38" y="798"/>
      <point x="-103" y="784"/>
      <point x="-164" y="784" type="curve" smooth="yes"/>
      <point x="-227" y="784"/>
      <point x="-289" y="799"/>
      <point x="-347" y="877" type="curve"/>
      <point x="-407" y="840" type="line"/>
      <point x="-330" y="731"/>
      <point x="-246" y="716"/>
      <point x="-164" y="716" type="curve" smooth="yes"/>
      <point x="-97" y="716"/>
      <point x="-50" y="730"/>
      <point x="-9" y="730" type="curve" smooth="yes"/>
      <point x="19" y="730"/>
      <point x="52" y="721"/>
    </contour>
    <contour>
      <point x="52" y="0" type="line"/>
      <point x="133" y="0" type="line"/>
      <point x="133" y="622" type="line"/>
      <point x="52" y="622" type="line"/>
    </contour>
    <contour>
      <point x="-109" y="551" type="curve"/>
      <point x="-118" y="472" type="line"/>
      <point x="-58" y="430"/>
      <point x="0" y="386"/>
      <point x="57" y="337" type="curve"/>
      <point x="97" y="396" type="line"/>
      <point x="33" y="444"/>
      <point x="-37" y="499"/>
    </contour>
  </outline>
</glyph>
<glyph name="AU_dv_part.alt3" format="2">
  <advance width="213"/>
  <outline>
    <contour>
      <point x="47" y="0" type="line"/>
      <point x="128" y="0" type="line"/>
      <point x="128" y="622" type="line"/>
      <point x="47" y="622" type="line"/>
    </contour>
    <contour>
      <point x="-181" y="577" type="curve"/>
      <point x="-216" y="519" type="line"/>
      <point x="-140" y="477"/>
      <point x="-66" y="436"/>
      <point x="49" y="373" type="curve"/>
      <point x="103" y="417" type="line"/>
      <point x="-17" y="483"/>
      <point x="-92" y="525"/>
    </contour>
    <contour>
      <point x="47" y="700" type="curve" smooth="yes"/>
      <point x="47" y="560" type="line"/>
      <point x="128" y="560" type="line"/>
      <point x="128" y="688" type="line" smooth="yes"/>
      <point x="128" y="773"/>
      <point x="65" y="818"/>
      <point x="-13" y="818" type="curve" smooth="yes"/>
      <point x="-43" y="818"/>
      <point x="-97" y="804"/>
      <point x="-128" y="804" type="curve" smooth="yes"/>
      <point x="-161" y="804"/>
      <point x="-194" y="819"/>
      <point x="-252" y="897" type="curve"/>
      <point x="-312" y="860" type="line"/>
      <point x="-235" y="741"/>
      <point x="-180" y="736"/>
      <point x="-128" y="736" type="curve" smooth="yes"/>
      <point x="-91" y="736"/>
      <point x="-55" y="750"/>
      <point x="-14" y="750" type="curve" smooth="yes"/>
      <point x="14" y="750"/>
      <point x="47" y="741"/>
    </contour>
  </outline>
</glyph>
<glyph name="AU_dv_part.alt3_anusvara" format="2">
  <advance width="213"/>
  <outline>
    <contour>
      <point x="47" y="0" type="line"/>
      <point x="128" y="0" type="line"/>
      <point x="128" y="622" type="line"/>
      <point x="47" y="622" type="line"/>
    </contour>
    <contour>
      <point x="-181" y="577" type="curve"/>
      <point x="-216" y="519" type="line"/>
      <point x="-140" y="477"/>
      <point x="-66" y="436"/>
      <point x="49" y="373" type="curve"/>
      <point x="103" y="417" type="line"/>
      <point x="-17" y="483"/>
      <point x="-92" y="525"/>
    </contour>
    <contour>
      <point x="47" y="700" type="curve" smooth="yes"/>
      <point x="47" y="560" type="line"/>
      <point x="128" y="560" type="line"/>
      <point x="128" y="688" type="line" smooth="yes"/>
      <point x="128" y="773"/>
      <point x="65" y="818"/>
      <point x="-13" y="818" type="curve" smooth="yes"/>
      <point x="-43" y="818"/>
      <point x="-97" y="804"/>
      <point x="-128" y="804" type="curve" smooth="yes"/>
      <point x="-161" y="804"/>
      <point x="-194" y="819"/>
      <point x="-252" y="897" type="curve"/>
      <point x="-312" y="860" type="line"/>
      <point x="-235" y="741"/>
      <point x="-180" y="736"/>
      <point x="-128" y="736" type="curve" smooth="yes"/>
      <point x="-91" y="736"/>
      <point x="-55" y="750"/>
      <point x="-14" y="750" type="curve" smooth="yes"/>
      <point x="14" y="750"/>
      <point x="47" y="741"/>
    </contour>
    <contour>
      <point x="-103" y="859" type="curve" smooth="yes"/>
      <point x="-50" y="859"/>
      <point x="-11" y="898"/>
      <point x="-11" y="945" type="curve" smooth="yes"/>
      <point x="-11" y="994"/>
      <point x="-50" y="1031"/>
      <point x="-103" y="1031" type="curve" smooth="yes"/>
      <point x="-158" y="1031"/>
      <point x="-195" y="992"/>
      <point x="-195" y="945" type="curve" smooth="yes"/>
      <point x="-195" y="895"/>
      <point x="-153" y="859"/>
    </contour>
    <contour>
      <point x="-104" y="908" type="curve" smooth="yes"/>
      <point x="-126" y="908"/>
      <point x="-143" y="924"/>
      <point x="-143" y="945" type="curve" smooth="yes"/>
      <point x="-143" y="966"/>
      <point x="-128" y="983"/>
      <point x="-104" y="983" type="curve" smooth="yes"/>
      <point x="-80" y="983"/>
      <point x="-63" y="967"/>
      <point x="-63" y="945" type="curve" smooth="yes"/>
      <point x="-63" y="924"/>
      <point x="-80" y="908"/>
    </contour>
  </outline>
</glyph>
<glyph name="AU_dv_part.alt3_candra" format="2">
  <advance width="213"/>
  <outline>
    <contour>
      <point x="-191" y="954" type="curve"/>
      <point x="-218" y="933" type="line"/>
      <point x="-208" y="916"/>
      <point x="-185" y="902"/>
      <point x="-163" y="902" type="curve" smooth="yes"/>
      <point x="-114" y="902"/>
      <point x="-93" y="934"/>
      <point x="-93" y="963" type="curve" smooth="yes"/>
      <point x="-93" y="996"/>
      <point x="-114" y="1013"/>
      <point x="-141" y="1019" type="curve"/>
      <point x="-141" y="1036" type="line"/>
      <point x="-184" y="1036" type="line"/>
      <point x="-184" y="990" type="line"/>
      <point x="-152" y="990"/>
      <point x="-137" y="978"/>
      <point x="-137" y="964" type="curve" smooth="yes"/>
      <point x="-137" y="955"/>
      <point x="-144" y="943"/>
      <point x="-162" y="943" type="curve" smooth="yes"/>
      <point x="-172" y="943"/>
      <point x="-183" y="946"/>
    </contour>
    <contour>
      <point x="-265" y="935" type="curve"/>
      <point x="-308" y="899" type="line"/>
      <point x="-270" y="841"/>
      <point x="-212" y="819"/>
      <point x="-155" y="819" type="curve" smooth="yes"/>
      <point x="-98" y="819"/>
      <point x="-46" y="844"/>
      <point x="-10" y="899" type="curve"/>
      <point x="-53" y="935" type="line"/>
      <point x="-75" y="904"/>
      <point x="-112" y="876"/>
      <point x="-155" y="876" type="curve" smooth="yes"/>
      <point x="-200" y="876"/>
      <point x="-242" y="903"/>
    </contour>
    <contour>
      <point x="47" y="680" type="curve" smooth="yes"/>
      <point x="47" y="540" type="line"/>
      <point x="128" y="540" type="line"/>
      <point x="128" y="668" type="line" smooth="yes"/>
      <point x="128" y="753"/>
      <point x="65" y="798"/>
      <point x="-13" y="798" type="curve" smooth="yes"/>
      <point x="-43" y="798"/>
      <point x="-108" y="784"/>
      <point x="-169" y="784" type="curve" smooth="yes"/>
      <point x="-232" y="784"/>
      <point x="-294" y="799"/>
      <point x="-352" y="877" type="curve"/>
      <point x="-412" y="840" type="line"/>
      <point x="-335" y="731"/>
      <point x="-251" y="716"/>
      <point x="-169" y="716" type="curve" smooth="yes"/>
      <point x="-102" y="716"/>
      <point x="-55" y="730"/>
      <point x="-14" y="730" type="curve" smooth="yes"/>
      <point x="14" y="730"/>
      <point x="47" y="721"/>
    </contour>
    <contour>
      <point x="47" y="0" type="line"/>
      <point x="128" y="0" type="line"/>
      <point x="128" y="622" type="line"/>
      <point x="47" y="622" type="line"/>
    </contour>
    <contour>
      <point x="-181" y="577" type="curve"/>
      <point x="-216" y="519" type="line"/>
      <point x="-140" y="477"/>
      <point x="-66" y="436"/>
      <point x="49" y="373" type="curve"/>
      <point x="103" y="417" type="line"/>
      <point x="-17" y="483"/>
      <point x="-92" y="525"/>
    </contour>
  </outline>
</glyph>
<glyph name="AU_dv_part.alt5" format="2">
  <advance width="208"/>
  <outline>
    <contour>
      <point x="42" y="0" type="line"/>
      <point x="123" y="0" type="line"/>
      <point x="123" y="622" type="line"/>
      <point x="42" y="622" type="line"/>
    </contour>
    <contour>
      <point x="-339" y="577" type="curve"/>
      <point x="-339" y="518" type="line"/>
      <point x="-229" y="486"/>
      <point x="-79" y="443"/>
      <point x="43" y="407" type="curve"/>
      <point x="78" y="456" type="line"/>
      <point x="-58" y="497"/>
      <point x="-219" y="544"/>
    </contour>
    <contour>
      <point x="42" y="700" type="curve" smooth="yes"/>
      <point x="42" y="560" type="line"/>
      <point x="123" y="560" type="line"/>
      <point x="123" y="688" type="line" smooth="yes"/>
      <point x="123" y="773"/>
      <point x="60" y="818"/>
      <point x="-18" y="818" type="curve" smooth="yes"/>
      <point x="-48" y="818"/>
      <point x="-102" y="804"/>
      <point x="-133" y="804" type="curve" smooth="yes"/>
      <point x="-166" y="804"/>
      <point x="-199" y="819"/>
      <point x="-257" y="897" type="curve"/>
      <point x="-317" y="860" type="line"/>
      <point x="-240" y="741"/>
      <point x="-185" y="736"/>
      <point x="-133" y="736" type="curve" smooth="yes"/>
      <point x="-96" y="736"/>
      <point x="-60" y="750"/>
      <point x="-19" y="750" type="curve" smooth="yes"/>
      <point x="9" y="750"/>
      <point x="42" y="741"/>
    </contour>
  </outline>
</glyph>
<glyph name="AU_dv_part.alt5_candra" format="2">
  <advance width="208"/>
  <outline>
    <contour>
      <point x="-196" y="954" type="curve"/>
      <point x="-223" y="933" type="line"/>
      <point x="-213" y="916"/>
      <point x="-190" y="902"/>
      <point x="-168" y="902" type="curve" smooth="yes"/>
      <point x="-119" y="902"/>
      <point x="-98" y="934"/>
      <point x="-98" y="963" type="curve" smooth="yes"/>
      <point x="-98" y="996"/>
      <point x="-119" y="1013"/>
      <point x="-146" y="1019" type="curve"/>
      <point x="-146" y="1036" type="line"/>
      <point x="-189" y="1036" type="line"/>
      <point x="-189" y="990" type="line"/>
      <point x="-157" y="990"/>
      <point x="-142" y="978"/>
      <point x="-142" y="964" type="curve" smooth="yes"/>
      <point x="-142" y="955"/>
      <point x="-149" y="943"/>
      <point x="-167" y="943" type="curve" smooth="yes"/>
      <point x="-177" y="943"/>
      <point x="-188" y="946"/>
    </contour>
    <contour>
      <point x="-270" y="935" type="curve"/>
      <point x="-313" y="899" type="line"/>
      <point x="-275" y="841"/>
      <point x="-217" y="819"/>
      <point x="-160" y="819" type="curve" smooth="yes"/>
      <point x="-103" y="819"/>
      <point x="-51" y="844"/>
      <point x="-15" y="899" type="curve"/>
      <point x="-58" y="935" type="line"/>
      <point x="-80" y="904"/>
      <point x="-117" y="876"/>
      <point x="-160" y="876" type="curve" smooth="yes"/>
      <point x="-205" y="876"/>
      <point x="-247" y="903"/>
    </contour>
    <contour>
      <point x="42" y="680" type="curve" smooth="yes"/>
      <point x="42" y="540" type="line"/>
      <point x="123" y="540" type="line"/>
      <point x="123" y="668" type="line" smooth="yes"/>
      <point x="123" y="753"/>
      <point x="60" y="798"/>
      <point x="-18" y="798" type="curve" smooth="yes"/>
      <point x="-48" y="798"/>
      <point x="-113" y="784"/>
      <point x="-174" y="784" type="curve" smooth="yes"/>
      <point x="-237" y="784"/>
      <point x="-299" y="799"/>
      <point x="-357" y="877" type="curve"/>
      <point x="-417" y="840" type="line"/>
      <point x="-340" y="731"/>
      <point x="-256" y="716"/>
      <point x="-174" y="716" type="curve" smooth="yes"/>
      <point x="-107" y="716"/>
      <point x="-60" y="730"/>
      <point x="-19" y="730" type="curve" smooth="yes"/>
      <point x="9" y="730"/>
      <point x="42" y="721"/>
    </contour>
    <contour>
      <point x="42" y="0" type="line"/>
      <point x="123" y="0" type="line"/>
      <point x="123" y="622" type="line"/>
      <point x="42" y="622" type="line"/>
    </contour>
    <contour>
      <point x="-339" y="577" type="curve"/>
      <point x="-339" y="518" type="line"/>
      <point x="-229" y="486"/>
      <point x="-79" y="443"/>
      <point x="43" y="407" type="curve"/>
      <point x="78" y="456" type="line"/>
      <point x="-58" y="497"/>
      <point x="-219" y="544"/>
    </contour>
  </outline>
</glyph>
<glyph name="AU_dv_part.alt6" format="2">
  <advance width="213"/>
  <outline>
    <contour>
      <point x="52" y="0" type="line"/>
      <point x="133" y="0" type="line"/>
      <point x="133" y="622" type="line"/>
      <point x="52" y="622" type="line"/>
    </contour>
    <contour>
      <point x="-491" y="628" type="curve"/>
      <point x="-491" y="581" type="line"/>
      <point x="-334" y="540"/>
      <point x="-90" y="454"/>
      <point x="53" y="397" type="curve"/>
      <point x="108" y="447" type="line"/>
      <point x="-39" y="510"/>
      <point x="-313" y="593"/>
    </contour>
    <contour>
      <point x="52" y="700" type="curve" smooth="yes"/>
      <point x="52" y="560" type="line"/>
      <point x="133" y="560" type="line"/>
      <point x="133" y="688" type="line" smooth="yes"/>
      <point x="133" y="773"/>
      <point x="70" y="818"/>
      <point x="-8" y="818" type="curve" smooth="yes"/>
      <point x="-38" y="818"/>
      <point x="-92" y="804"/>
      <point x="-123" y="804" type="curve" smooth="yes"/>
      <point x="-156" y="804"/>
      <point x="-189" y="819"/>
      <point x="-247" y="897" type="curve"/>
      <point x="-307" y="860" type="line"/>
      <point x="-230" y="741"/>
      <point x="-175" y="736"/>
      <point x="-123" y="736" type="curve" smooth="yes"/>
      <point x="-86" y="736"/>
      <point x="-50" y="750"/>
      <point x="-9" y="750" type="curve" smooth="yes"/>
      <point x="19" y="750"/>
      <point x="52" y="741"/>
    </contour>
  </outline>
</glyph>
<glyph name="AU_dv_part.alt6_anusvara" format="2">
  <advance width="213"/>
  <outline>
    <contour>
      <point x="52" y="0" type="line"/>
      <point x="133" y="0" type="line"/>
      <point x="133" y="622" type="line"/>
      <point x="52" y="622" type="line"/>
    </contour>
    <contour>
      <point x="-491" y="628" type="curve"/>
      <point x="-491" y="581" type="line"/>
      <point x="-334" y="540"/>
      <point x="-90" y="454"/>
      <point x="53" y="397" type="curve"/>
      <point x="108" y="447" type="line"/>
      <point x="-39" y="510"/>
      <point x="-313" y="593"/>
    </contour>
    <contour>
      <point x="52" y="700" type="curve" smooth="yes"/>
      <point x="52" y="560" type="line"/>
      <point x="133" y="560" type="line"/>
      <point x="133" y="688" type="line" smooth="yes"/>
      <point x="133" y="773"/>
      <point x="70" y="818"/>
      <point x="-8" y="818" type="curve" smooth="yes"/>
      <point x="-38" y="818"/>
      <point x="-92" y="804"/>
      <point x="-123" y="804" type="curve" smooth="yes"/>
      <point x="-156" y="804"/>
      <point x="-189" y="819"/>
      <point x="-247" y="897" type="curve"/>
      <point x="-307" y="860" type="line"/>
      <point x="-230" y="741"/>
      <point x="-175" y="736"/>
      <point x="-123" y="736" type="curve" smooth="yes"/>
      <point x="-86" y="736"/>
      <point x="-50" y="750"/>
      <point x="-9" y="750" type="curve" smooth="yes"/>
      <point x="19" y="750"/>
      <point x="52" y="741"/>
    </contour>
    <contour>
      <point x="-103" y="859" type="curve" smooth="yes"/>
      <point x="-50" y="859"/>
      <point x="-11" y="898"/>
      <point x="-11" y="945" type="curve" smooth="yes"/>
      <point x="-11" y="994"/>
      <point x="-50" y="1031"/>
      <point x="-103" y="1031" type="curve" smooth="yes"/>
      <point x="-158" y="1031"/>
      <point x="-195" y="992"/>
      <point x="-195" y="945" type="curve" smooth="yes"/>
      <point x="-195" y="895"/>
      <point x="-153" y="859"/>
    </contour>
    <contour>
      <point x="-104" y="908" type="curve" smooth="yes"/>
      <point x="-126" y="908"/>
      <point x="-143" y="924"/>
      <point x="-143" y="945" type="curve" smooth="yes"/>
      <point x="-143" y="966"/>
      <point x="-128" y="983"/>
      <point x="-104" y="983" type="curve" smooth="yes"/>
      <point x="-80" y="983"/>
      <point x="-63" y="967"/>
      <point x="-63" y="945" type="curve" smooth="yes"/>
      <point x="-63" y="924"/>
      <point x="-80" y="908"/>
    </contour>
  </outline>
</glyph>
<glyph name="AU_dv_part.ttha" format="2">
  <advance width="208"/>
  <outline>
    <contour>
      <point x="42" y="0" type="line"/>
      <point x="123" y="0" type="line"/>
      <point x="123" y="622" type="line"/>
      <point x="42" y="622" type="line"/>
    </contour>
    <contour>
      <point x="-249" y="609" type="curve"/>
      <point x="-248" y="536" type="line"/>
      <point x="-130" y="484"/>
      <point x="-10" y="438"/>
      <point x="47" y="412" type="curve"/>
      <point x="87" y="471" type="line"/>
      <point x="23" y="498"/>
      <point x="-109" y="549"/>
    </contour>
    <contour>
      <point x="42" y="700" type="curve" smooth="yes"/>
      <point x="42" y="560" type="line"/>
      <point x="123" y="560" type="line"/>
      <point x="123" y="688" type="line" smooth="yes"/>
      <point x="123" y="773"/>
      <point x="60" y="818"/>
      <point x="-18" y="818" type="curve" smooth="yes"/>
      <point x="-48" y="818"/>
      <point x="-102" y="804"/>
      <point x="-133" y="804" type="curve" smooth="yes"/>
      <point x="-166" y="804"/>
      <point x="-199" y="819"/>
      <point x="-257" y="897" type="curve"/>
      <point x="-317" y="860" type="line"/>
      <point x="-240" y="741"/>
      <point x="-185" y="736"/>
      <point x="-133" y="736" type="curve" smooth="yes"/>
      <point x="-96" y="736"/>
      <point x="-60" y="750"/>
      <point x="-19" y="750" type="curve" smooth="yes"/>
      <point x="9" y="750"/>
      <point x="42" y="741"/>
    </contour>
  </outline>
</glyph>
<glyph name="Ba.cd" format="2">
  <outline>
    <contour>
      <point x="-80" y="310" type="line"/>
      <point x="-161" y="310" type="line"/>
      <point x="-161" y="0" type="line"/>
      <point x="-80" y="0" type="line"/>
    </contour>
    <contour>
      <point x="-156" y="174" type="curve"/>
      <point x="-145" y="221" type="line"/>
      <point x="-188" y="237"/>
      <point x="-233" y="244"/>
      <point x="-268" y="244" type="curve" smooth="yes"/>
      <point x="-350" y="244"/>
      <point x="-411" y="206"/>
      <point x="-411" y="134" type="curve" smooth="yes"/>
      <point x="-411" y="66"/>
      <point x="-357" y="19"/>
      <point x="-277" y="19" type="curve" smooth="yes"/>
      <point x="-232" y="19"/>
      <point x="-168" y="33"/>
      <point x="-139" y="50" type="curve"/>
      <point x="-139" y="117" type="line"/>
      <point x="-161" y="93"/>
      <point x="-212" y="76"/>
      <point x="-255" y="76" type="curve" smooth="yes"/>
      <point x="-299" y="76"/>
      <point x="-336" y="93"/>
      <point x="-336" y="133" type="curve" smooth="yes"/>
      <point x="-336" y="170"/>
      <point x="-306" y="193"/>
      <point x="-257" y="193" type="curve" smooth="yes"/>
      <point x="-224" y="193"/>
      <point x="-178" y="183"/>
    </contour>
  </outline>
</glyph>
<glyph name="Ba.half" format="2">
  <advance width="370"/>
  <outline>
    <contour>
      <point x="380" y="551" type="line"/>
      <point x="380" y="622" type="line"/>
      <point x="0" y="622" type="line"/>
      <point x="0" y="551" type="line"/>
    </contour>
    <contour>
      <point x="328" y="106" type="curve"/>
      <point x="328" y="176" type="line"/>
      <point x="307" y="170"/>
      <point x="285" y="167"/>
      <point x="260" y="167" type="curve" smooth="yes"/>
      <point x="187" y="167"/>
      <point x="131" y="205"/>
      <point x="131" y="287" type="curve" smooth="yes"/>
      <point x="131" y="357"/>
      <point x="184" y="401"/>
      <point x="272" y="401" type="curve" smooth="yes"/>
      <point x="293" y="401"/>
      <point x="312" y="399"/>
      <point x="329" y="397" type="curve"/>
      <point x="329" y="466" type="line"/>
      <point x="311" y="469"/>
      <point x="290" y="470"/>
      <point x="269" y="470" type="curve" smooth="yes"/>
      <point x="138" y="470"/>
      <point x="50" y="400"/>
      <point x="50" y="286" type="curve" smooth="yes"/>
      <point x="50" y="175"/>
      <point x="132" y="98"/>
      <point x="257" y="98" type="curve" smooth="yes"/>
      <point x="283" y="98"/>
      <point x="306" y="101"/>
    </contour>
  </outline>
</glyph>
<glyph name="Ba.icd" format="2">
  <advance width="431"/>
  <outline>
    <contour>
      <point x="0" y="551" type="line"/>
      <point x="441" y="551" type="line"/>
      <point x="441" y="622" type="line"/>
      <point x="0" y="622" type="line"/>
    </contour>
    <contour>
      <point x="371" y="610" type="line"/>
      <point x="290" y="610" type="line"/>
      <point x="290" y="290" type="line"/>
      <point x="371" y="290" type="line"/>
    </contour>
    <contour>
      <point x="290" y="443" type="curve"/>
      <point x="301" y="490" type="line"/>
      <point x="258" y="506"/>
      <point x="213" y="513"/>
      <point x="178" y="513" type="curve" smooth="yes"/>
      <point x="96" y="513"/>
      <point x="35" y="475"/>
      <point x="35" y="403" type="curve" smooth="yes"/>
      <point x="35" y="335"/>
      <point x="89" y="288"/>
      <point x="169" y="288" type="curve" smooth="yes"/>
      <point x="214" y="288"/>
      <point x="278" y="302"/>
      <point x="307" y="319" type="curve"/>
      <point x="307" y="386" type="line"/>
      <point x="285" y="362"/>
      <point x="234" y="345"/>
      <point x="191" y="345" type="curve" smooth="yes"/>
      <point x="147" y="345"/>
      <point x="110" y="362"/>
      <point x="110" y="402" type="curve" smooth="yes"/>
      <point x="110" y="439"/>
      <point x="140" y="462"/>
      <point x="189" y="462" type="curve" smooth="yes"/>
      <point x="222" y="462"/>
      <point x="268" y="452"/>
    </contour>
  </outline>
</glyph>
<glyph name="Ba.icd.nohd" format="2">
  <advance width="411"/>
  <outline>
    <contour>
      <point x="331" y="610" type="line"/>
      <point x="250" y="610" type="line"/>
      <point x="250" y="290" type="line"/>
      <point x="331" y="290" type="line"/>
    </contour>
    <contour>
      <point x="250" y="443" type="curve"/>
      <point x="261" y="490" type="line"/>
      <point x="218" y="506"/>
      <point x="173" y="513"/>
      <point x="138" y="513" type="curve" smooth="yes"/>
      <point x="56" y="513"/>
      <point x="-5" y="475"/>
      <point x="-5" y="403" type="curve" smooth="yes"/>
      <point x="-5" y="335"/>
      <point x="49" y="288"/>
      <point x="129" y="288" type="curve" smooth="yes"/>
      <point x="174" y="288"/>
      <point x="238" y="302"/>
      <point x="267" y="319" type="curve"/>
      <point x="267" y="386" type="line"/>
      <point x="245" y="362"/>
      <point x="194" y="345"/>
      <point x="151" y="345" type="curve" smooth="yes"/>
      <point x="107" y="345"/>
      <point x="70" y="362"/>
      <point x="70" y="402" type="curve" smooth="yes"/>
      <point x="70" y="439"/>
      <point x="100" y="462"/>
      <point x="149" y="462" type="curve" smooth="yes"/>
      <point x="182" y="462"/>
      <point x="228" y="452"/>
    </contour>
  </outline>
</glyph>
<glyph name="Ba.icd.shim.sm" format="2">
  <advance width="471"/>
  <outline>
    <contour>
      <point x="60" y="551" type="line"/>
      <point x="501" y="551" type="line"/>
      <point x="501" y="622" type="line"/>
      <point x="60" y="622" type="line"/>
    </contour>
    <contour>
      <point x="431" y="610" type="line"/>
      <point x="350" y="610" type="line"/>
      <point x="350" y="290" type="line"/>
      <point x="431" y="290" type="line"/>
    </contour>
    <contour>
      <point x="350" y="443" type="curve"/>
      <point x="361" y="490" type="line"/>
      <point x="318" y="506"/>
      <point x="273" y="513"/>
      <point x="238" y="513" type="curve" smooth="yes"/>
      <point x="156" y="513"/>
      <point x="95" y="475"/>
      <point x="95" y="403" type="curve" smooth="yes"/>
      <point x="95" y="335"/>
      <point x="149" y="288"/>
      <point x="229" y="288" type="curve" smooth="yes"/>
      <point x="274" y="288"/>
      <point x="338" y="302"/>
      <point x="367" y="319" type="curve"/>
      <point x="367" y="386" type="line"/>
      <point x="345" y="362"/>
      <point x="294" y="345"/>
      <point x="251" y="345" type="curve" smooth="yes"/>
      <point x="207" y="345"/>
      <point x="170" y="362"/>
      <point x="170" y="402" type="curve" smooth="yes"/>
      <point x="170" y="439"/>
      <point x="200" y="462"/>
      <point x="249" y="462" type="curve" smooth="yes"/>
      <point x="282" y="462"/>
      <point x="328" y="452"/>
    </contour>
    <contour>
      <point x="70" y="622" type="line"/>
      <point x="-10" y="622" type="line"/>
      <point x="-10" y="551" type="line"/>
      <point x="70" y="551" type="line"/>
    </contour>
  </outline>
</glyph>
<glyph name="Ba.nohd" format="2">
  <advance width="566"/>
  <outline>
    <contour>
      <point x="405" y="600" type="line"/>
      <point x="405" y="219" type="line"/>
      <point x="370" y="186"/>
      <point x="321" y="167"/>
      <point x="251" y="167" type="curve" smooth="yes"/>
      <point x="187" y="167"/>
      <point x="131" y="205"/>
      <point x="131" y="287" type="curve" smooth="yes"/>
      <point x="131" y="357"/>
      <point x="184" y="401"/>
      <point x="272" y="401" type="curve" smooth="yes"/>
      <point x="352" y="401"/>
      <point x="405" y="376"/>
      <point x="431" y="363" type="curve"/>
      <point x="445" y="435" type="line"/>
      <point x="426" y="444"/>
      <point x="359" y="470"/>
      <point x="269" y="470" type="curve" smooth="yes"/>
      <point x="138" y="470"/>
      <point x="50" y="400"/>
      <point x="50" y="286" type="curve" smooth="yes"/>
      <point x="50" y="175"/>
      <point x="132" y="98"/>
      <point x="245" y="98" type="curve" smooth="yes"/>
      <point x="319" y="98"/>
      <point x="369" y="113"/>
      <point x="405" y="134" type="curve"/>
      <point x="405" y="0" type="line"/>
      <point x="486" y="0" type="line"/>
      <point x="486" y="600" type="line"/>
    </contour>
  </outline>
</glyph>
<glyph name="Bdha" format="2">
  <advance width="686"/>
  <outline>
    <contour>
      <point x="240" y="385" type="curve"/>
      <point x="251" y="442" type="line"/>
      <point x="208" y="465"/>
      <point x="173" y="475"/>
      <point x="133" y="475" type="curve" smooth="yes"/>
      <point x="46" y="475"/>
      <point x="-15" y="427"/>
      <point x="-15" y="340" type="curve" smooth="yes"/>
      <point x="-15" y="257"/>
      <point x="38" y="207"/>
      <point x="112" y="207" type="curve" smooth="yes"/>
      <point x="163" y="207"/>
      <point x="222" y="231"/>
      <point x="256" y="248" type="curve"/>
      <point x="256" y="318" type="line"/>
      <point x="228" y="294"/>
      <point x="183" y="267"/>
      <point x="134" y="267" type="curve" smooth="yes"/>
      <point x="96" y="267"/>
      <point x="60" y="284"/>
      <point x="60" y="339" type="curve" smooth="yes"/>
      <point x="60" y="391"/>
      <point x="90" y="414"/>
      <point x="143" y="414" type="curve" smooth="yes"/>
      <point x="182" y="414"/>
      <point x="215" y="401"/>
    </contour>
    <contour>
      <point x="525" y="622" type="line"/>
      <point x="525" y="0" type="line"/>
      <point x="606" y="0" type="line"/>
      <point x="606" y="622" type="line"/>
    </contour>
    <contour>
      <point x="170" y="622" type="line"/>
      <point x="170" y="553" type="line" smooth="yes"/>
      <point x="170" y="392"/>
      <point x="223" y="338"/>
      <point x="376" y="328" type="curve"/>
      <point x="439" y="385" type="line"/>
      <point x="270" y="386"/>
      <point x="251" y="437"/>
      <point x="251" y="562" type="curve" smooth="yes"/>
      <point x="251" y="622" type="line"/>
    </contour>
    <contour>
      <point x="543" y="298" type="curve"/>
      <point x="551" y="366" type="line"/>
      <point x="507" y="380"/>
      <point x="444" y="388"/>
      <point x="391" y="388" type="curve" smooth="yes"/>
      <point x="288" y="388"/>
      <point x="176" y="344"/>
      <point x="176" y="227" type="curve" smooth="yes"/>
      <point x="176" y="119"/>
      <point x="274" y="81"/>
      <point x="373" y="81" type="curve" smooth="yes"/>
      <point x="454" y="81"/>
      <point x="492" y="101"/>
      <point x="540" y="132" type="curve"/>
      <point x="545" y="221" type="line"/>
      <point x="509" y="177"/>
      <point x="456" y="151"/>
      <point x="375" y="151" type="curve" smooth="yes"/>
      <point x="316" y="151"/>
      <point x="256" y="172"/>
      <point x="256" y="229" type="curve" smooth="yes"/>
      <point x="256" y="299"/>
      <point x="327" y="318"/>
      <point x="394" y="318" type="curve" smooth="yes"/>
      <point x="439" y="318"/>
      <point x="501" y="308"/>
    </contour>
  </outline>
</glyph>
<glyph name="Bha.alt" format="2">
  <advance width="564"/>
  <outline>
    <contour>
      <point x="574" y="551" type="line"/>
      <point x="574" y="622" type="line"/>
      <point x="0" y="622" type="line"/>
      <point x="0" y="551" type="line"/>
    </contour>
    <contour>
      <point x="57" y="301" type="line"/>
      <point x="162" y="301"/>
      <point x="213" y="356"/>
      <point x="236" y="417" type="curve" smooth="yes"/>
      <point x="252" y="459"/>
      <point x="265" y="513"/>
      <point x="323" y="513" type="curve" smooth="yes"/>
      <point x="373" y="513"/>
      <point x="393" y="487"/>
      <point x="393" y="442" type="curve" smooth="yes"/>
      <point x="393" y="0" type="line"/>
      <point x="474" y="0" type="line"/>
      <point x="474" y="433" type="line" smooth="yes"/>
      <point x="474" y="536"/>
      <point x="423" y="585"/>
      <point x="329" y="585" type="curve" smooth="yes"/>
      <point x="223" y="585"/>
      <point x="198" y="507"/>
      <point x="173" y="453" type="curve" smooth="yes"/>
      <point x="151" y="405"/>
      <point x="131" y="373"/>
      <point x="57" y="373" type="curve"/>
    </contour>
  </outline>
</glyph>
<glyph name="Bha.cd" format="2">
  <outline>
    <contour>
      <point x="-18" y="-15" type="line"/>
      <point x="-277" y="146" type="line"/>
      <point x="-277" y="132" type="line"/>
      <point x="-248" y="132"/>
      <point x="-212" y="165"/>
      <point x="-176" y="203" type="curve" smooth="yes"/>
      <point x="-149" y="231"/>
      <point x="-132" y="251"/>
      <point x="-98" y="251" type="curve" smooth="yes"/>
      <point x="-65" y="251"/>
      <point x="-40" y="223"/>
      <point x="-40" y="171" type="curve" smooth="yes"/>
      <point x="-40" y="149" type="line"/>
      <point x="41" y="149" type="line"/>
      <point x="41" y="164" type="line" smooth="yes"/>
      <point x="41" y="259"/>
      <point x="-22" y="313"/>
      <point x="-90" y="313" type="curve" smooth="yes"/>
      <point x="-161" y="313"/>
      <point x="-189" y="284"/>
      <point x="-228" y="248" type="curve" smooth="yes"/>
      <point x="-264" y="214"/>
      <point x="-299" y="165"/>
      <point x="-346" y="165" type="curve"/>
      <point x="-346" y="108" type="line"/>
      <point x="-46" y="-74" type="line"/>
    </contour>
  </outline>
</glyph>
